<?xml version="1.0" encoding="UTF-8" standalone="no"?>
<svg
   xmlns:dc="http://purl.org/dc/elements/1.1/"
   xmlns:cc="http://creativecommons.org/ns#"
   xmlns:rdf="http://www.w3.org/1999/02/22-rdf-syntax-ns#"
   xmlns:svg="http://www.w3.org/2000/svg"
   xmlns="http://www.w3.org/2000/svg"
   id="svg8"
   version="1.1"
   viewBox="0 0 4.7625044 4.7625082"
   height="4.7625079mm"
   width="4.7625046mm">
  <defs
     id="defs2">
    <pattern
       id="EMFhbasepattern"
       patternUnits="userSpaceOnUse"
       width="6"
       height="6"
       x="0"
       y="0" />
    <pattern
       id="EMFhbasepattern-8"
       patternUnits="userSpaceOnUse"
       width="6"
       height="6"
       x="0"
       y="0" />
    <pattern
       id="EMFhbasepattern-1"
       patternUnits="userSpaceOnUse"
       width="6"
       height="6"
       x="0"
       y="0" />
  </defs>
  <metadata
     id="metadata5">
    <rdf:RDF>
      <cc:Work
         rdf:about="">
        <dc:format>image/svg+xml</dc:format>
        <dc:type
           rdf:resource="http://purl.org/dc/dcmitype/StillImage" />
        <dc:title></dc:title>
      </cc:Work>
    </rdf:RDF>
  </metadata>
  <g
     transform="translate(-117.85277,-31.524948)"
     id="layer1">
    <g
       transform="matrix(0.26458333,0,0,0.26458333,120.36632,-201.93337)"
       id="g5354">
      <rect
         style="opacity:0.3;fill:none;stroke:none"
         id="rect7026"
         width="18"
         height="18"
         x="0"
         y="866.36218" />
      <g
         transform="translate(-93.625326,53.056688)"
         id="g5663">
        <rect
           style="fill:none;stroke:none"
           id="rect4844"
           width="18"
           height="18"
           x="102"
           y="812.36218" />
        <g
           id="g1498"
           transform="matrix(3.7795276,0,0,3.7795276,-44.874667,423.78582)">
          <g
             id="g1491">
            <g
               transform="matrix(0.26458333,0,0,0.26458333,24.606248,-145.74375)"
               id="g7455">
              <path
                 id="path14474"
                 d="m 51,961.3622 -5.5,-3 -5.5,3 v 1.9375 5.0625 l -1,2.5 c 0,0.3611 0.23397,0.5 0.5,0.5 h 12 c 0.25638,0 0.5,-0.1389 0.5,-0.5 l -1,-2.5 v -5.0625 z"
                 style="color:#000000;display:inline;overflow:visible;visibility:visible;opacity:0.3;fill:#ffffff;fill-opacity:1;fill-rule:nonzero;stroke:#ffffff;stroke-width:2;stroke-linecap:round;stroke-linejoin:round;stroke-miterlimit:4;stroke-dasharray:none;stroke-dashoffset:0;stroke-opacity:1;marker:none;enable-background:accumulate" />
              <path
                 style="color:#000000;display:inline;overflow:visible;visibility:visible;fill:#000000;fill-opacity:1;fill-rule:nonzero;stroke:none;stroke-width:1;marker:none;enable-background:accumulate"
                 d="m 45.5,958.3622 -5.5,3 h 11 z m -4.5,4 c -0.5,0 -1,0.493 -1,0.9375 v 5.0625 l -1,2.5 c 0,0.3611 0.23397,0.5 0.5,0.5 h 12 c 0.25638,0 0.5,-0.1389 0.5,-0.5 l -1,-2.5 v -5.0625 c 0,-0.4445 -0.5,-0.9375 -1,-0.9375 z m 1.5,1 0.5,0.5 v 1.5 3 h -1 v -3 -1.5 z m 3,0 0.5,0.5 v 1.5 3 h -1 v -3 -1.5 z m 3,0 0.5,0.5 v 1.5 3 h -1 v -3 -1.5 z"
                 id="rect7645-6-5-0-1-2" />
            </g>
          </g>
          <rect
             style="color:#000000;display:inline;overflow:visible;visibility:visible;opacity:0.5;fill:none;stroke:none;stroke-width:0.52916664;marker:none;enable-background:accumulate"
             id="rect22296-2"
             width="4.7625046"
             height="4.7625079"
             x="34.131241"
             y="107.29374" />
        </g>
      </g>
      <g
         transform="translate(-97.123436,36.007642)"
         id="g5667" />
    </g>
  </g>
</svg>
