<?xml version="1.0" encoding="utf-8"?>
<!-- Generator: Adobe Illustrator 20.1.0, SVG Export Plug-In . SVG Version: 6.00 Build 0)  -->
<svg version="1.1" xmlns="http://www.w3.org/2000/svg" xmlns:xlink="http://www.w3.org/1999/xlink" x="0px" y="0px"
	 viewBox="0 0 24 24" style="enable-background:new 0 0 24 24;" xml:space="preserve">
<style type="text/css">
	.st0{display:none;}
	.st1{display:inline;}
</style>
<g id="Layer_2" class="st0">
	<ellipse transform="matrix(0.9165 -0.4001 0.4001 0.9165 -5.8938 2.5721)" class="st1" cx="3.2" cy="15.4" rx="2" ry="2"/>
	<ellipse transform="matrix(0.9165 -0.4001 0.4001 0.9165 -1.3642 3.34)" class="st1" cx="7.3" cy="4.9" rx="2" ry="2"/>
	<rect x="0.4" y="9.7" transform="matrix(0.3651 -0.931 0.931 0.3651 -6.7139 11.4564)" class="st1" width="9.2" height="2"/>
	<ellipse transform="matrix(0.9165 -0.4001 0.4001 0.9165 -2.2174 7.7495)" class="st1" cx="17.5" cy="9.2" rx="2" ry="2"/>
	<rect x="11.7" y="2.7" transform="matrix(0.3651 -0.931 0.931 0.3651 1.2839 16.4778)" class="st1" width="2" height="9.2"/>
	<ellipse transform="matrix(0.3651 -0.931 0.931 0.3651 -4.1626 32.0216)" class="st1" cx="21.4" cy="19.1" rx="2" ry="2"/>
	<rect x="18.2" y="9" transform="matrix(0.9165 -0.4001 0.4001 0.9165 -3.8225 8.8328)" class="st1" width="2" height="9.2"/>
	<polygon class="st1" points="21.5,20.6 22,18.6 3.3,14.1 2.8,16.1 	"/>
</g>
<g id="Layer_3">
	<path d="M20.4,19.6c-0.1,0-0.1-0.1-0.2-0.1l-0.3-7.4c0.6-0.3,1-1,1-1.8c0-1.1-0.9-1.9-2-1.9c-0.2,0-0.3,0-0.4,0.1L13,3.4
		c0.1-0.2,0.1-0.5,0.1-0.7c0-1.1-0.9-1.9-2-1.9c-1.1,0-1.9,0.9-1.9,2c0,0.2,0,0.3,0.1,0.4L3.8,9C3.7,9,3.5,9,3.4,9
		c-1.1,0-1.9,0.9-1.9,2c0,1.1,0.9,1.9,2,1.9c0.4,0,0.7-0.1,1-0.3l12.6,8.8c0.1,0.4,0.3,0.7,0.6,1c0.8,0.7,2,0.7,2.8-0.1
		S21.2,20.3,20.4,19.6z M5.4,10.8c0-0.1,0-0.3-0.1-0.4l5.4-5.7c0.2,0,0.3,0.1,0.5,0.1c0.1,0,0.1,0,0.2,0l5.7,5.3
		c0,0.2-0.1,0.3-0.1,0.5c0,0.7,0.4,1.2,0.9,1.6l0.3,7.2c-0.1,0.1-0.3,0.1-0.4,0.2L5.4,10.8z"/>
</g>
</svg>
