<svg xmlns="http://www.w3.org/2000/svg" width="22.627" height="31.627" viewBox="0 0 22.627 31.627">
  <g id="Group_402" data-name="Group 402" transform="translate(-6782 -6923.687)">
    <g id="Path_190" data-name="Path 190" transform="translate(6793.313 6932.687) rotate(45)" fill="rgba(85,186,99,0)">
      <path d="M 0.803292989730835 15.18950176239014 L 4.450376987457275 4.450376987457275 L 15.18950176239014 0.803292989730835 L 11.46296119689941 11.46296119689941 L 0.803292989730835 15.18950176239014 Z" stroke="none"/>
      <path d="M 14.37899494171143 1.606602668762207 L 4.844563484191895 4.844563484191895 L 1.606602668762207 14.37899494171143 L 11.07048988342285 11.07048988342285 L 14.37899494171143 1.606602668762207 M 16 0 L 11.85543060302734 11.85543060302734 L 0 16 L 4.05620002746582 4.05620002746582 L 16 0 Z" stroke="none" fill="#bcbcbc"/>
    </g>
    <g id="Path_191" data-name="Path 191" transform="translate(6793.313 6929.687) rotate(45)" fill="rgba(85,186,99,0)">
      <path d="M 0.803292989730835 15.18950176239014 L 4.450376987457275 4.450376987457275 L 15.18950176239014 0.803292989730835 L 11.46296119689941 11.46296119689941 L 0.803292989730835 15.18950176239014 Z" stroke="none"/>
      <path d="M 14.37899494171143 1.606602668762207 L 4.844563484191895 4.844563484191895 L 1.606602668762207 14.37899494171143 L 11.07048988342285 11.07048988342285 L 14.37899494171143 1.606602668762207 M 16 0 L 11.85543060302734 11.85543060302734 L 0 16 L 4.05620002746582 4.05620002746582 L 16 0 Z" stroke="none" fill="#bcbcbc"/>
    </g>
    <g id="Path_192" data-name="Path 192" transform="translate(6793.313 6926.687) rotate(45)" fill="rgba(85,186,99,0)">
      <path d="M 0.803292989730835 15.18950176239014 L 4.450376987457275 4.450376987457275 L 15.18950176239014 0.803292989730835 L 11.46296119689941 11.46296119689941 L 0.803292989730835 15.18950176239014 Z" stroke="none"/>
      <path d="M 14.37899494171143 1.606602668762207 L 4.844563484191895 4.844563484191895 L 1.606602668762207 14.37899494171143 L 11.07048988342285 11.07048988342285 L 14.37899494171143 1.606602668762207 M 16 0 L 11.85543060302734 11.85543060302734 L 0 16 L 4.05620002746582 4.05620002746582 L 16 0 Z" stroke="none" fill="#bcbcbc"/>
    </g>
    <g id="Path_193" data-name="Path 193" transform="translate(6793.313 6923.687) rotate(45)" fill="rgba(85,186,99,0)">
      <path d="M 0.803292989730835 15.18950176239014 L 4.450376987457275 4.450376987457275 L 15.18950176239014 0.803292989730835 L 11.46296119689941 11.46296119689941 L 0.803292989730835 15.18950176239014 Z" stroke="none"/>
      <path d="M 14.37899494171143 1.606602668762207 L 4.844563484191895 4.844563484191895 L 1.606602668762207 14.37899494171143 L 11.07048988342285 11.07048988342285 L 14.37899494171143 1.606602668762207 M 16 0 L 11.85543060302734 11.85543060302734 L 0 16 L 4.05620002746582 4.05620002746582 L 16 0 Z" stroke="none" fill="#bcbcbc"/>
    </g>
    <g id="Union_32" data-name="Union 32" transform="translate(6785 6931)" fill="#55ba63">
      <path d="M 10.49980068206787 16.50010108947754 L 6.500300407409668 16.50010108947754 L 6.500300407409668 10.99980068206787 L 6.500300407409668 10.49980068206787 L 6.000300407409668 10.49980068206787 L 0.500000536441803 10.49980068206787 L 0.500000536441803 6.500300407409668 L 6.000300407409668 6.500300407409668 L 6.500300407409668 6.500300407409668 L 6.500300407409668 6.000300407409668 L 6.500300407409668 0.500000536441803 L 10.49980068206787 0.500000536441803 L 10.49980068206787 6.000300407409668 L 10.49980068206787 6.500300407409668 L 10.99980068206787 6.500300407409668 L 16.50010108947754 6.500300407409668 L 16.50010108947754 10.49980068206787 L 10.99980068206787 10.49980068206787 L 10.49980068206787 10.49980068206787 L 10.49980068206787 10.99980068206787 L 10.49980068206787 16.50010108947754 Z" stroke="none"/>
      <path d="M 9.999800682067871 16.00010108947754 L 9.999800682067871 10.99980068206787 L 9.999800682067871 9.999800682067871 L 10.99980068206787 9.999800682067871 L 16.00010108947754 9.999800682067871 L 16.00010108947754 7.000300407409668 L 10.99980068206787 7.000300407409668 L 9.999800682067871 7.000300407409668 L 9.999800682067871 6.000300407409668 L 9.999800682067871 1.000000596046448 L 7.000300407409668 1.000000596046448 L 7.000300407409668 6.000300407409668 L 7.000300407409668 7.000300407409668 L 6.000300407409668 7.000300407409668 L 1.000000596046448 7.000300407409668 L 1.000000596046448 9.999800682067871 L 6.000300407409668 9.999800682067871 L 7.000300407409668 9.999800682067871 L 7.000300407409668 10.99980068206787 L 7.000300407409668 16.00010108947754 L 9.999800682067871 16.00010108947754 M 10.99980068206787 17.00010108947754 L 6.000300407409668 17.00010108947754 L 6.000300407409668 10.99980068206787 L 5.447387820822769e-07 10.99980068206787 L 5.447387820822769e-07 6.000300407409668 L 6.000300407409668 6.000300407409668 L 6.000300407409668 5.447387820822769e-07 L 10.99980068206787 5.447387820822769e-07 L 10.99980068206787 6.000300407409668 L 17.00010108947754 6.000300407409668 L 17.00010108947754 10.99980068206787 L 10.99980068206787 10.99980068206787 L 10.99980068206787 17.00010108947754 Z" stroke="none" fill="#707070"/>
    </g>
  </g>
</svg>
