<svg xmlns="http://www.w3.org/2000/svg" width="22.627" height="31.627" viewBox="0 0 22.627 31.627">
  <g id="Group_400" data-name="Group 400" transform="translate(-6756.687 -6874.687)">
    <g id="Path_182" data-name="Path 182" transform="translate(6768 6883.687) rotate(45)" fill="#4598bf">
      <path d="M 0.803292989730835 15.18950176239014 L 4.450376987457275 4.450376987457275 L 15.18950176239014 0.803292989730835 L 11.46296119689941 11.46296119689941 L 0.803292989730835 15.18950176239014 Z" stroke="none"/>
      <path d="M 14.37899494171143 1.606602668762207 L 4.844563484191895 4.844563484191895 L 1.606602668762207 14.37899494171143 L 11.07048988342285 11.07048988342285 L 14.37899494171143 1.606602668762207 M 16 0 L 11.85543060302734 11.85543060302734 L 0 16 L 4.05620002746582 4.05620002746582 L 16 0 Z" stroke="none" fill="#707070"/>
    </g>
    <g id="Path_183" data-name="Path 183" transform="translate(6768 6880.687) rotate(45)" fill="rgba(85,186,99,0)">
      <path d="M 0.803292989730835 15.18950176239014 L 4.450376987457275 4.450376987457275 L 15.18950176239014 0.803292989730835 L 11.46296119689941 11.46296119689941 L 0.803292989730835 15.18950176239014 Z" stroke="none"/>
      <path d="M 14.37899494171143 1.606602668762207 L 4.844563484191895 4.844563484191895 L 1.606602668762207 14.37899494171143 L 11.07048988342285 11.07048988342285 L 14.37899494171143 1.606602668762207 M 16 0 L 11.85543060302734 11.85543060302734 L 0 16 L 4.05620002746582 4.05620002746582 L 16 0 Z" stroke="none" fill="#ababab"/>
    </g>
    <g id="Path_184" data-name="Path 184" transform="translate(6768 6877.687) rotate(45)" fill="rgba(85,186,99,0)">
      <path d="M 0.803292989730835 15.18950176239014 L 4.450376987457275 4.450376987457275 L 15.18950176239014 0.803292989730835 L 11.46296119689941 11.46296119689941 L 0.803292989730835 15.18950176239014 Z" stroke="none"/>
      <path d="M 14.37899494171143 1.606602668762207 L 4.844563484191895 4.844563484191895 L 1.606602668762207 14.37899494171143 L 11.07048988342285 11.07048988342285 L 14.37899494171143 1.606602668762207 M 16 0 L 11.85543060302734 11.85543060302734 L 0 16 L 4.05620002746582 4.05620002746582 L 16 0 Z" stroke="none" fill="#ababab"/>
    </g>
    <g id="Path_185" data-name="Path 185" transform="translate(6768 6874.687) rotate(45)" fill="rgba(85,186,99,0)">
      <path d="M 0.803292989730835 15.18950176239014 L 4.450376987457275 4.450376987457275 L 15.18950176239014 0.803292989730835 L 11.46296119689941 11.46296119689941 L 0.803292989730835 15.18950176239014 Z" stroke="none"/>
      <path d="M 14.37899494171143 1.606602668762207 L 4.844563484191895 4.844563484191895 L 1.606602668762207 14.37899494171143 L 11.07048988342285 11.07048988342285 L 14.37899494171143 1.606602668762207 M 16 0 L 11.85543060302734 11.85543060302734 L 0 16 L 4.05620002746582 4.05620002746582 L 16 0 Z" stroke="none" fill="#ababab"/>
    </g>
  </g>
</svg>
