<?xml version="1.0" encoding="UTF-8" standalone="no"?>
<svg
   xmlns:dc="http://purl.org/dc/elements/1.1/"
   xmlns:cc="http://creativecommons.org/ns#"
   xmlns:rdf="http://www.w3.org/1999/02/22-rdf-syntax-ns#"
   xmlns:svg="http://www.w3.org/2000/svg"
   xmlns="http://www.w3.org/2000/svg"
   id="svg8"
   version="1.1"
   viewBox="0 0 4.5624701 4.7625001"
   height="0.1875in"
   width="0.1796248in">
  <defs
     id="defs2">
    <pattern
       id="EMFhbasepattern"
       patternUnits="userSpaceOnUse"
       width="6"
       height="6"
       x="0"
       y="0" />
    <pattern
       id="EMFhbasepattern-8"
       patternUnits="userSpaceOnUse"
       width="6"
       height="6"
       x="0"
       y="0" />
    <pattern
       id="EMFhbasepattern-1"
       patternUnits="userSpaceOnUse"
       width="6"
       height="6"
       x="0"
       y="0" />
    <pattern
       id="EMFhbasepattern-10"
       patternUnits="userSpaceOnUse"
       width="6"
       height="6"
       x="0"
       y="0" />
    <pattern
       id="EMFhbasepattern-82"
       patternUnits="userSpaceOnUse"
       width="6"
       height="6"
       x="0"
       y="0" />
    <pattern
       id="EMFhbasepattern-8-8"
       patternUnits="userSpaceOnUse"
       width="6"
       height="6"
       x="0"
       y="0" />
    <pattern
       id="EMFhbasepattern-1-7"
       patternUnits="userSpaceOnUse"
       width="6"
       height="6"
       x="0"
       y="0" />
    <pattern
       id="EMFhbasepattern-3"
       patternUnits="userSpaceOnUse"
       width="6"
       height="6"
       x="0"
       y="0" />
    <pattern
       id="EMFhbasepattern-8-9"
       patternUnits="userSpaceOnUse"
       width="6"
       height="6"
       x="0"
       y="0" />
    <pattern
       id="EMFhbasepattern-1-2"
       patternUnits="userSpaceOnUse"
       width="6"
       height="6"
       x="0"
       y="0" />
    <pattern
       id="EMFhbasepattern-2"
       patternUnits="userSpaceOnUse"
       width="6"
       height="6"
       x="0"
       y="0" />
    <pattern
       id="EMFhbasepattern-8-95"
       patternUnits="userSpaceOnUse"
       width="6"
       height="6"
       x="0"
       y="0" />
    <pattern
       id="EMFhbasepattern-1-8"
       patternUnits="userSpaceOnUse"
       width="6"
       height="6"
       x="0"
       y="0" />
    <pattern
       id="EMFhbasepattern-4"
       patternUnits="userSpaceOnUse"
       width="6"
       height="6"
       x="0"
       y="0" />
    <pattern
       id="EMFhbasepattern-8-2"
       patternUnits="userSpaceOnUse"
       width="6"
       height="6"
       x="0"
       y="0" />
    <pattern
       id="EMFhbasepattern-37"
       patternUnits="userSpaceOnUse"
       width="6"
       height="6"
       x="0"
       y="0" />
    <pattern
       id="EMFhbasepattern-8-4"
       patternUnits="userSpaceOnUse"
       width="6"
       height="6"
       x="0"
       y="0" />
    <pattern
       id="EMFhbasepattern-6"
       patternUnits="userSpaceOnUse"
       width="6"
       height="6"
       x="0"
       y="0" />
    <pattern
       id="EMFhbasepattern-8-6"
       patternUnits="userSpaceOnUse"
       width="6"
       height="6"
       x="0"
       y="0" />
    <pattern
       id="EMFhbasepattern-1-1"
       patternUnits="userSpaceOnUse"
       width="6"
       height="6"
       x="0"
       y="0" />
    <pattern
       id="EMFhbasepattern-66"
       patternUnits="userSpaceOnUse"
       width="6"
       height="6"
       x="0"
       y="0" />
    <pattern
       id="EMFhbasepattern-8-0"
       patternUnits="userSpaceOnUse"
       width="6"
       height="6"
       x="0"
       y="0" />
    <pattern
       id="EMFhbasepattern-1-76"
       patternUnits="userSpaceOnUse"
       width="6"
       height="6"
       x="0"
       y="0" />
    <pattern
       id="EMFhbasepattern-9"
       patternUnits="userSpaceOnUse"
       width="6"
       height="6"
       x="0"
       y="0" />
    <pattern
       id="EMFhbasepattern-8-5"
       patternUnits="userSpaceOnUse"
       width="6"
       height="6"
       x="0"
       y="0" />
    <pattern
       id="EMFhbasepattern-1-18"
       patternUnits="userSpaceOnUse"
       width="6"
       height="6"
       x="0"
       y="0" />
    <pattern
       id="EMFhbasepattern-42"
       patternUnits="userSpaceOnUse"
       width="6"
       height="6"
       x="0"
       y="0" />
    <pattern
       id="EMFhbasepattern-0"
       patternUnits="userSpaceOnUse"
       width="6"
       height="6"
       x="0"
       y="0" />
    <pattern
       id="EMFhbasepattern-93"
       patternUnits="userSpaceOnUse"
       width="6"
       height="6"
       x="0"
       y="0" />
    <pattern
       id="EMFhbasepattern-8-00"
       patternUnits="userSpaceOnUse"
       width="6"
       height="6"
       x="0"
       y="0" />
    <pattern
       id="EMFhbasepattern-1-25"
       patternUnits="userSpaceOnUse"
       width="6"
       height="6"
       x="0"
       y="0" />
    <pattern
       id="EMFhbasepattern-11"
       patternUnits="userSpaceOnUse"
       width="6"
       height="6"
       x="0"
       y="0" />
    <pattern
       id="EMFhbasepattern-8-61"
       patternUnits="userSpaceOnUse"
       width="6"
       height="6"
       x="0"
       y="0" />
    <pattern
       id="EMFhbasepattern-1-20"
       patternUnits="userSpaceOnUse"
       width="6"
       height="6"
       x="0"
       y="0" />
    <pattern
       id="EMFhbasepattern-7"
       patternUnits="userSpaceOnUse"
       width="6"
       height="6"
       x="0"
       y="0" />
    <pattern
       id="EMFhbasepattern-5"
       patternUnits="userSpaceOnUse"
       width="6"
       height="6"
       x="0"
       y="0" />
    <pattern
       id="EMFhbasepattern-8-1"
       patternUnits="userSpaceOnUse"
       width="6"
       height="6"
       x="0"
       y="0" />
    <pattern
       id="EMFhbasepattern-28"
       patternUnits="userSpaceOnUse"
       width="6"
       height="6"
       x="0"
       y="0" />
    <pattern
       id="EMFhbasepattern-8-80"
       patternUnits="userSpaceOnUse"
       width="6"
       height="6"
       x="0"
       y="0" />
    <pattern
       id="EMFhbasepattern-1-185"
       patternUnits="userSpaceOnUse"
       width="6"
       height="6"
       x="0"
       y="0" />
    <pattern
       id="EMFhbasepattern-90"
       patternUnits="userSpaceOnUse"
       width="6"
       height="6"
       x="0"
       y="0" />
    <pattern
       id="EMFhbasepattern-8-06"
       patternUnits="userSpaceOnUse"
       width="6"
       height="6"
       x="0"
       y="0" />
    <pattern
       id="EMFhbasepattern-1-79"
       patternUnits="userSpaceOnUse"
       width="6"
       height="6"
       x="0"
       y="0" />
    <pattern
       id="EMFhbasepattern-01"
       patternUnits="userSpaceOnUse"
       width="6"
       height="6"
       x="0"
       y="0" />
    <pattern
       id="EMFhbasepattern-8-3"
       patternUnits="userSpaceOnUse"
       width="6"
       height="6"
       x="0"
       y="0" />
    <pattern
       id="EMFhbasepattern-1-6"
       patternUnits="userSpaceOnUse"
       width="6"
       height="6"
       x="0"
       y="0" />
    <pattern
       id="EMFhbasepattern-41"
       patternUnits="userSpaceOnUse"
       width="6"
       height="6"
       x="0"
       y="0" />
    <pattern
       id="EMFhbasepattern-8-55"
       patternUnits="userSpaceOnUse"
       width="6"
       height="6"
       x="0"
       y="0" />
    <pattern
       id="EMFhbasepattern-1-72"
       patternUnits="userSpaceOnUse"
       width="6"
       height="6"
       x="0"
       y="0" />
    <pattern
       id="EMFhbasepattern-50"
       patternUnits="userSpaceOnUse"
       width="6"
       height="6"
       x="0"
       y="0" />
    <pattern
       id="EMFhbasepattern-660"
       patternUnits="userSpaceOnUse"
       width="6"
       height="6"
       x="0"
       y="0" />
    <pattern
       id="EMFhbasepattern-99"
       patternUnits="userSpaceOnUse"
       width="6"
       height="6"
       x="0"
       y="0" />
    <pattern
       id="EMFhbasepattern-86"
       patternUnits="userSpaceOnUse"
       width="6"
       height="6"
       x="0"
       y="0" />
    <pattern
       id="EMFhbasepattern-8-40"
       patternUnits="userSpaceOnUse"
       width="6"
       height="6"
       x="0"
       y="0" />
    <pattern
       id="EMFhbasepattern-83"
       patternUnits="userSpaceOnUse"
       width="6"
       height="6"
       x="0"
       y="0" />
    <pattern
       id="EMFhbasepattern-8-92"
       patternUnits="userSpaceOnUse"
       width="6"
       height="6"
       x="0"
       y="0" />
    <pattern
       id="EMFhbasepattern-1-11"
       patternUnits="userSpaceOnUse"
       width="6"
       height="6"
       x="0"
       y="0" />
    <pattern
       id="EMFhbasepattern-74"
       patternUnits="userSpaceOnUse"
       width="6"
       height="6"
       x="0"
       y="0" />
    <pattern
       id="EMFhbasepattern-8-38"
       patternUnits="userSpaceOnUse"
       width="6"
       height="6"
       x="0"
       y="0" />
    <pattern
       id="EMFhbasepattern-1-9"
       patternUnits="userSpaceOnUse"
       width="6"
       height="6"
       x="0"
       y="0" />
    <pattern
       id="EMFhbasepattern-81"
       patternUnits="userSpaceOnUse"
       width="6"
       height="6"
       x="0"
       y="0" />
    <pattern
       id="EMFhbasepattern-816"
       patternUnits="userSpaceOnUse"
       width="6"
       height="6"
       x="0"
       y="0" />
    <pattern
       id="EMFhbasepattern-53"
       patternUnits="userSpaceOnUse"
       width="6"
       height="6"
       x="0"
       y="0" />
    <pattern
       id="EMFhbasepattern-8-50"
       patternUnits="userSpaceOnUse"
       width="6"
       height="6"
       x="0"
       y="0" />
    <pattern
       id="EMFhbasepattern-43"
       patternUnits="userSpaceOnUse"
       width="6"
       height="6"
       x="0"
       y="0" />
    <pattern
       id="EMFhbasepattern-938"
       patternUnits="userSpaceOnUse"
       width="6"
       height="6"
       x="0"
       y="0" />
    <pattern
       id="EMFhbasepattern-8-51"
       patternUnits="userSpaceOnUse"
       width="6"
       height="6"
       x="0"
       y="0" />
    <pattern
       id="EMFhbasepattern-75"
       patternUnits="userSpaceOnUse"
       width="6"
       height="6"
       x="0"
       y="0" />
    <pattern
       id="EMFhbasepattern-8-28"
       patternUnits="userSpaceOnUse"
       width="6"
       height="6"
       x="0"
       y="0" />
    <pattern
       id="EMFhbasepattern-34"
       patternUnits="userSpaceOnUse"
       width="6"
       height="6"
       x="0"
       y="0" />
    <pattern
       id="EMFhbasepattern-97"
       patternUnits="userSpaceOnUse"
       width="6"
       height="6"
       x="0"
       y="0" />
    <pattern
       id="EMFhbasepattern-62"
       patternUnits="userSpaceOnUse"
       width="6"
       height="6"
       x="0"
       y="0" />
    <pattern
       id="EMFhbasepattern-8-7"
       patternUnits="userSpaceOnUse"
       width="6"
       height="6"
       x="0"
       y="0" />
    <pattern
       id="EMFhbasepattern-16"
       patternUnits="userSpaceOnUse"
       width="6"
       height="6"
       x="0"
       y="0" />
    <pattern
       id="EMFhbasepattern-8-68"
       patternUnits="userSpaceOnUse"
       width="6"
       height="6"
       x="0"
       y="0" />
    <pattern
       id="EMFhbasepattern-1-3"
       patternUnits="userSpaceOnUse"
       width="6"
       height="6"
       x="0"
       y="0" />
    <pattern
       id="EMFhbasepattern-52"
       patternUnits="userSpaceOnUse"
       width="6"
       height="6"
       x="0"
       y="0" />
    <pattern
       id="EMFhbasepattern-8-88"
       patternUnits="userSpaceOnUse"
       width="6"
       height="6"
       x="0"
       y="0" />
    <pattern
       id="EMFhbasepattern-1-28"
       patternUnits="userSpaceOnUse"
       width="6"
       height="6"
       x="0"
       y="0" />
    <pattern
       id="EMFhbasepattern-010"
       patternUnits="userSpaceOnUse"
       width="6"
       height="6"
       x="0"
       y="0" />
    <pattern
       id="EMFhbasepattern-8-15"
       patternUnits="userSpaceOnUse"
       width="6"
       height="6"
       x="0"
       y="0" />
    <pattern
       id="EMFhbasepattern-98"
       patternUnits="userSpaceOnUse"
       width="6"
       height="6"
       x="0"
       y="0" />
    <pattern
       id="EMFhbasepattern-8-32"
       patternUnits="userSpaceOnUse"
       width="6"
       height="6"
       x="0"
       y="0" />
    <pattern
       id="EMFhbasepattern-1-68"
       patternUnits="userSpaceOnUse"
       width="6"
       height="6"
       x="0"
       y="0" />
    <pattern
       id="EMFhbasepattern-27"
       patternUnits="userSpaceOnUse"
       width="6"
       height="6"
       x="0"
       y="0" />
    <pattern
       id="EMFhbasepattern-8-65"
       patternUnits="userSpaceOnUse"
       width="6"
       height="6"
       x="0"
       y="0" />
    <pattern
       id="EMFhbasepattern-1-1851"
       patternUnits="userSpaceOnUse"
       width="6"
       height="6"
       x="0"
       y="0" />
    <pattern
       id="EMFhbasepattern-506"
       patternUnits="userSpaceOnUse"
       width="6"
       height="6"
       x="0"
       y="0" />
    <pattern
       id="EMFhbasepattern-8-22"
       patternUnits="userSpaceOnUse"
       width="6"
       height="6"
       x="0"
       y="0" />
    <pattern
       id="EMFhbasepattern-61"
       patternUnits="userSpaceOnUse"
       width="6"
       height="6"
       x="0"
       y="0" />
    <pattern
       id="EMFhbasepattern-60"
       patternUnits="userSpaceOnUse"
       width="6"
       height="6"
       x="0"
       y="0" />
    <pattern
       id="EMFhbasepattern-8-56"
       patternUnits="userSpaceOnUse"
       width="6"
       height="6"
       x="0"
       y="0" />
    <pattern
       id="EMFhbasepattern-1-5"
       patternUnits="userSpaceOnUse"
       width="6"
       height="6"
       x="0"
       y="0" />
    <pattern
       id="EMFhbasepattern-57"
       patternUnits="userSpaceOnUse"
       width="6"
       height="6"
       x="0"
       y="0" />
    <pattern
       id="EMFhbasepattern-8-49"
       patternUnits="userSpaceOnUse"
       width="6"
       height="6"
       x="0"
       y="0" />
    <pattern
       id="EMFhbasepattern-1-67"
       patternUnits="userSpaceOnUse"
       width="6"
       height="6"
       x="0"
       y="0" />
    <pattern
       id="EMFhbasepattern-17"
       patternUnits="userSpaceOnUse"
       width="6"
       height="6"
       x="0"
       y="0" />
    <pattern
       id="EMFhbasepattern-8-515"
       patternUnits="userSpaceOnUse"
       width="6"
       height="6"
       x="0"
       y="0" />
    <pattern
       id="EMFhbasepattern-1-0"
       patternUnits="userSpaceOnUse"
       width="6"
       height="6"
       x="0"
       y="0" />
    <pattern
       id="EMFhbasepattern-96"
       patternUnits="userSpaceOnUse"
       width="6"
       height="6"
       x="0"
       y="0" />
    <pattern
       id="EMFhbasepattern-8-86"
       patternUnits="userSpaceOnUse"
       width="6"
       height="6"
       x="0"
       y="0" />
    <pattern
       id="EMFhbasepattern-1-13"
       patternUnits="userSpaceOnUse"
       width="6"
       height="6"
       x="0"
       y="0" />
    <pattern
       id="EMFhbasepattern-833"
       patternUnits="userSpaceOnUse"
       width="6"
       height="6"
       x="0"
       y="0" />
    <pattern
       id="EMFhbasepattern-8-17"
       patternUnits="userSpaceOnUse"
       width="6"
       height="6"
       x="0"
       y="0" />
    <pattern
       id="EMFhbasepattern-1-82"
       patternUnits="userSpaceOnUse"
       width="6"
       height="6"
       x="0"
       y="0" />
    <pattern
       id="EMFhbasepattern-06"
       patternUnits="userSpaceOnUse"
       width="6"
       height="6"
       x="0"
       y="0" />
    <pattern
       id="EMFhbasepattern-8-31"
       patternUnits="userSpaceOnUse"
       width="6"
       height="6"
       x="0"
       y="0" />
    <pattern
       id="EMFhbasepattern-14"
       patternUnits="userSpaceOnUse"
       width="6"
       height="6"
       x="0"
       y="0" />
    <pattern
       id="EMFhbasepattern-40"
       patternUnits="userSpaceOnUse"
       width="6"
       height="6"
       x="0"
       y="0" />
    <pattern
       id="EMFhbasepattern-8-63"
       patternUnits="userSpaceOnUse"
       width="6"
       height="6"
       x="0"
       y="0" />
    <pattern
       id="EMFhbasepattern-1-4"
       patternUnits="userSpaceOnUse"
       width="6"
       height="6"
       x="0"
       y="0" />
    <pattern
       id="EMFhbasepattern-33"
       patternUnits="userSpaceOnUse"
       width="6"
       height="6"
       x="0"
       y="0" />
    <pattern
       id="EMFhbasepattern-8-613"
       patternUnits="userSpaceOnUse"
       width="6"
       height="6"
       x="0"
       y="0" />
    <pattern
       id="EMFhbasepattern-906"
       patternUnits="userSpaceOnUse"
       width="6"
       height="6"
       x="0"
       y="0" />
    <pattern
       id="EMFhbasepattern-67"
       patternUnits="userSpaceOnUse"
       width="6"
       height="6"
       x="0"
       y="0" />
    <pattern
       id="EMFhbasepattern-8-889"
       patternUnits="userSpaceOnUse"
       width="6"
       height="6"
       x="0"
       y="0" />
    <pattern
       id="EMFhbasepattern-1-14"
       patternUnits="userSpaceOnUse"
       width="6"
       height="6"
       x="0"
       y="0" />
    <pattern
       id="EMFhbasepattern-677"
       patternUnits="userSpaceOnUse"
       width="6"
       height="6"
       x="0"
       y="0" />
    <pattern
       id="EMFhbasepattern-8-14"
       patternUnits="userSpaceOnUse"
       width="6"
       height="6"
       x="0"
       y="0" />
    <pattern
       id="EMFhbasepattern-1-17"
       patternUnits="userSpaceOnUse"
       width="6"
       height="6"
       x="0"
       y="0" />
    <pattern
       id="EMFhbasepattern-103"
       patternUnits="userSpaceOnUse"
       width="6"
       height="6"
       x="0"
       y="0" />
    <pattern
       id="EMFhbasepattern-8-33"
       patternUnits="userSpaceOnUse"
       width="6"
       height="6"
       x="0"
       y="0" />
    <pattern
       id="EMFhbasepattern-84"
       patternUnits="userSpaceOnUse"
       width="6"
       height="6"
       x="0"
       y="0" />
    <pattern
       id="EMFhbasepattern-8-43"
       patternUnits="userSpaceOnUse"
       width="6"
       height="6"
       x="0"
       y="0" />
    <pattern
       id="EMFhbasepattern-1-81"
       patternUnits="userSpaceOnUse"
       width="6"
       height="6"
       x="0"
       y="0" />
    <pattern
       id="EMFhbasepattern-65"
       patternUnits="userSpaceOnUse"
       width="6"
       height="6"
       x="0"
       y="0" />
    <pattern
       id="EMFhbasepattern-92"
       patternUnits="userSpaceOnUse"
       width="6"
       height="6"
       x="0"
       y="0" />
    <pattern
       id="EMFhbasepattern-25"
       patternUnits="userSpaceOnUse"
       width="6"
       height="6"
       x="0"
       y="0" />
    <pattern
       id="EMFhbasepattern-8-96"
       patternUnits="userSpaceOnUse"
       width="6"
       height="6"
       x="0"
       y="0" />
    <pattern
       id="EMFhbasepattern-38"
       patternUnits="userSpaceOnUse"
       width="6"
       height="6"
       x="0"
       y="0" />
    <pattern
       id="EMFhbasepattern-8-637"
       patternUnits="userSpaceOnUse"
       width="6"
       height="6"
       x="0"
       y="0" />
    <pattern
       id="EMFhbasepattern-1-86"
       patternUnits="userSpaceOnUse"
       width="6"
       height="6"
       x="0"
       y="0" />
    <pattern
       id="EMFhbasepattern-529"
       patternUnits="userSpaceOnUse"
       width="6"
       height="6"
       x="0"
       y="0" />
    <pattern
       id="EMFhbasepattern-8-77"
       patternUnits="userSpaceOnUse"
       width="6"
       height="6"
       x="0"
       y="0" />
    <pattern
       id="EMFhbasepattern-1-02"
       patternUnits="userSpaceOnUse"
       width="6"
       height="6"
       x="0"
       y="0" />
    <pattern
       id="EMFhbasepattern-55"
       patternUnits="userSpaceOnUse"
       width="6"
       height="6"
       x="0"
       y="0" />
    <pattern
       id="EMFhbasepattern-8-16"
       patternUnits="userSpaceOnUse"
       width="6"
       height="6"
       x="0"
       y="0" />
    <pattern
       id="EMFhbasepattern-1-94"
       patternUnits="userSpaceOnUse"
       width="6"
       height="6"
       x="0"
       y="0" />
    <pattern
       id="EMFhbasepattern-373"
       patternUnits="userSpaceOnUse"
       width="6"
       height="6"
       x="0"
       y="0" />
    <pattern
       id="EMFhbasepattern-8-19"
       patternUnits="userSpaceOnUse"
       width="6"
       height="6"
       x="0"
       y="0" />
    <pattern
       id="EMFhbasepattern-95"
       patternUnits="userSpaceOnUse"
       width="6"
       height="6"
       x="0"
       y="0" />
    <pattern
       id="EMFhbasepattern-8-54"
       patternUnits="userSpaceOnUse"
       width="6"
       height="6"
       x="0"
       y="0" />
    <pattern
       id="EMFhbasepattern-1-06"
       patternUnits="userSpaceOnUse"
       width="6"
       height="6"
       x="0"
       y="0" />
    <pattern
       id="EMFhbasepattern-64"
       patternUnits="userSpaceOnUse"
       width="6"
       height="6"
       x="0"
       y="0" />
    <pattern
       id="EMFhbasepattern-8-66"
       patternUnits="userSpaceOnUse"
       width="6"
       height="6"
       x="0"
       y="0" />
    <pattern
       id="EMFhbasepattern-1-170"
       patternUnits="userSpaceOnUse"
       width="6"
       height="6"
       x="0"
       y="0" />
    <pattern
       id="EMFhbasepattern-102"
       patternUnits="userSpaceOnUse"
       width="6"
       height="6"
       x="0"
       y="0" />
    <pattern
       id="EMFhbasepattern-8-21"
       patternUnits="userSpaceOnUse"
       width="6"
       height="6"
       x="0"
       y="0" />
    <pattern
       id="EMFhbasepattern-76"
       patternUnits="userSpaceOnUse"
       width="6"
       height="6"
       x="0"
       y="0" />
    <pattern
       id="EMFhbasepattern-8-08"
       patternUnits="userSpaceOnUse"
       width="6"
       height="6"
       x="0"
       y="0" />
    <pattern
       id="EMFhbasepattern-1-64"
       patternUnits="userSpaceOnUse"
       width="6"
       height="6"
       x="0"
       y="0" />
    <pattern
       id="EMFhbasepattern-627"
       patternUnits="userSpaceOnUse"
       width="6"
       height="6"
       x="0"
       y="0" />
    <pattern
       id="EMFhbasepattern-8-150"
       patternUnits="userSpaceOnUse"
       width="6"
       height="6"
       x="0"
       y="0" />
    <pattern
       id="EMFhbasepattern-140"
       patternUnits="userSpaceOnUse"
       width="6"
       height="6"
       x="0"
       y="0" />
    <pattern
       id="EMFhbasepattern-8-90"
       patternUnits="userSpaceOnUse"
       width="6"
       height="6"
       x="0"
       y="0" />
    <pattern
       id="EMFhbasepattern-1-90"
       patternUnits="userSpaceOnUse"
       width="6"
       height="6"
       x="0"
       y="0" />
    <pattern
       id="EMFhbasepattern-87"
       patternUnits="userSpaceOnUse"
       width="6"
       height="6"
       x="0"
       y="0" />
    <pattern
       id="EMFhbasepattern-8-97"
       patternUnits="userSpaceOnUse"
       width="6"
       height="6"
       x="0"
       y="0" />
    <pattern
       id="EMFhbasepattern-1-51"
       patternUnits="userSpaceOnUse"
       width="6"
       height="6"
       x="0"
       y="0" />
    <pattern
       id="EMFhbasepattern-45"
       patternUnits="userSpaceOnUse"
       width="6"
       height="6"
       x="0"
       y="0" />
    <pattern
       id="EMFhbasepattern-8-327"
       patternUnits="userSpaceOnUse"
       width="6"
       height="6"
       x="0"
       y="0" />
    <pattern
       id="EMFhbasepattern-1-795"
       patternUnits="userSpaceOnUse"
       width="6"
       height="6"
       x="0"
       y="0" />
    <pattern
       id="EMFhbasepattern-339"
       patternUnits="userSpaceOnUse"
       width="6"
       height="6"
       x="0"
       y="0" />
    <pattern
       id="EMFhbasepattern-254"
       patternUnits="userSpaceOnUse"
       width="6"
       height="6"
       x="0"
       y="0" />
    <pattern
       id="EMFhbasepattern-71"
       patternUnits="userSpaceOnUse"
       width="6"
       height="6"
       x="0"
       y="0" />
    <pattern
       id="EMFhbasepattern-8-70"
       patternUnits="userSpaceOnUse"
       width="6"
       height="6"
       x="0"
       y="0" />
    <pattern
       id="EMFhbasepattern-1-48"
       patternUnits="userSpaceOnUse"
       width="6"
       height="6"
       x="0"
       y="0" />
    <pattern
       id="EMFhbasepattern-44"
       patternUnits="userSpaceOnUse"
       width="6"
       height="6"
       x="0"
       y="0" />
    <pattern
       id="EMFhbasepattern-8-75"
       patternUnits="userSpaceOnUse"
       width="6"
       height="6"
       x="0"
       y="0" />
    <pattern
       id="EMFhbasepattern-1-77"
       patternUnits="userSpaceOnUse"
       width="6"
       height="6"
       x="0"
       y="0" />
    <pattern
       id="EMFhbasepattern-31"
       patternUnits="userSpaceOnUse"
       width="6"
       height="6"
       x="0"
       y="0" />
    <pattern
       id="EMFhbasepattern-8-04"
       patternUnits="userSpaceOnUse"
       width="6"
       height="6"
       x="0"
       y="0" />
    <pattern
       id="EMFhbasepattern-1-792"
       patternUnits="userSpaceOnUse"
       width="6"
       height="6"
       x="0"
       y="0" />
    <pattern
       id="EMFhbasepattern-751"
       patternUnits="userSpaceOnUse"
       width="6"
       height="6"
       x="0"
       y="0" />
    <pattern
       id="EMFhbasepattern-8-003"
       patternUnits="userSpaceOnUse"
       width="6"
       height="6"
       x="0"
       y="0" />
    <pattern
       id="EMFhbasepattern-1-45"
       patternUnits="userSpaceOnUse"
       width="6"
       height="6"
       x="0"
       y="0" />
    <pattern
       id="EMFhbasepattern-05"
       patternUnits="userSpaceOnUse"
       width="6"
       height="6"
       x="0"
       y="0" />
    <pattern
       id="EMFhbasepattern-8-061"
       patternUnits="userSpaceOnUse"
       width="6"
       height="6"
       x="0"
       y="0" />
    <pattern
       id="EMFhbasepattern-36"
       patternUnits="userSpaceOnUse"
       width="6"
       height="6"
       x="0"
       y="0" />
    <pattern
       id="EMFhbasepattern-757"
       patternUnits="userSpaceOnUse"
       width="6"
       height="6"
       x="0"
       y="0" />
  </defs>
  <metadata
     id="metadata5">
    <rdf:RDF>
      <cc:Work
         rdf:about="">
        <dc:format>image/svg+xml</dc:format>
        <dc:type
           rdf:resource="http://purl.org/dc/dcmitype/StillImage" />
        <dc:title></dc:title>
      </cc:Work>
    </rdf:RDF>
  </metadata>
  <g
     transform="translate(59.444668,-273.6647)"
     id="layer1">
    <g
       transform="matrix(0.26458333,0,0,0.26458333,-68.969668,68.252204)"
       style="opacity:0.3;fill:none;stroke:#ffffff;stroke-width:2;stroke-linejoin:round;stroke-miterlimit:4;stroke-dasharray:none;stroke-opacity:1"
       id="g7122">
      <path
         style="fill:none;fill-opacity:1;stroke:#ffffff;stroke-width:2;stroke-linejoin:round;stroke-miterlimit:4;stroke-dasharray:none;stroke-opacity:1"
         id="path7124"
         d="m 45.48896,786.20988 c 1.01808,0 1.84208,-0.824 1.84208,-1.84208 0,-1.01808 -0.82384,-1.84192 -1.84208,-1.84192 -1.01824,0 -1.84384,0.824 -1.84384,1.84208 -1.6e-4,1.01808 0.8256,1.84192 1.84384,1.84192 z" />
      <path
         style="fill:none;fill-opacity:1;stroke:#ffffff;stroke-width:2;stroke-linejoin:round;stroke-miterlimit:4;stroke-dasharray:none;stroke-opacity:1"
         id="path7126"
         d="m 45,791.3622 c 1,0 1,0 1,-1 v -1 c 0,-1 0,-1 -1,-1 -1,0 -1,0 -0.990105,0.75592 0.886443,0.19056 0.876419,1.36838 -0.01634,1.54773 C 44,791.3622 44,791.3622 45,791.3622 Z m -2.01968,-4.56288 C 43.17808,786.60908 43.70688,786.3622 44,786.3622 h 3 l 4,-3 c 0.78208,-0.78736 1.78368,0.21264 1,1 l -4,3 0.04496,6 H 43 v -2.66608 h -1.93664 c -0.45232,0 -0.82032,-0.36624 -0.82032,-0.82032 0,-0.19408 0.06592,-0.36992 0.1776,-0.5128 z" />
      <path
         id="path7128"
         d="M 18.75,6.25 12.5,0 H 6.25 0 v 6.25 6.25 l 6.25,6.25 z"
         style="fill:none;fill-opacity:1;stroke:#ffffff;stroke-width:12.5;stroke-linejoin:round;stroke-miterlimit:4;stroke-dasharray:none;stroke-opacity:1"
         transform="matrix(0.16,0,0,0.16,37,777.3622)" />
      <path
         style="fill:none;fill-opacity:1;stroke:#ffffff;stroke-width:2;stroke-linejoin:round;stroke-miterlimit:4;stroke-dasharray:none;stroke-opacity:1"
         id="path7130"
         d="m 40.49184,786.6494 c -0.04224,0.27088 0.14464,0.51632 0.41008,0.55296 0.26736,0.0438 0.52,-0.15008 0.55296,-0.41008 0.04032,-0.27088 -0.14288,-0.51648 -0.412,-0.55312 -0.26544,-0.0402 -0.51616,0.14304 -0.55104,0.41024 z" />
      <path
         style="fill:none;fill-opacity:1;stroke:#ffffff;stroke-width:2;stroke-linejoin:round;stroke-miterlimit:4;stroke-dasharray:none;stroke-opacity:1"
         id="path7132"
         d="m 40.91472,785.53612 c 0.03664,-0.25632 -0.13728,-0.49072 -0.39184,-0.52736 -0.25456,-0.0366 -0.48896,0.1392 -0.5256,0.39184 -0.03664,0.26 0.1392,0.48688 0.39184,0.52384 0.2528,0.0403 0.49088,-0.13904 0.5256,-0.38832 z" />
      <path
         style="fill:none;fill-opacity:1;stroke:#ffffff;stroke-width:2;stroke-linejoin:round;stroke-miterlimit:4;stroke-dasharray:none;stroke-opacity:1"
         id="path7134"
         d="m 40.37456,784.27996 c 0.03296,-0.24176 -0.12992,-0.46512 -0.37168,-0.50176 -0.24176,-0.033 -0.46336,0.13184 -0.49808,0.37344 -0.03472,0.24544 0.12992,0.46144 0.36992,0.49808 0.24176,0.0405 0.46688,-0.13536 0.49984,-0.36976 z" />
      <path
         style="fill:none;fill-opacity:1;stroke:#ffffff;stroke-width:2;stroke-linejoin:round;stroke-miterlimit:4;stroke-dasharray:none;stroke-opacity:1"
         id="path7136"
         d="m 39.83456,783.02396 c 0.03296,-0.22704 -0.12272,-0.43952 -0.35168,-0.47248 -0.23072,-0.033 -0.43952,0.12448 -0.47248,0.35152 -0.03296,0.23072 0.12448,0.43584 0.35152,0.47248 0.22704,0.0366 0.44144,-0.12816 0.47264,-0.35152 z" />
      <path
         style="fill:none;fill-opacity:1;stroke:#ffffff;stroke-width:2;stroke-linejoin:round;stroke-miterlimit:4;stroke-dasharray:none;stroke-opacity:1"
         id="path7138"
         d="m 39.29424,781.7678 c 0.0312,-0.216 -0.11712,-0.41744 -0.33136,-0.44672 -0.21792,-0.0293 -0.41376,0.11712 -0.44496,0.33328 -0.0312,0.21984 0.11536,0.41008 0.3296,0.44672 0.216,0.033 0.41744,-0.12096 0.44672,-0.33328 z" />
      <path
         style="fill:none;fill-opacity:1;stroke:#ffffff;stroke-width:2;stroke-linejoin:round;stroke-miterlimit:4;stroke-dasharray:none;stroke-opacity:1"
         id="path7140"
         d="m 38.223287,780.6051 c -0.03104,0.20512 0.10992,0.38448 0.31136,0.41744 0.20144,0.033 0.39008,-0.11344 0.41936,-0.3112 0.02928,-0.20144 -0.10992,-0.39184 -0.31136,-0.41744 -0.20704,-0.0293 -0.39184,0.10976 -0.41936,0.3112 z" />
      <path
         style="fill:none;fill-opacity:1;stroke:#ffffff;stroke-width:2;stroke-linejoin:round;stroke-miterlimit:4;stroke-dasharray:none;stroke-opacity:1"
         id="path7142"
         d="m 42.31008,784.87692 c 0.01296,-0.26368 0.24,-0.47248 0.50544,-0.45776 0.26736,0.0147 0.47056,0.23808 0.45776,0.50912 -0.0093,0.26736 -0.23808,0.4688 -0.50544,0.45408 -0.2656,-0.007 -0.47248,-0.2344 -0.45776,-0.50544 z" />
      <path
         style="fill:none;fill-opacity:1;stroke:#ffffff;stroke-width:2;stroke-linejoin:round;stroke-miterlimit:4;stroke-dasharray:none;stroke-opacity:1"
         id="path7144"
         d="m 42.00608,784.35324 c -0.25264,-0.0109 -0.4504,-0.22336 -0.43584,-0.48336 0.0128,-0.2528 0.22896,-0.44672 0.4816,-0.43584 0.25456,0.0146 0.44688,0.22704 0.43584,0.48336 -0.01104,0.25648 -0.22704,0.44688 -0.4816,0.43584 z" />
      <path
         style="fill:none;fill-opacity:1;stroke:#ffffff;stroke-width:2;stroke-linejoin:round;stroke-miterlimit:4;stroke-dasharray:none;stroke-opacity:1"
         id="path7146"
         d="m 41.24624,783.3206 c -0.23984,-0.011 -0.42672,-0.21248 -0.41376,-0.45408 0.01296,-0.2416 0.216,-0.42848 0.45776,-0.41376 0.23984,0.011 0.4248,0.21616 0.41392,0.45776 -0.0094,0.23792 -0.21616,0.42464 -0.45792,0.41008 z" />
      <path
         style="fill:none;fill-opacity:1;stroke:#ffffff;stroke-width:2;stroke-linejoin:round;stroke-miterlimit:4;stroke-dasharray:none;stroke-opacity:1"
         id="path7148"
         d="m 40.48448,782.29148 c -0.22704,-0.0109 -0.40464,-0.20144 -0.39184,-0.43216 0.0128,-0.22704 0.20512,-0.40288 0.43392,-0.39184 0.22704,0.011 0.40288,0.20512 0.39184,0.43216 -0.0091,0.22704 -0.20496,0.4064 -0.43392,0.39184 z" />
      <path
         style="fill:none;fill-opacity:1;stroke:#ffffff;stroke-width:2;stroke-linejoin:round;stroke-miterlimit:4;stroke-dasharray:none;stroke-opacity:1"
         id="path7150"
         d="m 39.72464,781.26236 c -0.21424,-0.0109 -0.38272,-0.19408 -0.36992,-0.41008 0.01104,-0.21248 0.19232,-0.37712 0.40832,-0.36992 0.21424,0.0109 0.3808,0.19408 0.36992,0.41008 -0.0093,0.21248 -0.19424,0.38096 -0.40832,0.36992 z" />
      <path
         style="fill:none;fill-opacity:1;stroke:#ffffff;stroke-width:2;stroke-linejoin:round;stroke-miterlimit:4;stroke-dasharray:none;stroke-opacity:1"
         id="path7152"
         d="m 38.814647,780.04846 c 0.01088,-0.20144 0.18128,-0.35888 0.38448,-0.34784 0.20144,0.007 0.35888,0.17952 0.34784,0.3808 -0.0091,0.20144 -0.1832,0.36256 -0.38448,0.34784 -0.20144,-0.0109 -0.35872,-0.17936 -0.34784,-0.3808 z" />
      <path
         style="fill:none;fill-opacity:1;stroke:#ffffff;stroke-width:2;stroke-linejoin:round;stroke-miterlimit:4;stroke-dasharray:none;stroke-opacity:1"
         id="path7154"
         d="m 43.63024,782.80412 c -0.26736,0.0147 -0.49984,-0.1904 -0.50912,-0.45776 -0.01472,-0.27104 0.196,-0.49808 0.46336,-0.50912 0.26192,-0.011 0.49072,0.1904 0.50176,0.46512 0.01648,0.26016 -0.18864,0.49072 -0.456,0.50176 z" />
      <path
         style="fill:none;fill-opacity:1;stroke:#ffffff;stroke-width:2;stroke-linejoin:round;stroke-miterlimit:4;stroke-dasharray:none;stroke-opacity:1"
         id="path7156"
         d="m 43.04992,781.54076 c 0.0128,0.24544 -0.1776,0.45776 -0.42848,0.4688 -0.25088,0.011 -0.46688,-0.17952 -0.47792,-0.42848 -0.01088,-0.2528 0.1832,-0.46144 0.43392,-0.47616 0.2472,-0.011 0.45952,0.17952 0.47248,0.43584 z" />
      <path
         style="fill:none;fill-opacity:1;stroke:#ffffff;stroke-width:2;stroke-linejoin:round;stroke-miterlimit:4;stroke-dasharray:none;stroke-opacity:1"
         id="path7158"
         d="m 42.01344,780.779 c 0.01104,0.23072 -0.16848,0.42848 -0.40288,0.43952 -0.2344,0.0109 -0.4376,-0.16848 -0.44672,-0.3992 -0.01104,-0.23808 0.17216,-0.43584 0.40656,-0.44672 0.23072,-0.011 0.43024,0.16832 0.44304,0.4064 z" />
      <path
         style="fill:none;fill-opacity:1;stroke:#ffffff;stroke-width:2;stroke-linejoin:round;stroke-miterlimit:4;stroke-dasharray:none;stroke-opacity:1"
         id="path7160"
         d="m 40.97696,780.01724 c 0.0093,0.216 -0.15744,0.40288 -0.37536,0.41008 -0.21792,0.0109 -0.40656,-0.15744 -0.41568,-0.3736 -0.0093,-0.21968 0.16112,-0.40288 0.37904,-0.41376 0.21424,-0.0109 0.40112,0.1576 0.412,0.37728 z" />
      <path
         style="fill:none;fill-opacity:1;stroke:#ffffff;stroke-width:2;stroke-linejoin:round;stroke-miterlimit:4;stroke-dasharray:none;stroke-opacity:1"
         id="path7162"
         d="m 39.407927,779.49182 c -0.01104,-0.20512 0.14832,-0.37712 0.34976,-0.38448 0.19968,-0.0109 0.3736,0.14656 0.38272,0.34784 0.0093,0.20144 -0.1464,0.3736 -0.34784,0.38096 -0.20144,0.0109 -0.37728,-0.14656 -0.38464,-0.34432 z" />
      <path
         style="fill:none;fill-opacity:1;stroke:#ffffff;stroke-width:2;stroke-linejoin:round;stroke-miterlimit:4;stroke-dasharray:none;stroke-opacity:1"
         id="path7164"
         d="m 40.314327,778.51406 c 0.19968,-0.0293 0.39008,0.11008 0.41936,0.31136 0.02944,0.20144 -0.10992,0.39184 -0.31312,0.41744 -0.20144,0.033 -0.39008,-0.10992 -0.4192,-0.31136 -0.02752,-0.20144 0.11328,-0.38816 0.31296,-0.41744 z" />
      <path
         style="fill:none;fill-opacity:1;stroke:#ffffff;stroke-width:2;stroke-linejoin:round;stroke-miterlimit:4;stroke-dasharray:none;stroke-opacity:1"
         id="path7166"
         d="m 41.85584,779.16396 c 0.0312,0.21232 -0.11712,0.41008 -0.3296,0.43952 -0.21248,0.033 -0.412,-0.11712 -0.44128,-0.32592 -0.02944,-0.21248 0.11904,-0.41376 0.3296,-0.44336 0.21072,-0.0291 0.41024,0.11744 0.44128,0.32976 z" />
      <path
         style="fill:none;fill-opacity:1;stroke:#ffffff;stroke-width:2;stroke-linejoin:round;stroke-miterlimit:4;stroke-dasharray:none;stroke-opacity:1"
         id="path7168"
         d="m 43.17792,779.69868 c 0.03296,0.22704 -0.12272,0.43216 -0.34608,0.46512 -0.22336,0.033 -0.43392,-0.12448 -0.46512,-0.34432 -0.03104,-0.22336 0.12448,-0.43216 0.34608,-0.46512 0.2216,-0.033 0.43216,0.12096 0.46512,0.34432 z" />
      <path
         style="fill:none;fill-opacity:1;stroke:#ffffff;stroke-width:2;stroke-linejoin:round;stroke-miterlimit:4;stroke-dasharray:none;stroke-opacity:1"
         id="path7170"
         d="m 44.49824,780.23692 c 0.03472,0.2344 -0.12816,0.4504 -0.36256,0.48704 -0.23264,0.033 -0.45408,-0.12816 -0.48528,-0.36256 -0.03296,-0.2344 0.12816,-0.45408 0.36064,-0.48704 0.2344,-0.0365 0.45424,0.12832 0.4872,0.36256 z" />
      <path
         style="fill:none;fill-opacity:1;stroke:#ffffff;stroke-width:2;stroke-linejoin:round;stroke-miterlimit:4;stroke-dasharray:none;stroke-opacity:1"
         id="path7172"
         d="m 45.82048,780.77532 c 0.03472,0.24544 -0.13568,0.47248 -0.37904,0.50912 -0.24352,0.0366 -0.4744,-0.13552 -0.5072,-0.37728 -0.03504,-0.24528 0.13344,-0.476 0.37696,-0.51264 0.24544,-0.033 0.47248,0.13536 0.50928,0.3808 z" />
      <path
         style="fill:none;fill-opacity:1;stroke:#ffffff;stroke-width:2;stroke-linejoin:round;stroke-miterlimit:4;stroke-dasharray:none;stroke-opacity:1"
         id="path7174"
         d="m 47.1424,781.31372 c 0.0384,0.25632 -0.14096,0.4944 -0.39568,0.53104 -0.2544,0.0366 -0.49616,-0.14288 -0.53088,-0.39552 -0.03664,-0.25632 0.13904,-0.49808 0.39376,-0.53472 0.25616,-0.0366 0.496,0.14272 0.5328,0.3992 z" />
      <path
         style="fill:none;fill-opacity:1;stroke:#ffffff;stroke-width:2;stroke-linejoin:round;stroke-miterlimit:4;stroke-dasharray:none;stroke-opacity:1"
         id="path7176"
         d="m 47.9096,781.43452 c 0.26736,-0.0366 0.51648,0.15008 0.55488,0.41744 0.04032,0.26368 -0.14832,0.5128 -0.412,0.55312 -0.26528,0.0402 -0.51808,-0.14656 -0.55296,-0.41376 -0.0384,-0.26752 0.14448,-0.51648 0.41008,-0.5568 z" />
    </g>
    <g
       transform="matrix(0.26458333,0,0,0.26458333,-68.969668,68.252204)"
       style="fill:#747473;fill-opacity:1"
       id="g7093">
      <path
         d="m 45.48896,786.20988 c 1.01808,0 1.84208,-0.824 1.84208,-1.84208 0,-1.01808 -0.82384,-1.84192 -1.84208,-1.84192 -1.01824,0 -1.84384,0.824 -1.84384,1.84208 -1.6e-4,1.01808 0.8256,1.84192 1.84384,1.84192 z"
         id="path3"
         style="fill:#747473;fill-opacity:1" />
      <path
         d="m 45,791.3622 c 1,0 1,0 1,-1 v -1 c 0,-1 0,-1 -1,-1 -1,0 -1,0 -0.990105,0.75592 0.886443,0.19056 0.876419,1.36838 -0.01634,1.54773 C 44,791.3622 44,791.3622 45,791.3622 Z m -2.01968,-4.56288 C 43.17808,786.60908 43.70688,786.3622 44,786.3622 h 3 l 4,-3 c 0.78208,-0.78736 1.78368,0.21264 1,1 l -4,3 0.04496,6 H 43 v -2.66608 h -1.93664 c -0.45232,0 -0.82032,-0.36624 -0.82032,-0.82032 0,-0.19408 0.06592,-0.36992 0.1776,-0.5128 z"
         id="path5"
         style="fill:#747473;fill-opacity:1" />
      <path
         transform="matrix(0.16,0,0,0.16,37,777.3622)"
         style="fill:#747473;fill-opacity:1"
         d="M 18.75,6.25 12.5,0 H 6.25 0 v 6.25 6.25 l 6.25,6.25 z"
         id="polygon7" />
      <path
         d="m 40.49184,786.6494 c -0.04224,0.27088 0.14464,0.51632 0.41008,0.55296 0.26736,0.0438 0.52,-0.15008 0.55296,-0.41008 0.04032,-0.27088 -0.14288,-0.51648 -0.412,-0.55312 -0.26544,-0.0402 -0.51616,0.14304 -0.55104,0.41024 z"
         id="path9"
         style="fill:#747473;fill-opacity:1" />
      <path
         d="m 40.91472,785.53612 c 0.03664,-0.25632 -0.13728,-0.49072 -0.39184,-0.52736 -0.25456,-0.0366 -0.48896,0.1392 -0.5256,0.39184 -0.03664,0.26 0.1392,0.48688 0.39184,0.52384 0.2528,0.0403 0.49088,-0.13904 0.5256,-0.38832 z"
         id="path11"
         style="fill:#747473;fill-opacity:1" />
      <path
         d="m 40.37456,784.27996 c 0.03296,-0.24176 -0.12992,-0.46512 -0.37168,-0.50176 -0.24176,-0.033 -0.46336,0.13184 -0.49808,0.37344 -0.03472,0.24544 0.12992,0.46144 0.36992,0.49808 0.24176,0.0405 0.46688,-0.13536 0.49984,-0.36976 z"
         id="path13"
         style="fill:#747473;fill-opacity:1" />
      <path
         d="m 39.83456,783.02396 c 0.03296,-0.22704 -0.12272,-0.43952 -0.35168,-0.47248 -0.23072,-0.033 -0.43952,0.12448 -0.47248,0.35152 -0.03296,0.23072 0.12448,0.43584 0.35152,0.47248 0.22704,0.0366 0.44144,-0.12816 0.47264,-0.35152 z"
         id="path15"
         style="fill:#747473;fill-opacity:1" />
      <path
         d="m 39.29424,781.7678 c 0.0312,-0.216 -0.11712,-0.41744 -0.33136,-0.44672 -0.21792,-0.0293 -0.41376,0.11712 -0.44496,0.33328 -0.0312,0.21984 0.11536,0.41008 0.3296,0.44672 0.216,0.033 0.41744,-0.12096 0.44672,-0.33328 z"
         id="path17"
         style="fill:#747473;fill-opacity:1" />
      <path
         d="m 38.223287,780.6051 c -0.03104,0.20512 0.10992,0.38448 0.31136,0.41744 0.20144,0.033 0.39008,-0.11344 0.41936,-0.3112 0.02928,-0.20144 -0.10992,-0.39184 -0.31136,-0.41744 -0.20704,-0.0293 -0.39184,0.10976 -0.41936,0.3112 z"
         id="path19"
         style="fill:#747473;fill-opacity:1" />
      <path
         d="m 42.31008,784.87692 c 0.01296,-0.26368 0.24,-0.47248 0.50544,-0.45776 0.26736,0.0147 0.47056,0.23808 0.45776,0.50912 -0.0093,0.26736 -0.23808,0.4688 -0.50544,0.45408 -0.2656,-0.007 -0.47248,-0.2344 -0.45776,-0.50544 z"
         id="path21"
         style="fill:#747473;fill-opacity:1" />
      <path
         d="m 42.00608,784.35324 c -0.25264,-0.0109 -0.4504,-0.22336 -0.43584,-0.48336 0.0128,-0.2528 0.22896,-0.44672 0.4816,-0.43584 0.25456,0.0146 0.44688,0.22704 0.43584,0.48336 -0.01104,0.25648 -0.22704,0.44688 -0.4816,0.43584 z"
         id="path23"
         style="fill:#747473;fill-opacity:1" />
      <path
         d="m 41.24624,783.3206 c -0.23984,-0.011 -0.42672,-0.21248 -0.41376,-0.45408 0.01296,-0.2416 0.216,-0.42848 0.45776,-0.41376 0.23984,0.011 0.4248,0.21616 0.41392,0.45776 -0.0094,0.23792 -0.21616,0.42464 -0.45792,0.41008 z"
         id="path25"
         style="fill:#747473;fill-opacity:1" />
      <path
         d="m 40.48448,782.29148 c -0.22704,-0.0109 -0.40464,-0.20144 -0.39184,-0.43216 0.0128,-0.22704 0.20512,-0.40288 0.43392,-0.39184 0.22704,0.011 0.40288,0.20512 0.39184,0.43216 -0.0091,0.22704 -0.20496,0.4064 -0.43392,0.39184 z"
         id="path27"
         style="fill:#747473;fill-opacity:1" />
      <path
         d="m 39.72464,781.26236 c -0.21424,-0.0109 -0.38272,-0.19408 -0.36992,-0.41008 0.01104,-0.21248 0.19232,-0.37712 0.40832,-0.36992 0.21424,0.0109 0.3808,0.19408 0.36992,0.41008 -0.0093,0.21248 -0.19424,0.38096 -0.40832,0.36992 z"
         id="path29"
         style="fill:#747473;fill-opacity:1" />
      <path
         d="m 38.814647,780.04846 c 0.01088,-0.20144 0.18128,-0.35888 0.38448,-0.34784 0.20144,0.007 0.35888,0.17952 0.34784,0.3808 -0.0091,0.20144 -0.1832,0.36256 -0.38448,0.34784 -0.20144,-0.0109 -0.35872,-0.17936 -0.34784,-0.3808 z"
         id="path31"
         style="fill:#747473;fill-opacity:1" />
      <path
         d="m 43.63024,782.80412 c -0.26736,0.0147 -0.49984,-0.1904 -0.50912,-0.45776 -0.01472,-0.27104 0.196,-0.49808 0.46336,-0.50912 0.26192,-0.011 0.49072,0.1904 0.50176,0.46512 0.01648,0.26016 -0.18864,0.49072 -0.456,0.50176 z"
         id="path33"
         style="fill:#747473;fill-opacity:1" />
      <path
         d="m 43.04992,781.54076 c 0.0128,0.24544 -0.1776,0.45776 -0.42848,0.4688 -0.25088,0.011 -0.46688,-0.17952 -0.47792,-0.42848 -0.01088,-0.2528 0.1832,-0.46144 0.43392,-0.47616 0.2472,-0.011 0.45952,0.17952 0.47248,0.43584 z"
         id="path35"
         style="fill:#747473;fill-opacity:1" />
      <path
         d="m 42.01344,780.779 c 0.01104,0.23072 -0.16848,0.42848 -0.40288,0.43952 -0.2344,0.0109 -0.4376,-0.16848 -0.44672,-0.3992 -0.01104,-0.23808 0.17216,-0.43584 0.40656,-0.44672 0.23072,-0.011 0.43024,0.16832 0.44304,0.4064 z"
         id="path37"
         style="fill:#747473;fill-opacity:1" />
      <path
         d="m 40.97696,780.01724 c 0.0093,0.216 -0.15744,0.40288 -0.37536,0.41008 -0.21792,0.0109 -0.40656,-0.15744 -0.41568,-0.3736 -0.0093,-0.21968 0.16112,-0.40288 0.37904,-0.41376 0.21424,-0.0109 0.40112,0.1576 0.412,0.37728 z"
         id="path39"
         style="fill:#747473;fill-opacity:1" />
      <path
         d="m 39.407927,779.49182 c -0.01104,-0.20512 0.14832,-0.37712 0.34976,-0.38448 0.19968,-0.0109 0.3736,0.14656 0.38272,0.34784 0.0093,0.20144 -0.1464,0.3736 -0.34784,0.38096 -0.20144,0.0109 -0.37728,-0.14656 -0.38464,-0.34432 z"
         id="path41"
         style="fill:#747473;fill-opacity:1" />
      <path
         d="m 40.314327,778.51406 c 0.19968,-0.0293 0.39008,0.11008 0.41936,0.31136 0.02944,0.20144 -0.10992,0.39184 -0.31312,0.41744 -0.20144,0.033 -0.39008,-0.10992 -0.4192,-0.31136 -0.02752,-0.20144 0.11328,-0.38816 0.31296,-0.41744 z"
         id="path43"
         style="fill:#747473;fill-opacity:1" />
      <path
         d="m 41.85584,779.16396 c 0.0312,0.21232 -0.11712,0.41008 -0.3296,0.43952 -0.21248,0.033 -0.412,-0.11712 -0.44128,-0.32592 -0.02944,-0.21248 0.11904,-0.41376 0.3296,-0.44336 0.21072,-0.0291 0.41024,0.11744 0.44128,0.32976 z"
         id="path45"
         style="fill:#747473;fill-opacity:1" />
      <path
         d="m 43.17792,779.69868 c 0.03296,0.22704 -0.12272,0.43216 -0.34608,0.46512 -0.22336,0.033 -0.43392,-0.12448 -0.46512,-0.34432 -0.03104,-0.22336 0.12448,-0.43216 0.34608,-0.46512 0.2216,-0.033 0.43216,0.12096 0.46512,0.34432 z"
         id="path47"
         style="fill:#747473;fill-opacity:1" />
      <path
         d="m 44.49824,780.23692 c 0.03472,0.2344 -0.12816,0.4504 -0.36256,0.48704 -0.23264,0.033 -0.45408,-0.12816 -0.48528,-0.36256 -0.03296,-0.2344 0.12816,-0.45408 0.36064,-0.48704 0.2344,-0.0365 0.45424,0.12832 0.4872,0.36256 z"
         id="path49"
         style="fill:#747473;fill-opacity:1" />
      <path
         d="m 45.82048,780.77532 c 0.03472,0.24544 -0.13568,0.47248 -0.37904,0.50912 -0.24352,0.0366 -0.4744,-0.13552 -0.5072,-0.37728 -0.03504,-0.24528 0.13344,-0.476 0.37696,-0.51264 0.24544,-0.033 0.47248,0.13536 0.50928,0.3808 z"
         id="path51"
         style="fill:#747473;fill-opacity:1" />
      <path
         d="m 47.1424,781.31372 c 0.0384,0.25632 -0.14096,0.4944 -0.39568,0.53104 -0.2544,0.0366 -0.49616,-0.14288 -0.53088,-0.39552 -0.03664,-0.25632 0.13904,-0.49808 0.39376,-0.53472 0.25616,-0.0366 0.496,0.14272 0.5328,0.3992 z"
         id="path53"
         style="fill:#747473;fill-opacity:1" />
      <path
         d="m 47.9096,781.43452 c 0.26736,-0.0366 0.51648,0.15008 0.55488,0.41744 0.04032,0.26368 -0.14832,0.5128 -0.412,0.55312 -0.26528,0.0402 -0.51808,-0.14656 -0.55296,-0.41376 -0.0384,-0.26752 0.14448,-0.51648 0.41008,-0.5568 z"
         id="path55"
         style="fill:#747473;fill-opacity:1" />
    </g>
  </g>
</svg>
