<?xml version="1.0" encoding="UTF-8" standalone="no"?>
<svg
   xmlns:dc="http://purl.org/dc/elements/1.1/"
   xmlns:cc="http://creativecommons.org/ns#"
   xmlns:rdf="http://www.w3.org/1999/02/22-rdf-syntax-ns#"
   xmlns:svg="http://www.w3.org/2000/svg"
   xmlns="http://www.w3.org/2000/svg"
   id="svg8"
   version="1.1"
   viewBox="0 0 4.7625044 4.7625082"
   height="4.7625079mm"
   width="4.7625046mm">
  <defs
     id="defs2">
    <pattern
       id="EMFhbasepattern"
       patternUnits="userSpaceOnUse"
       width="6"
       height="6"
       x="0"
       y="0" />
    <pattern
       id="EMFhbasepattern-8"
       patternUnits="userSpaceOnUse"
       width="6"
       height="6"
       x="0"
       y="0" />
    <pattern
       id="EMFhbasepattern-1"
       patternUnits="userSpaceOnUse"
       width="6"
       height="6"
       x="0"
       y="0" />
  </defs>
  <metadata
     id="metadata5">
    <rdf:RDF>
      <cc:Work
         rdf:about="">
        <dc:format>image/svg+xml</dc:format>
        <dc:type
           rdf:resource="http://purl.org/dc/dcmitype/StillImage" />
        <dc:title></dc:title>
      </cc:Work>
    </rdf:RDF>
  </metadata>
  <g
     transform="translate(-121.53025,-29.923823)"
     id="layer1">
    <g
       transform="matrix(0.26458333,0,0,0.26458333,120.36632,-201.93337)"
       id="g5354">
      <rect
         style="opacity:0.3;fill:none;stroke:none"
         id="rect7026"
         width="18"
         height="18"
         x="0"
         y="866.36218" />
      <g
         transform="translate(-93.625326,53.056688)"
         id="g5663">
        <rect
           style="fill:none;stroke:none"
           id="rect4844"
           width="18"
           height="18"
           x="102"
           y="812.36218" />
        <g
           transform="translate(98.024457,-115.10821)"
           id="g7357">
          <g
             id="g21530"
             transform="translate(-422,-184)"
             style="fill:#000000">
            <path
               style="color:#000000;display:inline;overflow:visible;visibility:visible;opacity:0.3;fill:#000000;fill-opacity:1;fill-rule:nonzero;stroke:#ffffff;stroke-width:2;stroke-linecap:round;stroke-linejoin:round;stroke-miterlimit:4;stroke-dasharray:none;stroke-dashoffset:0;stroke-opacity:1;marker:none;enable-background:accumulate"
               d="m 430,1124.8622 -1,0.5 v 1 h 5 v -1 l -1,-0.5 z m -1,2.5 c -0.0333,0.1627 0,0.3274 0,0.5 0,1.3807 1.11931,2.5 2.5,2.5 1.38069,0 2.5,-1.1193 2.5,-2.5 0,-0.1726 0,-0.5 0,-0.5 z m 0,4 c -1.08333,0 -1.98585,1.7917 -2,2.875 v 4.125 h 1.53125 l 4.46875,-7 z m 5.5,0 -4.46875,7 H 436 v -4.125 c 0,-1.0834 -0.41666,-2.875 -1.5,-2.875 z"
               id="path15835" />
            <path
               id="rect7805-5-4"
               d="m 430,1124.8622 -1,0.5 v 1 h 5 v -1 l -1,-0.5 z m -1,2.5 c -0.0333,0.1627 0,0.3274 0,0.5 0,1.3807 1.11931,2.5 2.5,2.5 1.38069,0 2.5,-1.1193 2.5,-2.5 0,-0.1726 0,-0.5 0,-0.5 z m 0,4 c -1.08333,0 -1.98585,1.7917 -2,2.875 v 4.125 h 1.53125 l 4.46875,-7 z m 5.5,0 -4.46875,7 H 436 v -4.125 c 0,-1.0834 -0.41666,-2.875 -1.5,-2.875 z"
               style="color:#000000;display:inline;overflow:visible;visibility:visible;fill:#000000;fill-opacity:1;stroke:none;stroke-width:2;marker:none;enable-background:accumulate" />
          </g>
          <rect
             y="938.36218"
             x="-3.0517578e-005"
             height="18.000031"
             width="18.000017"
             id="rect22302-3"
             style="color:#000000;display:inline;overflow:visible;visibility:visible;opacity:0.5;fill:none;stroke:none;stroke-width:2;marker:none;enable-background:accumulate" />
        </g>
      </g>
      <g
         transform="translate(-97.123436,36.007642)"
         id="g5667" />
    </g>
  </g>
</svg>
