<?xml version="1.0" encoding="UTF-8" standalone="no"?>
<svg
   xmlns:dc="http://purl.org/dc/elements/1.1/"
   xmlns:cc="http://creativecommons.org/ns#"
   xmlns:rdf="http://www.w3.org/1999/02/22-rdf-syntax-ns#"
   xmlns:svg="http://www.w3.org/2000/svg"
   xmlns="http://www.w3.org/2000/svg"
   id="svg8"
   version="1.1"
   viewBox="0 0 4.7625836 4.7625082"
   height="4.7625079mm"
   width="4.7625837mm">
  <defs
     id="defs2">
    <pattern
       id="EMFhbasepattern"
       patternUnits="userSpaceOnUse"
       width="6"
       height="6"
       x="0"
       y="0" />
    <pattern
       id="EMFhbasepattern-8"
       patternUnits="userSpaceOnUse"
       width="6"
       height="6"
       x="0"
       y="0" />
    <pattern
       id="EMFhbasepattern-1"
       patternUnits="userSpaceOnUse"
       width="6"
       height="6"
       x="0"
       y="0" />
  </defs>
  <metadata
     id="metadata5">
    <rdf:RDF>
      <cc:Work
         rdf:about="">
        <dc:format>image/svg+xml</dc:format>
        <dc:type
           rdf:resource="http://purl.org/dc/dcmitype/StillImage" />
        <dc:title></dc:title>
      </cc:Work>
    </rdf:RDF>
  </metadata>
  <g
     transform="translate(-121.04497,-30.939231)"
     id="layer1">
    <g
       transform="matrix(0.26458333,0,0,0.26458333,120.36632,-201.93337)"
       id="g5354">
      <rect
         style="opacity:0.3;fill:none;stroke:none"
         id="rect7026"
         width="18"
         height="18"
         x="0"
         y="866.36218" />
      <g
         transform="translate(-93.625326,53.056688)"
         id="g5663">
        <rect
           style="fill:none;stroke:none"
           id="rect4844"
           width="18"
           height="18"
           x="102"
           y="812.36218" />
        <g
           id="g1570"
           transform="matrix(3.7795276,0,0,3.7795276,3.1903415,403.5721)">
          <g
             id="g7373"
             transform="matrix(0.26458333,0,0,0.26458333,24.606248,-145.74375)">
            <g
               style="fill:#000000"
               transform="translate(-264,-77)"
               id="g21614">
              <path
                 id="path12957"
                 d="m 274.75,1053.3622 c -0.69036,0 -1.25,0.5596 -1.25,1.25 0,0.6904 0.55964,1.25 1.25,1.25 0.69036,0 1.25,-0.5596 1.25,-1.25 0,-0.6904 -0.55964,-1.25 -1.25,-1.25 z m -5.6875,1 c -0.69036,0 -1.25,0.5596 -1.25,1.25 0,0.6904 0.55964,1.25 1.25,1.25 0.69036,0 1.25,-0.5596 1.25,-1.25 0,-0.6904 -0.55964,-1.25 -1.25,-1.25 z m 6.6875,2 c -0.27951,0 -0.73981,0.1009 -1.125,0.375 l -2.4375,1.75 c -0.66135,0.4706 -0.0545,1.2832 0.5625,0.875 l 1.59375,-1.0625 c 0,0 0.43663,0.3561 0.65625,1.0625 l -0.0312,1.8438 -1.625,4.3437 c -0.18821,0.5019 0.16603,0.8175 0.53125,0.8125 0.23949,0 0.47639,-0.1604 0.59375,-0.4375 l 2.03125,-4.5625 c 0,0 0.375,1.9999 1.875,2 0.90139,10e-5 1.625,0 2.125,0 0.5,0 0.5,-0.5 0.5,-0.5 0,0 0,-0.5 -0.5,-0.5 -0.375,0 -1.625,-10e-5 -2,0 0,0 -0.5,0 -0.5,-1 0,-0.7037 -0.78022,-2.4984 -1,-3 v -0.5 l 2.5,1.375 c 0.6798,0.4533 1.28427,-0.3492 0.625,-0.8437 l -2.625,-1.5313 c -0.51696,-0.2904 -1.08223,-0.5 -1.75,-0.5 z m -7.125,1 c -0.375,0 -0.55236,0.1774 -0.75,0.375 l -1.59375,1.5938 c -0.2052,0.2052 -0.28125,0.3888 -0.28125,0.6562 0,0.375 0.55763,0.5673 0.875,0.25 l 1.375,-1.375 c 0.3148,0 0.75,0.039 0.75,0.5 v 2.125 l -1.125,3 c -0.3116,0.8309 0.8582,1.0865 1.125,0.375 l 1.125,-3 c 0,0 0.375,0.5 1.125,0.5 h 2.1875 c 0.75,0 0.75,-1 0,-1 H 271.5 c 0,0 -0.5,0 -0.5,-0.5 v -0.75 c 0,-1.5 -0.5,-2.75 -1.25,-2.75 z"
                 style="color:#000000;display:inline;overflow:visible;visibility:visible;opacity:0.3;fill:#000000;stroke:#ffffff;stroke-width:2;stroke-linecap:round;stroke-linejoin:round;stroke-miterlimit:4;stroke-dasharray:none;stroke-dashoffset:0;stroke-opacity:1;marker:none;enable-background:accumulate" />
              <path
                 style="color:#000000;display:inline;overflow:visible;visibility:visible;fill:#000000;fill-opacity:1;fill-rule:nonzero;stroke:none;stroke-width:2;marker:none;enable-background:accumulate"
                 d="m 274.75,1053.3622 c -0.69036,0 -1.25,0.5596 -1.25,1.25 0,0.6904 0.55964,1.25 1.25,1.25 0.69036,0 1.25,-0.5596 1.25,-1.25 0,-0.6904 -0.55964,-1.25 -1.25,-1.25 z m -5.6875,1 c -0.69036,0 -1.25,0.5596 -1.25,1.25 0,0.6904 0.55964,1.25 1.25,1.25 0.69036,0 1.25,-0.5596 1.25,-1.25 0,-0.6904 -0.55964,-1.25 -1.25,-1.25 z m 6.6875,2 c -0.27951,0 -0.73981,0.1009 -1.125,0.375 l -2.4375,1.75 c -0.66135,0.4706 -0.0545,1.2832 0.5625,0.875 l 1.59375,-1.0625 c 0,0 0.43663,0.3561 0.65625,1.0625 l -0.0312,1.8438 -1.625,4.3437 c -0.18821,0.5019 0.16603,0.8175 0.53125,0.8125 0.23949,0 0.47639,-0.1604 0.59375,-0.4375 l 2.03125,-4.5625 c 0,0 0.375,1.9999 1.875,2 0.90139,10e-5 1.625,0 2.125,0 0.5,0 0.5,-0.5 0.5,-0.5 0,0 0,-0.5 -0.5,-0.5 -0.375,0 -1.625,-10e-5 -2,0 0,0 -0.5,0 -0.5,-1 0,-0.7037 -0.78022,-2.4984 -1,-3 v -0.5 l 2.5,1.375 c 0.6798,0.4533 1.28427,-0.3492 0.625,-0.8437 l -2.625,-1.5313 c -0.51696,-0.2904 -1.08223,-0.5 -1.75,-0.5 z m -7.125,1 c -0.375,0 -0.55236,0.1774 -0.75,0.375 l -1.59375,1.5938 c -0.2052,0.2052 -0.28125,0.3888 -0.28125,0.6562 0,0.375 0.55763,0.5673 0.875,0.25 l 1.375,-1.375 c 0.3148,0 0.75,0.039 0.75,0.5 v 2.125 l -1.125,3 c -0.3116,0.8309 0.8582,1.0865 1.125,0.375 l 1.125,-3 c 0,0 0.375,0.5 1.125,0.5 h 2.1875 c 0.75,0 0.75,-1 0,-1 H 271.5 c 0,0 -0.5,0 -0.5,-0.5 v -0.75 c 0,-1.5 -0.5,-2.75 -1.25,-2.75 z"
                 id="path17507" />
            </g>
          </g>
          <rect
             style="color:#000000;display:inline;overflow:visible;visibility:visible;opacity:0.5;fill:none;stroke:none;stroke-width:0.52916664;marker:none;enable-background:accumulate"
             id="rect22284-1"
             width="4.7625046"
             height="4.7625079"
             x="24.606239"
             y="112.05624" />
        </g>
      </g>
      <g
         transform="translate(-97.123436,36.007642)"
         id="g5667" />
    </g>
  </g>
</svg>
