<?xml version="1.0" encoding="UTF-8" standalone="no"?>
<svg
   xmlns:dc="http://purl.org/dc/elements/1.1/"
   xmlns:cc="http://creativecommons.org/ns#"
   xmlns:rdf="http://www.w3.org/1999/02/22-rdf-syntax-ns#"
   xmlns:svg="http://www.w3.org/2000/svg"
   xmlns="http://www.w3.org/2000/svg"
   id="svg8"
   version="1.1"
   viewBox="0 0 4.7625044 4.7625082"
   height="4.7625079mm"
   width="4.7625046mm">
  <defs
     id="defs2">
    <pattern
       id="EMFhbasepattern"
       patternUnits="userSpaceOnUse"
       width="6"
       height="6"
       x="0"
       y="0" />
    <pattern
       id="EMFhbasepattern-8"
       patternUnits="userSpaceOnUse"
       width="6"
       height="6"
       x="0"
       y="0" />
    <pattern
       id="EMFhbasepattern-1"
       patternUnits="userSpaceOnUse"
       width="6"
       height="6"
       x="0"
       y="0" />
  </defs>
  <metadata
     id="metadata5">
    <rdf:RDF>
      <cc:Work
         rdf:about="">
        <dc:format>image/svg+xml</dc:format>
        <dc:type
           rdf:resource="http://purl.org/dc/dcmitype/StillImage" />
        <dc:title></dc:title>
      </cc:Work>
    </rdf:RDF>
  </metadata>
  <g
     transform="translate(-120.44292,-31.415485)"
     id="layer1">
    <g
       transform="matrix(0.26458333,0,0,0.26458333,120.36632,-201.93337)"
       id="g5354">
      <rect
         style="opacity:0.3;fill:none;stroke:none"
         id="rect7026"
         width="18"
         height="18"
         x="0"
         y="866.36218" />
      <g
         transform="translate(-93.625326,53.056688)"
         id="g5663">
        <rect
           style="fill:none;stroke:none"
           id="rect4844"
           width="18"
           height="18"
           x="102"
           y="812.36218" />
        <g
           transform="translate(93.914853,-163.47043)"
           id="g7379">
          <g
             id="g21624"
             transform="translate(-265,-82.000001)"
             style="fill:#000000">
            <path
               style="color:#000000;display:inline;overflow:visible;visibility:visible;opacity:0.3;fill:#000000;stroke:#ffffff;stroke-width:2;stroke-linecap:round;stroke-linejoin:round;stroke-miterlimit:4;stroke-dasharray:none;stroke-dashoffset:0;stroke-opacity:1;marker:none;enable-background:accumulate"
               d="m 274.5,1078.3622 -6.5,3.5 6.5,3.5 4.5,-2.3437 v 3.5625 c 0,1.7812 1.5,1.5312 1.5,1.5312 v -0.75 c 0,0 -0.78125,0 -0.78125,-0.7812 v -3.9688 l 1.28125,-0.75 z m -3.5,6.5 v 1.4375 c 0,0.3588 0.51257,0.8187 1,1.0625 l 2.5,1 2.5,-1 c 0.48743,-0.2438 1,-0.7037 1,-1.0625 v -1.4375 l -3.5,1.5 z"
               id="path13130" />
            <path
               id="path7442-0"
               d="m 274.5,1078.3622 -6.5,3.5 6.5,3.5 4.5,-2.3437 v 3.5625 c 0,1.7812 1.5,1.5312 1.5,1.5312 v -0.75 c 0,0 -0.78125,0 -0.78125,-0.7812 v -3.9688 l 1.28125,-0.75 z m -3.5,6.5 v 1.4375 c 0,0.3588 0.51257,0.8187 1,1.0625 l 2.5,1 2.5,-1 c 0.48743,-0.2438 1,-0.7037 1,-1.0625 v -1.4375 l -3.5,1.5 z"
               style="color:#000000;display:inline;overflow:visible;visibility:visible;fill:#000000;fill-opacity:1;stroke:none;stroke-width:2;marker:none;enable-background:accumulate" />
          </g>
          <rect
             style="color:#000000;display:inline;overflow:visible;visibility:visible;opacity:0.5;fill:none;stroke:none;stroke-width:2;marker:none;enable-background:accumulate"
             id="rect22290-3"
             width="18.000017"
             height="18.000031"
             x="-3.0517578e-005"
             y="992.36218" />
        </g>
      </g>
      <g
         transform="translate(-97.123436,36.007642)"
         id="g5667" />
    </g>
  </g>
</svg>
