<?xml version="1.0" encoding="utf-8"?>
<!-- Generator: Adobe Illustrator 16.0.4, SVG Export Plug-In . SVG Version: 6.00 Build 0)  -->
<!DOCTYPE svg PUBLIC "-//W3C//DTD SVG 1.1//EN" "http://www.w3.org/Graphics/SVG/1.1/DTD/svg11.dtd">
<svg version="1.1" xmlns="http://www.w3.org/2000/svg" xmlns:xlink="http://www.w3.org/1999/xlink" x="0px" y="0px" width="15px"
	 height="15px" viewBox="0 0 15 15" enable-background="new 0 0 15 15" xml:space="preserve">
<g id="Layer_2">
	<path d="M10,13c0,1.381-5,1.381-5,0V5.5C5,4.119,6.119,3,7.5,3l0,0C8.881,3,10,4.119,10,5.5V13z"/>
	<path d="M11,6H4C3,6,3,5,3,3.001c0-1,0.171-1,1-1v1h1v-1V1h1v2l1,0V1h1v2h1V1h1v2l1,0V2c1,0,1,0.002,1,1.001C12,5,12,6,11,6z"/>
</g>
<g id="Layer_3">
	<rect x="8" y="6" fill="#FFFFFF" width="1" height="2"/>
	<rect x="6" y="8" fill="#FFFFFF" width="1" height="2"/>
</g>
</svg>
