<?xml version="1.0" encoding="utf-8"?>
<!-- Generator: Adobe Illustrator 16.0.4, SVG Export Plug-In . SVG Version: 6.00 Build 0)  -->
<!DOCTYPE svg PUBLIC "-//W3C//DTD SVG 1.1//EN" "http://www.w3.org/Graphics/SVG/1.1/DTD/svg11.dtd">
<svg version="1.1" id="Layer_1" xmlns="http://www.w3.org/2000/svg" xmlns:xlink="http://www.w3.org/1999/xlink" x="0px" y="0px"
	 width="11px" height="11px" viewBox="0 0 11 11" enable-background="new 0 0 11 11" xml:space="preserve">
<g>
	<path fill="none" stroke="#000000" stroke-width="1.4" stroke-linecap="round" stroke-linejoin="round" stroke-miterlimit="10" d="
		M2.35,3.375c0,0,1.96,0.269,3.15,0.269c1.19,0,3.15-0.269,3.15-0.269"/>
	<path fill="none" stroke="#000000" stroke-width="1.5" stroke-linecap="round" stroke-linejoin="round" stroke-miterlimit="10" d="
		M2.35,5.672c0,0,1.96,0.27,3.15,0.27c1.19,0,3.15-0.27,3.15-0.27"/>
	<path fill="none" stroke="#000000" stroke-width="1.4" stroke-linecap="round" stroke-linejoin="round" stroke-miterlimit="10" d="
		M2.35,7.908c0,0,1.96,0.269,3.15,0.269c1.19,0,3.15-0.269,3.15-0.269"/>
	<path fill="none" stroke="#000000" stroke-width="1.4" stroke-linecap="round" stroke-linejoin="round" stroke-miterlimit="10" d="
		M2.349,2.511c0,0,1.96-0.269,3.15-0.269c1.19,0,3.151,0.269,3.151,0.269"/>
	<line fill="none" stroke="#000000" stroke-linejoin="round" stroke-miterlimit="10" x1="1.65" y1="2.873" x2="9.35" y2="2.873"/>
	<path fill="none" stroke="#000000" stroke-width="1.4" stroke-linecap="round" stroke-linejoin="round" stroke-miterlimit="10" d="
		M2.349,8.636c0,0,1.96,0.269,3.15,0.269c1.19,0,3.15-0.269,3.15-0.269"/>
	
		<line fill="none" stroke="#000000" stroke-width="0.8" stroke-linejoin="round" stroke-miterlimit="10" x1="1.65" y1="8.414" x2="9.35" y2="8.414"/>
	<path d="M8.65,2.224L6.098,2.242V1.534c0-0.685,0.432-0.686,1.277-0.685c1.049,0.001,1.275,0,1.275,0.675
		C8.65,2.224,8.65,2.224,8.65,2.224z"/>
</g>
</svg>
