<?xml version="1.0" encoding="utf-8"?>
<!-- Generator: Adobe Illustrator 16.0.4, SVG Export Plug-In . SVG Version: 6.00 Build 0)  -->
<!DOCTYPE svg PUBLIC "-//W3C//DTD SVG 1.1//EN" "http://www.w3.org/Graphics/SVG/1.1/DTD/svg11.dtd">
<svg version="1.1" xmlns="http://www.w3.org/2000/svg" xmlns:xlink="http://www.w3.org/1999/xlink" x="0px" y="0px" width="11px"
	 height="11px" viewBox="0 0 11 11" enable-background="new 0 0 11 11" xml:space="preserve">
<g id="Layer_2">
</g>
<g id="svg4764" xmlns:inkscape="http://www.inkscape.org/namespaces/inkscape" xmlns:dc="http://purl.org/dc/elements/1.1/" xmlns:cc="http://creativecommons.org/ns#" xmlns:svg="http://www.w3.org/2000/svg" xmlns:rdf="http://www.w3.org/1999/02/22-rdf-syntax-ns#" xmlns:sodipodi="http://sodipodi.sourceforge.net/DTD/sodipodi-0.dtd" inkscape:version="0.91+devel+osxmenu r12911" sodipodi:docname="circle-stroked-11.svg">
	<path d="M8.778,0.463L7.413,3.049L1.681,1.372c-0.675-0.196-0.99,0.291-1.209,0.898c-0.219,0.607-0.259,1.104,0.415,1.3
		l1.839,0.538L0.928,9.624c-0.131,0.405,0.09,0.84,0.494,0.972c0.405,0.131,0.84-0.091,0.972-0.495l1.449-4.489l1.449,4.489
		c0.132,0.404,0.566,0.626,0.972,0.495c0.404-0.132,0.625-0.566,0.494-0.972L5.196,4.831l1.601,0.468l0.361,3.636
		c1.686,0.547,3.137-1.729,3.684-3.416C11.391,3.834,10.464,1.011,8.778,0.463z M7.987,7.771V5.5l1.818,0.414
		C9.568,6.403,8.461,7.89,7.987,7.771z M10.032,4.195L8.136,3.544l1.155-1.925C9.743,1.92,10.216,3.743,10.032,4.195z"/>
</g>
</svg>
