<?xml version="1.0" encoding="utf-8"?>
<!-- Generator: Adobe Illustrator 16.0.4, SVG Export Plug-In . SVG Version: 6.00 Build 0)  -->
<!DOCTYPE svg PUBLIC "-//W3C//DTD SVG 1.1//EN" "http://www.w3.org/Graphics/SVG/1.1/DTD/svg11.dtd">
<svg version="1.1"
	 id="svg4619" xmlns:cc="http://creativecommons.org/ns#" xmlns:dc="http://purl.org/dc/elements/1.1/" xmlns:inkscape="http://www.inkscape.org/namespaces/inkscape" xmlns:rdf="http://www.w3.org/1999/02/22-rdf-syntax-ns#" xmlns:sodipodi="http://sodipodi.sourceforge.net/DTD/sodipodi-0.dtd" xmlns:svg="http://www.w3.org/2000/svg" sodipodi:docname="police-15.svg" inkscape:version="0.91+devel+osxmenu r12911"
	 xmlns="http://www.w3.org/2000/svg" xmlns:xlink="http://www.w3.org/1999/xlink" x="0px" y="0px" width="15px" height="15px"
	 viewBox="0 0 15 15" enable-background="new 0 0 15 15" xml:space="preserve">
<g>
	<path d="M1,0.594L1.018,5.5c0,0,2.607,1.5,3.044,1.5s1.469-4.5,0.969-5S1,0.594,1,0.594z"/>
	<path fill="none" stroke="#000000" stroke-width="0.7" stroke-miterlimit="10" d="M1.018,1c1.5,0,4.544-0.062,4.919,0
		s0.406,4.281,0.125,4.5s-2.469,0-2.469,0"/>
	<path id="rect4718" d="M8.5,1L9,2h4.031l0.5-1H8.5z M9,2.5v1c0,0,0,3,2,3s2-3,2-3l0.031-1H9z M6,7c0,0-1-0.5-1.5,0S5,8.5,5,8.5
		L7,10l2-1v5l3.91-6.93C12.77,7.029,12.625,7,12.473,7H9L7,8L6,7z M13.5,7.5L10,14h4.031V8.559C14.031,8.245,13.658,7.744,13.5,7.5z
		"/>
</g>
</svg>
