<?xml version="1.0" encoding="utf-8"?>
<!-- Generator: Adobe Illustrator 16.0.4, SVG Export Plug-In . SVG Version: 6.00 Build 0)  -->
<!DOCTYPE svg PUBLIC "-//W3C//DTD SVG 1.1//EN" "http://www.w3.org/Graphics/SVG/1.1/DTD/svg11.dtd">
<svg version="1.1" id="Layer_1" xmlns="http://www.w3.org/2000/svg" xmlns:xlink="http://www.w3.org/1999/xlink" x="0px" y="0px"
	 width="11px" height="11px" viewBox="0 0 11 11" enable-background="new 0 0 11 11" xml:space="preserve">
<path d="M1.11,3.33C1.417,3.091,1.802,2.973,2.19,3C3.066,2.936,3.848,3.545,4,4.41L4.57,7.8c-0.455-0.219-0.985-0.219-1.44,0
	L2.56,4.41C2.346,3.785,1.77,3.356,1.11,3.33z M5.45,8.21c0.276-0.222,0.597-0.383,0.94-0.47l0.899-5.5
	c0.214-0.625,0.79-1.054,1.45-1.08C8.435,0.908,8.045,0.779,7.65,0.8C6.764,0.737,5.978,1.363,5.84,2.24L4.9,7.88
	C5.097,7.966,5.282,8.076,5.45,8.21z M8.58,7.85L8.58,7.85C8.692,7.756,8.812,7.673,8.939,7.6l0.5-3.209
	c0.211-0.629,0.788-1.062,1.451-1.09C10.584,3.048,10.195,2.919,9.8,2.94C8.914,2.883,8.133,3.513,8,4.39l-0.48,3
	C7.901,7.459,8.261,7.616,8.57,7.85H8.58z M10.141,8.75L10.141,8.75c-0.314-0.008-0.62,0.099-0.861,0.3l-0.34,0.3
	c-0.201,0.172-0.498,0.172-0.699,0L7.91,9.07c-0.513-0.429-1.258-0.429-1.77,0L5.8,9.37c-0.2,0.166-0.49,0.166-0.69,0L4.77,9.05
	C4.255,8.625,3.51,8.629,3,9.061C2.89,9.15,2.79,9.25,2.68,9.34C2.614,9.39,2.54,9.428,2.46,9.45C2.249,9.497,2.028,9.429,1.88,9.27
	C1.701,9.115,1.511,8.975,1.31,8.85C1.154,8.767,0.976,8.732,0.8,8.75l0,0c-0.199,0-0.36,0.161-0.36,0.359
	c0,0.199,0.161,0.36,0.36,0.36l0,0C0.978,9.482,1.144,9.565,1.26,9.7l0.22,0.2c0.496,0.389,1.194,0.389,1.69,0
	c0.14-0.101,0.26-0.23,0.4-0.34c0.204-0.178,0.507-0.178,0.71,0L4.53,9.85c0.514,0.434,1.266,0.434,1.781,0
	C6.42,9.77,6.51,9.67,6.609,9.58c0.219-0.217,0.572-0.217,0.791,0l0.289,0.3C8.051,10.191,8.546,10.294,9,10.15
	c0.264-0.08,0.502-0.229,0.689-0.431c0.121-0.148,0.299-0.239,0.49-0.25l0,0c0.202-0.014,0.354-0.188,0.34-0.39
	s-0.188-0.354-0.39-0.34L10.141,8.75z"/>
</svg>
