<?xml version="1.0" encoding="utf-8"?>
<!-- Generator: Adobe Illustrator 16.0.4, SVG Export Plug-In . SVG Version: 6.00 Build 0)  -->
<!DOCTYPE svg PUBLIC "-//W3C//DTD SVG 1.1//EN" "http://www.w3.org/Graphics/SVG/1.1/DTD/svg11.dtd">
<svg version="1.1" id="Layer_1" xmlns="http://www.w3.org/2000/svg" xmlns:xlink="http://www.w3.org/1999/xlink" x="0px" y="0px"
	 width="15px" height="15px" viewBox="0 0 15 15" enable-background="new 0 0 15 15" xml:space="preserve">
<path d="M9,13.611C9,13.275,8.5,5,8.5,5h-2c0,0-0.5,7.934-0.5,8.611C6,14.291,9,14.291,9,13.611z"/>
<circle cx="7.5" cy="4.875" r="1.575"/>
<path fill="none" stroke="#000000" stroke-linecap="round" stroke-miterlimit="10" d="M4.984,7.163
	C4.519,6.538,4.246,5.765,4.246,4.926c0-0.847,0.281-1.627,0.754-2.254"/>
<path fill="none" stroke="#000000" stroke-linecap="round" stroke-miterlimit="10" d="M3.176,7.835
	C2.571,7.022,2.216,6.02,2.216,4.93c0-1.101,0.366-2.115,0.98-2.93"/>
<path fill="none" stroke="#000000" stroke-linecap="round" stroke-miterlimit="10" d="M10,2.672
	c0.474,0.627,0.755,1.407,0.755,2.254c0,0.838-0.273,1.611-0.738,2.236"/>
<path fill="none" stroke="#000000" stroke-linecap="round" stroke-miterlimit="10" d="M12.119,2c0.613,0.815,0.979,1.829,0.979,2.93
	c0,1.09-0.354,2.093-0.959,2.906"/>
</svg>
