<?xml version="1.0" encoding="UTF-8" standalone="no"?>
<svg
   xmlns:dc="http://purl.org/dc/elements/1.1/"
   xmlns:cc="http://creativecommons.org/ns#"
   xmlns:rdf="http://www.w3.org/1999/02/22-rdf-syntax-ns#"
   xmlns:svg="http://www.w3.org/2000/svg"
   xmlns="http://www.w3.org/2000/svg"
   id="svg8"
   version="1.1"
   viewBox="0 0 4.7625044 4.7625082"
   height="4.7625079mm"
   width="4.7625046mm">
  <defs
     id="defs2">
    <pattern
       id="EMFhbasepattern"
       patternUnits="userSpaceOnUse"
       width="6"
       height="6"
       x="0"
       y="0" />
    <pattern
       id="EMFhbasepattern-8"
       patternUnits="userSpaceOnUse"
       width="6"
       height="6"
       x="0"
       y="0" />
    <pattern
       id="EMFhbasepattern-1"
       patternUnits="userSpaceOnUse"
       width="6"
       height="6"
       x="0"
       y="0" />
  </defs>
  <metadata
     id="metadata5">
    <rdf:RDF>
      <cc:Work
         rdf:about="">
        <dc:format>image/svg+xml</dc:format>
        <dc:type
           rdf:resource="http://purl.org/dc/dcmitype/StillImage" />
        <dc:title></dc:title>
      </cc:Work>
    </rdf:RDF>
  </metadata>
  <g
     transform="translate(-118.95126,-31.208818)"
     id="layer1">
    <g
       transform="matrix(0.26458333,0,0,0.26458333,120.36632,-201.93337)"
       id="g5354">
      <rect
         style="opacity:0.3;fill:none;stroke:none"
         id="rect7026"
         width="18"
         height="18"
         x="0"
         y="866.36218" />
      <g
         transform="translate(-93.625326,53.056688)"
         id="g5663">
        <rect
           style="fill:none;stroke:none"
           id="rect4844"
           width="18"
           height="18"
           x="102"
           y="812.36218" />
        <g
           id="g1610"
           transform="matrix(3.7795276,0,0,3.7795276,-40.722893,530.59099)">
          <g
             id="g7319"
             transform="matrix(0.26458333,0,0,0.26458333,24.606248,-145.74375)">
            <path
               style="color:#000000;display:inline;overflow:visible;visibility:visible;opacity:0.3;fill:#ffffff;stroke:#ffffff;stroke-width:2;stroke-linecap:round;stroke-linejoin:round;stroke-miterlimit:4;stroke-dasharray:none;stroke-dashoffset:0;stroke-opacity:1;marker:none;enable-background:accumulate"
               d="m 45.5,850.3622 -2.5,4 -1.5,-2 c -0.53852,0.9467 -2.5,3.0625 -2.5,5.5 0,3.5899 2.91015,6.5 6.5,6.5 3.58985,0 6.5,-2.9101 6.5,-6.5 0,-2.4375 -1.96148,-4.5533 -2.5,-5.5 l -1.5,2 z"
               id="path14455" />
            <path
               id="path10041-3-3"
               d="m 45.5,850.3622 -2.5,4 -1.5,-2 c -0.53852,0.9467 -2.5,3.0625 -2.5,5.5 0,3.5899 2.91015,6.5 6.5,6.5 3.58985,0 6.5,-2.9101 6.5,-6.5 0,-2.4375 -1.96148,-4.5533 -2.5,-5.5 l -1.5,2 z m 0,6.5 c 0,0 2.5,2.3687 2.5,4.25 0,0.8125 -0.875,1.75 -2.5,1.75 -1.625,0 -2.5,-0.9375 -2.5,-1.75 0,-1.8168 2.5,-4.25 2.5,-4.25 z"
               style="color:#000000;display:inline;overflow:visible;visibility:visible;fill:#000000;fill-opacity:1;fill-rule:nonzero;stroke:none;stroke-width:2;marker:none;enable-background:accumulate" />
          </g>
          <rect
             style="color:#000000;display:inline;overflow:visible;visibility:visible;opacity:0.5;fill:none;stroke:none;stroke-width:0.52916664;marker:none;enable-background:accumulate"
             id="rect22290-37"
             width="4.7625046"
             height="4.7625079"
             x="34.131241"
             y="78.718742" />
        </g>
      </g>
      <g
         transform="translate(-97.123436,36.007642)"
         id="g5667" />
    </g>
  </g>
</svg>
