<?xml version="1.0" encoding="UTF-8" standalone="no"?>
<svg
   xmlns:dc="http://purl.org/dc/elements/1.1/"
   xmlns:cc="http://creativecommons.org/ns#"
   xmlns:rdf="http://www.w3.org/1999/02/22-rdf-syntax-ns#"
   xmlns:svg="http://www.w3.org/2000/svg"
   xmlns="http://www.w3.org/2000/svg"
   id="svg8"
   version="1.1"
   viewBox="0 0 5.3839531 4.7625051"
   height="4.7625051mm"
   width="5.3839531mm">
  <defs
     id="defs2">
    <pattern
       id="EMFhbasepattern"
       patternUnits="userSpaceOnUse"
       width="6"
       height="6"
       x="0"
       y="0" />
  </defs>
  <metadata
     id="metadata5">
    <rdf:RDF>
      <cc:Work
         rdf:about="">
        <dc:format>image/svg+xml</dc:format>
        <dc:type
           rdf:resource="http://purl.org/dc/dcmitype/StillImage" />
        <dc:title></dc:title>
      </cc:Work>
    </rdf:RDF>
  </metadata>
  <g
     transform="translate(-120.90928,-28.318182)"
     id="layer1">
    <g
       transform="matrix(0.26458333,0,0,0.26458333,120.36632,-201.93337)"
       id="g5354">
      <rect
         style="opacity:0.3;fill:none;stroke:none"
         id="rect7026"
         width="18"
         height="18"
         x="0"
         y="866.36218" />
      <g
         transform="translate(-33.947886,3.8799157)"
         id="g5459">
        <path
           d="M 39.5232,877.00785"
           id="path7847" />
        <path
           style="opacity:0.3;fill:#ffffff;stroke:#ffffff;stroke-width:2;stroke-linejoin:round;stroke-miterlimit:4;stroke-dasharray:none;stroke-opacity:1"
           id="path7883"
           d="m 51.555199,874.66241 -1.316,-3.36432 c -0.24288,-0.63504 -0.77904,-1.15992 -1.79088,-1.15689 H 47 v -1.779 h -4 v 1.779 h -1.44832 c -1.00704,-0.003 -1.54304,0.52185 -1.79088,1.15689 l -1.31616,3.36432 c -0.51824,0.0624 -1.44,0.66752 -1.44464,1.81104 l 10e-7,3.88875 h 1.28608 l -1e-6,1.75109 c -0.0034,1.67504 2.3976,1.65536 2.39488,0 l 1e-6,-1.75109 h 4.32384 4.314079 l -10e-7,1.75109 c 0.0029,1.65536 2.404,1.67504 2.40464,0 l 10e-7,-1.75109 H 53 l -10e-7,-3.88875 c 9.6e-4,-1.14352 -0.92176,-1.74864 -1.4448,-1.81104 z M 39.5232,878.13569 c -0.61424,-1.6e-4 -1.11104,-0.50656 -1.10832,-1.12784 -0.0029,-0.62928 0.49392,-1.136 1.10832,-1.13808 0.61056,0.002 1.10704,0.50896 1.10816,1.13808 -0.0011,0.62128 -0.4976,1.12768 -1.10816,1.12784 z M 40,874.3622 l 0.79938,-2.38123 c 0.12128,-0.3696 0.30688,-0.63744 0.74224,-0.6432 7.45838,0.0244 0.45838,0.0244 6.926379,0 0.4304,0.006 0.616,0.2736 0.74224,0.6432 L 50,874.3622 Z m 10.486559,3.77349 c -0.61568,-1.6e-4 -1.11248,-0.50656 -1.10848,-1.12784 -0.004,-0.62928 0.4928,-1.136 1.10848,-1.13808 0.60944,0.002 1.1056,0.50896 1.10864,1.13808 -0.003,0.62128 -0.49936,1.12768 -1.10864,1.12784 z" />
        <path
           d="m 51.555199,874.66241 -1.316,-3.36432 c -0.24288,-0.63504 -0.77904,-1.15992 -1.79088,-1.15689 H 47 v -1.779 h -4 v 1.779 h -1.44832 c -1.00704,-0.003 -1.54304,0.52185 -1.79088,1.15689 l -1.31616,3.36432 c -0.51824,0.0624 -1.44,0.66752 -1.44464,1.81104 l 10e-7,3.88875 h 1.28608 l -1e-6,1.75109 c -0.0034,1.67504 2.3976,1.65536 2.39488,0 l 1e-6,-1.75109 h 4.32384 4.314079 l -10e-7,1.75109 c 0.0029,1.65536 2.404,1.67504 2.40464,0 l 10e-7,-1.75109 H 53 l -10e-7,-3.88875 c 9.6e-4,-1.14352 -0.92176,-1.74864 -1.4448,-1.81104 z M 39.5232,878.13569 c -0.61424,-1.6e-4 -1.11104,-0.50656 -1.10832,-1.12784 -0.0029,-0.62928 0.49392,-1.136 1.10832,-1.13808 0.61056,0.002 1.10704,0.50896 1.10816,1.13808 -0.0011,0.62128 -0.4976,1.12768 -1.10816,1.12784 z M 40,874.3622 l 0.79938,-2.38123 c 0.12128,-0.3696 0.30688,-0.63744 0.74224,-0.6432 7.45838,0.0244 0.45838,0.0244 6.926379,0 0.4304,0.006 0.616,0.2736 0.74224,0.6432 L 50,874.3622 Z m 10.486559,3.77349 c -0.61568,-1.6e-4 -1.11248,-0.50656 -1.10848,-1.12784 -0.004,-0.62928 0.4928,-1.136 1.10848,-1.13808 0.60944,0.002 1.1056,0.50896 1.10864,1.13808 -0.003,0.62128 -0.49936,1.12768 -1.10864,1.12784 z"
           id="path7849"
           style="fill:#000000;fill-opacity:1" />
        <path
           d="M 50.486559,877.00785"
           id="path7851" />
        <rect
           style="opacity:0.3;fill:none;fill-opacity:1;fill-rule:nonzero;stroke:none;stroke-width:2;stroke-linejoin:round;stroke-miterlimit:4;stroke-dasharray:none;stroke-opacity:1"
           id="rect7885"
           width="18"
           height="18"
           x="36"
           y="866.36218" />
        <path
           id="path15959"
           d="M 56.348799,879.4593" />
      </g>
    </g>
  </g>
</svg>
