<?xml version="1.0" encoding="utf-8"?>
<!-- Generator: Adobe Illustrator 16.0.4, SVG Export Plug-In . SVG Version: 6.00 Build 0)  -->
<!DOCTYPE svg PUBLIC "-//W3C//DTD SVG 1.1//EN" "http://www.w3.org/Graphics/SVG/1.1/DTD/svg11.dtd">
<svg version="1.1" xmlns="http://www.w3.org/2000/svg" xmlns:xlink="http://www.w3.org/1999/xlink" x="0px" y="0px" width="128px"
	 height="128px" viewBox="0 0 128 128" enable-background="new 0 0 128 128" xml:space="preserve">
<g id="Layer_2">
	<rect opacity="0.3" fill="#97DBF2" width="128" height="128"/>
</g>
<g id="Layer_5">
	<path fill="#97DBF2" d="M14.152,99.989L14.152,99.989c0.314,0.002,0.619-0.109,0.856-0.312l0.335-0.307
		c0.199-0.174,0.496-0.178,0.699-0.01l0.334,0.273c0.519,0.422,1.264,0.41,1.77-0.025l0.336-0.305
		c0.198-0.17,0.486-0.174,0.69-0.012l0.344,0.316c0.52,0.416,1.266,0.402,1.77-0.037c0.108-0.092,0.207-0.193,0.315-0.285
		c0.065-0.051,0.139-0.09,0.218-0.113c0.211-0.051,0.433,0.016,0.583,0.172c0.181,0.152,0.374,0.289,0.576,0.412
		c0.157,0.08,0.335,0.111,0.512,0.092l0,0c0.199-0.004,0.357-0.166,0.354-0.365c-0.003-0.199-0.167-0.357-0.365-0.355l0,0
		c-0.178-0.01-0.345-0.09-0.463-0.223l-0.223-0.197c-0.501-0.383-1.199-0.371-1.689,0.025c-0.139,0.104-0.257,0.234-0.395,0.346
		c-0.201,0.182-0.503,0.186-0.709,0.012l-0.254-0.287c-0.521-0.426-1.273-0.414-1.781,0.027c-0.108,0.082-0.196,0.184-0.295,0.275
		c-0.215,0.219-0.569,0.225-0.791,0.012l-0.294-0.297c-0.366-0.307-0.862-0.4-1.314-0.252c-0.262,0.084-0.498,0.236-0.683,0.443
		c-0.119,0.15-0.295,0.242-0.486,0.256l0,0c-0.202,0.018-0.351,0.195-0.334,0.396c0.017,0.199,0.193,0.35,0.395,0.334L14.152,99.989
		z"/>
	<path fill="#97DBF2" d="M17.442,91.999L17.442,91.999c0.314,0.004,0.618-0.107,0.856-0.312l0.335-0.305
		c0.199-0.176,0.496-0.18,0.699-0.01l0.334,0.273c0.519,0.42,1.264,0.41,1.77-0.027l0.336-0.305c0.197-0.168,0.486-0.174,0.69-0.01
		l0.345,0.314c0.52,0.418,1.266,0.402,1.769-0.037c0.109-0.092,0.208-0.191,0.316-0.283c0.065-0.051,0.139-0.09,0.218-0.113
		c0.211-0.051,0.433,0.014,0.583,0.172c0.181,0.15,0.374,0.289,0.576,0.41c0.157,0.082,0.335,0.113,0.511,0.092l0,0
		c0.199-0.002,0.357-0.166,0.354-0.363c-0.003-0.199-0.167-0.359-0.365-0.355l0,0c-0.178-0.01-0.345-0.092-0.463-0.225l-0.223-0.197
		c-0.502-0.381-1.199-0.371-1.689,0.025c-0.139,0.104-0.257,0.236-0.395,0.348c-0.201,0.18-0.503,0.186-0.709,0.01l-0.254-0.285
		c-0.521-0.428-1.273-0.416-1.781,0.025c-0.108,0.084-0.197,0.184-0.295,0.275c-0.215,0.221-0.569,0.225-0.791,0.012l-0.293-0.295
		c-0.366-0.307-0.862-0.402-1.314-0.252c-0.262,0.084-0.499,0.236-0.683,0.441c-0.119,0.15-0.295,0.244-0.487,0.258l0,0
		c-0.202,0.016-0.351,0.193-0.333,0.395c0.017,0.201,0.192,0.352,0.395,0.334L17.442,91.999z"/>
	<path fill="#97DBF2" d="M4.865,95.509L4.865,95.509c0.314,0.002,0.619-0.109,0.856-0.314l0.335-0.305
		c0.199-0.174,0.496-0.178,0.699-0.01l0.334,0.273c0.52,0.422,1.264,0.41,1.77-0.025l0.336-0.305c0.198-0.17,0.487-0.174,0.69-0.012
		l0.344,0.316c0.52,0.416,1.266,0.402,1.77-0.037c0.108-0.092,0.207-0.193,0.315-0.285c0.065-0.051,0.139-0.09,0.219-0.113
		c0.21-0.051,0.432,0.016,0.583,0.172c0.181,0.152,0.374,0.289,0.576,0.412c0.157,0.08,0.335,0.111,0.512,0.092l0,0
		c0.199-0.004,0.357-0.168,0.354-0.365c-0.003-0.199-0.167-0.357-0.365-0.355l0,0c-0.179-0.01-0.345-0.09-0.463-0.223l-0.224-0.197
		c-0.501-0.383-1.199-0.371-1.689,0.025c-0.139,0.104-0.257,0.234-0.395,0.346c-0.201,0.182-0.503,0.186-0.709,0.012l-0.254-0.287
		c-0.521-0.426-1.273-0.414-1.781,0.027c-0.108,0.082-0.196,0.184-0.295,0.273c-0.215,0.221-0.569,0.227-0.791,0.014l-0.293-0.297
		c-0.366-0.307-0.863-0.4-1.315-0.252c-0.262,0.084-0.498,0.236-0.683,0.443c-0.119,0.15-0.295,0.242-0.486,0.256l0,0
		c-0.202,0.018-0.351,0.195-0.334,0.395c0.017,0.201,0.193,0.352,0.395,0.334L4.865,95.509z"/>
	<path fill="#97DBF2" d="M46.152,78.414L46.152,78.414c0.314,0.004,0.619-0.107,0.856-0.312l0.335-0.305
		c0.199-0.176,0.496-0.18,0.699-0.01l0.334,0.273c0.519,0.422,1.264,0.41,1.77-0.027l0.336-0.305c0.198-0.168,0.486-0.172,0.69-0.01
		l0.344,0.314c0.52,0.418,1.266,0.402,1.77-0.037c0.108-0.092,0.207-0.191,0.315-0.283c0.065-0.051,0.139-0.09,0.218-0.113
		c0.211-0.051,0.433,0.014,0.583,0.172c0.181,0.15,0.374,0.289,0.576,0.41c0.157,0.082,0.335,0.113,0.512,0.092l0,0
		c0.199-0.002,0.357-0.166,0.354-0.363c-0.003-0.199-0.167-0.359-0.365-0.355l0,0c-0.178-0.01-0.345-0.092-0.463-0.225l-0.223-0.197
		c-0.501-0.381-1.199-0.371-1.689,0.025c-0.139,0.104-0.257,0.236-0.395,0.348c-0.201,0.18-0.503,0.186-0.709,0.01l-0.254-0.285
		c-0.521-0.426-1.273-0.416-1.781,0.025c-0.108,0.084-0.196,0.184-0.295,0.275c-0.215,0.221-0.569,0.225-0.791,0.012l-0.294-0.295
		c-0.366-0.307-0.862-0.402-1.314-0.252c-0.262,0.084-0.498,0.236-0.683,0.441c-0.119,0.15-0.295,0.244-0.486,0.258l0,0
		c-0.202,0.016-0.351,0.193-0.334,0.395s0.193,0.352,0.395,0.334L46.152,78.414z"/>
	<path fill="#97DBF2" d="M49.442,70.426L49.442,70.426c0.314,0.002,0.618-0.109,0.856-0.314l0.335-0.305
		c0.199-0.174,0.496-0.178,0.699-0.01l0.334,0.273c0.519,0.422,1.264,0.41,1.77-0.025l0.336-0.305
		c0.197-0.17,0.486-0.174,0.69-0.012l0.345,0.316c0.52,0.416,1.266,0.402,1.769-0.037c0.109-0.092,0.208-0.193,0.316-0.285
		c0.065-0.051,0.139-0.09,0.218-0.113c0.211-0.051,0.433,0.016,0.583,0.172c0.181,0.152,0.374,0.289,0.576,0.412
		c0.157,0.08,0.335,0.111,0.511,0.092l0,0c0.199-0.004,0.357-0.166,0.354-0.365s-0.167-0.357-0.365-0.355l0,0
		c-0.178-0.01-0.345-0.09-0.463-0.223l-0.223-0.197c-0.502-0.383-1.199-0.371-1.689,0.025c-0.139,0.104-0.257,0.234-0.395,0.346
		c-0.201,0.182-0.503,0.186-0.709,0.012l-0.254-0.287c-0.521-0.426-1.273-0.414-1.781,0.027c-0.108,0.082-0.197,0.184-0.295,0.273
		c-0.215,0.221-0.569,0.227-0.791,0.014l-0.293-0.297c-0.366-0.307-0.862-0.4-1.314-0.252c-0.262,0.084-0.499,0.236-0.683,0.443
		c-0.119,0.15-0.295,0.242-0.487,0.256l0,0c-0.202,0.018-0.351,0.195-0.333,0.396c0.017,0.199,0.192,0.35,0.395,0.332L49.442,70.426
		z"/>
	<path fill="#97DBF2" d="M36.865,73.934L36.865,73.934c0.314,0.004,0.619-0.107,0.856-0.312l0.335-0.305
		c0.199-0.176,0.496-0.18,0.699-0.012l0.334,0.275c0.52,0.42,1.264,0.41,1.77-0.027l0.336-0.305c0.198-0.168,0.487-0.174,0.69-0.01
		l0.344,0.314c0.52,0.418,1.266,0.402,1.77-0.037c0.108-0.092,0.207-0.191,0.315-0.283c0.065-0.051,0.139-0.09,0.219-0.113
		c0.21-0.051,0.432,0.014,0.583,0.172c0.181,0.15,0.374,0.289,0.576,0.41c0.157,0.08,0.335,0.113,0.512,0.092l0,0
		c0.199-0.002,0.357-0.166,0.354-0.365c-0.003-0.197-0.167-0.357-0.365-0.354l0,0c-0.179-0.01-0.345-0.092-0.463-0.225l-0.224-0.197
		c-0.501-0.381-1.199-0.371-1.689,0.025c-0.139,0.104-0.257,0.236-0.395,0.348c-0.201,0.18-0.503,0.184-0.709,0.01l-0.254-0.287
		c-0.521-0.426-1.273-0.414-1.781,0.027c-0.108,0.084-0.196,0.184-0.295,0.275c-0.215,0.221-0.569,0.225-0.791,0.012l-0.293-0.295
		c-0.366-0.307-0.863-0.402-1.315-0.252c-0.262,0.084-0.498,0.236-0.683,0.441c-0.119,0.15-0.295,0.244-0.486,0.258l0,0
		c-0.202,0.016-0.351,0.193-0.334,0.395s0.193,0.352,0.395,0.334L36.865,73.934z"/>
	<path fill="#97DBF2" d="M77.673,35.344L77.673,35.344c0.314,0.004,0.618-0.107,0.855-0.312l0.336-0.305
		c0.199-0.175,0.496-0.18,0.699-0.01l0.334,0.273c0.52,0.422,1.264,0.41,1.77-0.026l0.336-0.305
		c0.198-0.169,0.486-0.173,0.691-0.011l0.344,0.315c0.52,0.417,1.266,0.401,1.77-0.038c0.108-0.091,0.207-0.191,0.315-0.283
		c0.065-0.051,0.14-0.09,0.218-0.113c0.211-0.051,0.434,0.015,0.584,0.172c0.181,0.151,0.373,0.289,0.576,0.41
		c0.156,0.082,0.335,0.113,0.512,0.093l0,0c0.198-0.003,0.357-0.167,0.354-0.364c-0.003-0.199-0.166-0.358-0.365-0.355l0,0
		c-0.178-0.01-0.345-0.091-0.463-0.224l-0.224-0.198c-0.501-0.381-1.199-0.37-1.689,0.025c-0.139,0.104-0.257,0.236-0.396,0.348
		c-0.2,0.18-0.503,0.186-0.709,0.01l-0.254-0.285c-0.521-0.426-1.273-0.415-1.781,0.025c-0.107,0.084-0.196,0.185-0.295,0.275
		c-0.215,0.221-0.568,0.226-0.791,0.012l-0.293-0.295c-0.366-0.307-0.863-0.401-1.314-0.252c-0.263,0.084-0.498,0.236-0.684,0.441
		c-0.119,0.15-0.295,0.244-0.486,0.258l0,0c-0.201,0.017-0.35,0.193-0.334,0.395c0.018,0.201,0.193,0.352,0.395,0.334L77.673,35.344
		z"/>
	<path fill="#97DBF2" d="M80.963,27.355L80.963,27.355c0.314,0.002,0.618-0.108,0.856-0.313l0.336-0.305
		c0.198-0.175,0.495-0.179,0.699-0.011l0.334,0.274c0.519,0.421,1.264,0.41,1.77-0.026l0.336-0.305
		c0.197-0.17,0.486-0.174,0.689-0.011l0.346,0.315c0.52,0.417,1.266,0.402,1.769-0.037c0.108-0.092,0.208-0.193,0.315-0.284
		c0.065-0.051,0.14-0.091,0.219-0.114c0.211-0.05,0.433,0.016,0.583,0.172c0.181,0.152,0.374,0.29,0.576,0.412
		c0.157,0.08,0.335,0.111,0.511,0.092l0,0c0.199-0.004,0.357-0.166,0.355-0.365c-0.004-0.199-0.167-0.357-0.365-0.354l0,0
		c-0.179-0.011-0.346-0.091-0.464-0.224l-0.224-0.197c-0.502-0.382-1.199-0.371-1.689,0.025c-0.139,0.104-0.256,0.234-0.395,0.346
		c-0.201,0.182-0.504,0.186-0.709,0.012l-0.255-0.287c-0.521-0.426-1.272-0.414-1.78,0.027c-0.109,0.082-0.197,0.184-0.295,0.274
		c-0.216,0.22-0.569,0.226-0.791,0.013l-0.294-0.296c-0.366-0.308-0.862-0.401-1.314-0.252c-0.263,0.084-0.499,0.235-0.683,0.442
		c-0.119,0.15-0.295,0.243-0.486,0.257l0,0c-0.202,0.017-0.352,0.194-0.334,0.396c0.017,0.2,0.192,0.35,0.395,0.333L80.963,27.355z"
		/>
	<path fill="#97DBF2" d="M68.386,30.863L68.386,30.863c0.314,0.004,0.618-0.107,0.855-0.312l0.336-0.305
		c0.199-0.175,0.496-0.18,0.699-0.011l0.334,0.274c0.52,0.421,1.264,0.41,1.77-0.026l0.336-0.306
		c0.198-0.168,0.487-0.173,0.691-0.01l0.344,0.315c0.52,0.417,1.266,0.401,1.77-0.038c0.108-0.091,0.207-0.191,0.315-0.283
		c0.065-0.051,0.14-0.09,0.219-0.113c0.21-0.051,0.433,0.014,0.583,0.172c0.181,0.15,0.373,0.289,0.576,0.41
		c0.156,0.081,0.335,0.113,0.512,0.092l0,0c0.198-0.002,0.357-0.166,0.354-0.364c-0.003-0.198-0.166-0.357-0.365-0.354l0,0
		c-0.178-0.01-0.345-0.091-0.463-0.224l-0.224-0.198c-0.501-0.381-1.199-0.371-1.689,0.025c-0.139,0.104-0.257,0.236-0.396,0.348
		c-0.2,0.18-0.503,0.185-0.709,0.01l-0.254-0.286c-0.521-0.426-1.273-0.415-1.781,0.026c-0.107,0.084-0.196,0.184-0.295,0.275
		c-0.215,0.221-0.568,0.226-0.791,0.012l-0.293-0.295c-0.366-0.307-0.863-0.401-1.314-0.252c-0.263,0.084-0.498,0.236-0.684,0.441
		c-0.119,0.15-0.295,0.244-0.486,0.258l0,0c-0.201,0.017-0.35,0.193-0.334,0.395c0.018,0.201,0.193,0.352,0.395,0.334L68.386,30.863
		z"/>
	<path fill="#97DBF2" d="M109.673,13.813L109.673,13.813c0.314,0.003,0.618-0.108,0.855-0.312l0.336-0.305
		c0.199-0.175,0.496-0.179,0.699-0.01l0.334,0.274c0.52,0.421,1.264,0.41,1.77-0.026l0.336-0.305
		c0.198-0.169,0.486-0.173,0.691-0.011l0.344,0.315c0.52,0.417,1.266,0.402,1.77-0.038c0.108-0.091,0.207-0.192,0.315-0.284
		c0.065-0.051,0.14-0.09,0.218-0.114c0.211-0.05,0.434,0.015,0.584,0.172c0.181,0.152,0.373,0.29,0.576,0.411
		c0.156,0.081,0.335,0.112,0.512,0.092l0,0c0.198-0.003,0.357-0.167,0.354-0.365c-0.003-0.199-0.166-0.358-0.365-0.355l0,0
		c-0.178-0.01-0.345-0.091-0.463-0.224l-0.224-0.198c-0.501-0.381-1.199-0.371-1.689,0.025c-0.139,0.104-0.257,0.235-0.396,0.347
		c-0.2,0.181-0.503,0.186-0.709,0.011l-0.254-0.286c-0.521-0.426-1.273-0.415-1.781,0.026c-0.107,0.083-0.196,0.184-0.295,0.275
		c-0.215,0.22-0.568,0.225-0.791,0.012l-0.293-0.295c-0.366-0.307-0.863-0.401-1.314-0.252c-0.263,0.084-0.498,0.236-0.684,0.442
		c-0.119,0.15-0.295,0.244-0.486,0.257l0,0c-0.201,0.017-0.35,0.194-0.334,0.395c0.018,0.201,0.193,0.351,0.395,0.334
		L109.673,13.813z"/>
	<path fill="#97DBF2" d="M112.963,5.824L112.963,5.824c0.314,0.003,0.618-0.108,0.856-0.313l0.336-0.305
		c0.198-0.175,0.495-0.179,0.699-0.01l0.334,0.274c0.519,0.421,1.264,0.41,1.77-0.026l0.336-0.305
		c0.197-0.169,0.486-0.173,0.689-0.01l0.346,0.315c0.52,0.417,1.266,0.402,1.769-0.038c0.108-0.091,0.208-0.192,0.315-0.284
		c0.065-0.051,0.14-0.09,0.219-0.114c0.211-0.05,0.433,0.015,0.583,0.172c0.181,0.151,0.374,0.29,0.576,0.411
		c0.157,0.081,0.335,0.112,0.511,0.092l0,0c0.199-0.003,0.357-0.167,0.355-0.365c-0.004-0.199-0.167-0.358-0.365-0.355l0,0
		c-0.179-0.01-0.346-0.091-0.464-0.224l-0.224-0.198c-0.502-0.381-1.199-0.371-1.689,0.025c-0.139,0.104-0.256,0.235-0.395,0.347
		c-0.201,0.181-0.504,0.186-0.709,0.011l-0.255-0.286c-0.521-0.426-1.272-0.415-1.78,0.026c-0.109,0.083-0.197,0.184-0.295,0.275
		c-0.216,0.22-0.569,0.226-0.791,0.012l-0.294-0.295c-0.366-0.307-0.862-0.401-1.314-0.252c-0.263,0.084-0.499,0.236-0.683,0.442
		c-0.119,0.15-0.295,0.244-0.486,0.257l0,0c-0.202,0.017-0.352,0.194-0.334,0.395c0.017,0.201,0.192,0.351,0.395,0.333
		L112.963,5.824z"/>
	<path fill="#97DBF2" d="M100.386,9.333L100.386,9.333c0.314,0.003,0.618-0.108,0.855-0.313l0.336-0.305
		c0.199-0.175,0.496-0.179,0.699-0.011l0.334,0.274c0.52,0.421,1.264,0.41,1.77-0.026l0.336-0.305
		c0.198-0.169,0.487-0.173,0.691-0.01l0.344,0.315c0.52,0.417,1.266,0.402,1.77-0.038c0.108-0.091,0.207-0.192,0.315-0.284
		c0.065-0.051,0.14-0.09,0.219-0.113c0.21-0.05,0.433,0.015,0.583,0.172c0.181,0.151,0.373,0.289,0.576,0.411
		c0.156,0.081,0.335,0.112,0.512,0.092l0,0c0.198-0.003,0.357-0.167,0.354-0.365c-0.003-0.199-0.166-0.357-0.365-0.354l0,0
		c-0.178-0.01-0.345-0.091-0.463-0.224l-0.224-0.198c-0.501-0.381-1.199-0.371-1.689,0.025c-0.139,0.104-0.257,0.235-0.396,0.347
		c-0.2,0.181-0.503,0.185-0.709,0.011l-0.254-0.287c-0.521-0.426-1.273-0.415-1.781,0.027c-0.107,0.083-0.196,0.184-0.295,0.275
		c-0.215,0.22-0.568,0.226-0.791,0.012l-0.293-0.295c-0.366-0.307-0.863-0.401-1.314-0.252c-0.263,0.084-0.498,0.236-0.684,0.442
		c-0.119,0.15-0.295,0.244-0.486,0.257l0,0c-0.201,0.017-0.35,0.194-0.334,0.395c0.018,0.201,0.193,0.351,0.395,0.334L100.386,9.333
		z"/>
</g>
<g id="Layer_4">
	<path fill="#97DBF2" d="M13.672,36.033L13.672,36.033c0.314,0.004,0.619-0.107,0.856-0.312l0.335-0.305
		c0.199-0.175,0.496-0.18,0.699-0.01l0.334,0.273c0.519,0.422,1.264,0.41,1.77-0.026l0.336-0.305
		c0.198-0.169,0.486-0.173,0.69-0.011l0.344,0.315c0.52,0.417,1.266,0.401,1.77-0.038c0.108-0.091,0.207-0.191,0.315-0.283
		c0.065-0.051,0.139-0.09,0.218-0.113c0.211-0.051,0.433,0.015,0.583,0.172c0.181,0.151,0.374,0.289,0.576,0.41
		c0.157,0.082,0.335,0.113,0.512,0.093l0,0c0.199-0.003,0.357-0.167,0.354-0.364c-0.003-0.199-0.167-0.358-0.365-0.355l0,0
		c-0.178-0.01-0.345-0.091-0.463-0.224l-0.223-0.198c-0.501-0.381-1.199-0.37-1.689,0.025c-0.139,0.104-0.257,0.236-0.395,0.348
		c-0.201,0.18-0.503,0.186-0.709,0.01l-0.254-0.285c-0.521-0.426-1.273-0.415-1.781,0.025c-0.108,0.084-0.196,0.185-0.295,0.275
		c-0.215,0.221-0.569,0.226-0.791,0.012l-0.294-0.295c-0.366-0.307-0.862-0.401-1.314-0.252c-0.262,0.084-0.498,0.236-0.683,0.441
		c-0.119,0.15-0.295,0.244-0.486,0.258l0,0c-0.202,0.017-0.351,0.193-0.334,0.395s0.193,0.352,0.395,0.334L13.672,36.033z"/>
	<path fill="#97DBF2" d="M16.963,28.045L16.963,28.045c0.314,0.002,0.618-0.108,0.856-0.313l0.335-0.305
		c0.199-0.175,0.496-0.179,0.699-0.011l0.334,0.274c0.519,0.421,1.264,0.41,1.77-0.026l0.336-0.305
		c0.197-0.17,0.486-0.174,0.69-0.011l0.345,0.315c0.52,0.417,1.266,0.402,1.769-0.037c0.109-0.092,0.208-0.193,0.316-0.284
		c0.065-0.051,0.139-0.091,0.218-0.114c0.211-0.05,0.433,0.016,0.583,0.172c0.181,0.152,0.374,0.29,0.576,0.412
		c0.157,0.08,0.335,0.111,0.511,0.092l0,0c0.199-0.004,0.357-0.166,0.354-0.365s-0.167-0.357-0.365-0.354l0,0
		c-0.178-0.011-0.345-0.091-0.463-0.224l-0.223-0.197c-0.502-0.382-1.199-0.371-1.689,0.025c-0.139,0.104-0.257,0.234-0.395,0.346
		c-0.201,0.182-0.503,0.186-0.709,0.012l-0.254-0.287c-0.521-0.426-1.273-0.414-1.781,0.027c-0.108,0.082-0.197,0.184-0.295,0.274
		c-0.215,0.22-0.569,0.226-0.791,0.013l-0.293-0.296c-0.366-0.308-0.862-0.401-1.314-0.252c-0.262,0.084-0.499,0.235-0.683,0.442
		c-0.119,0.15-0.295,0.243-0.487,0.257l0,0c-0.202,0.017-0.351,0.194-0.333,0.396c0.017,0.2,0.192,0.35,0.395,0.333L16.963,28.045z"
		/>
	<path fill="#97DBF2" d="M4.385,31.553L4.385,31.553c0.314,0.004,0.619-0.107,0.856-0.312l0.335-0.305
		c0.199-0.175,0.496-0.18,0.699-0.011l0.334,0.274c0.52,0.421,1.264,0.41,1.77-0.026l0.336-0.306c0.198-0.168,0.487-0.173,0.69-0.01
		l0.344,0.315c0.52,0.417,1.266,0.401,1.77-0.038c0.108-0.091,0.207-0.191,0.315-0.283c0.065-0.051,0.139-0.09,0.219-0.113
		c0.21-0.051,0.432,0.014,0.583,0.172c0.181,0.15,0.374,0.289,0.576,0.41c0.157,0.081,0.335,0.113,0.512,0.092l0,0
		c0.199-0.002,0.357-0.166,0.354-0.364c-0.003-0.198-0.167-0.357-0.365-0.354l0,0c-0.179-0.01-0.345-0.091-0.463-0.224l-0.224-0.198
		c-0.501-0.381-1.199-0.371-1.689,0.025c-0.139,0.104-0.257,0.236-0.395,0.348c-0.201,0.18-0.503,0.185-0.709,0.01l-0.254-0.286
		c-0.521-0.426-1.273-0.415-1.781,0.026c-0.108,0.084-0.196,0.184-0.295,0.275c-0.215,0.221-0.569,0.226-0.791,0.012l-0.293-0.295
		c-0.366-0.307-0.863-0.401-1.315-0.252c-0.262,0.084-0.498,0.236-0.683,0.441c-0.119,0.15-0.295,0.244-0.486,0.258l0,0
		c-0.202,0.017-0.351,0.193-0.334,0.395s0.193,0.352,0.395,0.334L4.385,31.553z"/>
	<path fill="#97DBF2" d="M45.673,14.459L45.673,14.459c0.314,0.003,0.618-0.108,0.855-0.312l0.336-0.305
		c0.199-0.175,0.496-0.179,0.699-0.01l0.334,0.274c0.52,0.421,1.264,0.41,1.77-0.026l0.336-0.305
		c0.198-0.169,0.486-0.173,0.691-0.011l0.344,0.315c0.52,0.417,1.266,0.402,1.77-0.038c0.108-0.091,0.207-0.192,0.315-0.284
		c0.065-0.051,0.14-0.09,0.218-0.114c0.211-0.05,0.434,0.015,0.584,0.172c0.181,0.152,0.373,0.29,0.576,0.411
		c0.156,0.081,0.335,0.112,0.512,0.092l0,0c0.198-0.003,0.357-0.167,0.354-0.365c-0.003-0.199-0.166-0.358-0.365-0.355l0,0
		c-0.178-0.01-0.345-0.091-0.463-0.224l-0.224-0.198c-0.501-0.381-1.199-0.371-1.689,0.025c-0.139,0.104-0.257,0.235-0.396,0.347
		c-0.2,0.181-0.503,0.186-0.709,0.011l-0.254-0.286c-0.521-0.426-1.273-0.415-1.781,0.026c-0.107,0.083-0.196,0.184-0.295,0.275
		c-0.215,0.22-0.568,0.225-0.791,0.012l-0.293-0.295c-0.366-0.307-0.863-0.401-1.314-0.252c-0.263,0.084-0.498,0.236-0.684,0.442
		c-0.119,0.15-0.295,0.244-0.486,0.257l0,0c-0.201,0.017-0.35,0.194-0.334,0.395c0.018,0.201,0.193,0.351,0.395,0.334L45.673,14.459
		z"/>
	<path fill="#97DBF2" d="M48.963,6.47L48.963,6.47c0.314,0.003,0.618-0.108,0.856-0.313l0.336-0.305
		c0.198-0.175,0.495-0.179,0.699-0.01l0.334,0.274c0.519,0.421,1.264,0.41,1.77-0.026l0.336-0.305
		c0.197-0.169,0.486-0.173,0.689-0.01l0.346,0.315c0.52,0.417,1.266,0.402,1.769-0.038c0.108-0.091,0.208-0.192,0.315-0.284
		c0.065-0.051,0.14-0.09,0.219-0.114c0.211-0.05,0.433,0.015,0.583,0.172c0.181,0.151,0.374,0.29,0.576,0.411
		c0.157,0.081,0.335,0.112,0.511,0.092l0,0c0.199-0.003,0.357-0.167,0.355-0.365c-0.004-0.199-0.167-0.358-0.365-0.355l0,0
		c-0.179-0.01-0.346-0.091-0.464-0.224l-0.224-0.198c-0.502-0.381-1.199-0.371-1.689,0.025c-0.139,0.104-0.256,0.235-0.395,0.347
		c-0.201,0.181-0.504,0.186-0.709,0.011l-0.255-0.286c-0.521-0.426-1.272-0.415-1.78,0.026c-0.109,0.083-0.197,0.184-0.295,0.275
		c-0.216,0.22-0.569,0.226-0.791,0.012l-0.294-0.295c-0.366-0.307-0.862-0.401-1.314-0.252c-0.263,0.084-0.499,0.236-0.683,0.442
		c-0.119,0.15-0.295,0.244-0.486,0.257l0,0c-0.202,0.017-0.352,0.194-0.334,0.395c0.017,0.201,0.192,0.351,0.395,0.333L48.963,6.47z
		"/>
	<path fill="#97DBF2" d="M36.386,9.979L36.386,9.979c0.314,0.003,0.618-0.108,0.855-0.313l0.336-0.305
		c0.199-0.175,0.496-0.179,0.699-0.011l0.334,0.274c0.52,0.421,1.264,0.41,1.77-0.026l0.336-0.305
		c0.198-0.169,0.487-0.173,0.691-0.01l0.344,0.315c0.52,0.417,1.266,0.402,1.77-0.038c0.108-0.091,0.207-0.192,0.315-0.284
		c0.065-0.051,0.14-0.09,0.219-0.113c0.21-0.05,0.433,0.015,0.583,0.172c0.181,0.151,0.373,0.289,0.576,0.411
		c0.156,0.081,0.335,0.112,0.512,0.092l0,0c0.198-0.003,0.357-0.167,0.354-0.365c-0.003-0.199-0.166-0.357-0.365-0.354l0,0
		c-0.178-0.01-0.345-0.091-0.463-0.224l-0.224-0.198c-0.501-0.381-1.199-0.371-1.689,0.025c-0.139,0.104-0.257,0.235-0.396,0.347
		c-0.2,0.181-0.503,0.185-0.709,0.011l-0.254-0.287c-0.521-0.426-1.273-0.415-1.781,0.027c-0.107,0.083-0.196,0.184-0.295,0.275
		c-0.215,0.22-0.568,0.226-0.791,0.012l-0.293-0.295c-0.366-0.307-0.863-0.401-1.314-0.252c-0.263,0.084-0.498,0.236-0.684,0.442
		c-0.119,0.15-0.295,0.244-0.486,0.257l0,0c-0.201,0.017-0.35,0.194-0.334,0.395c0.018,0.201,0.193,0.351,0.395,0.334L36.386,9.979z
		"/>
	<path fill="#97DBF2" d="M77.673,99.989L77.673,99.989c0.314,0.004,0.618-0.107,0.855-0.312l0.336-0.305
		c0.199-0.174,0.496-0.18,0.699-0.01l0.334,0.273c0.52,0.422,1.264,0.41,1.77-0.025l0.336-0.305c0.198-0.17,0.486-0.174,0.691-0.012
		l0.344,0.316c0.52,0.416,1.266,0.4,1.77-0.039c0.108-0.09,0.207-0.191,0.315-0.283c0.065-0.051,0.14-0.09,0.218-0.113
		c0.211-0.051,0.434,0.016,0.584,0.172c0.181,0.152,0.373,0.289,0.576,0.41c0.156,0.082,0.335,0.113,0.512,0.094l0,0
		c0.198-0.004,0.357-0.168,0.354-0.365c-0.003-0.199-0.166-0.357-0.365-0.355l0,0c-0.178-0.01-0.345-0.09-0.463-0.223l-0.224-0.199
		c-0.501-0.381-1.199-0.369-1.689,0.025c-0.139,0.104-0.257,0.236-0.396,0.348c-0.2,0.18-0.503,0.186-0.709,0.01l-0.254-0.285
		c-0.521-0.426-1.273-0.414-1.781,0.025c-0.107,0.084-0.196,0.186-0.295,0.275c-0.215,0.221-0.568,0.227-0.791,0.012l-0.293-0.295
		c-0.366-0.307-0.863-0.4-1.314-0.252c-0.263,0.084-0.498,0.236-0.684,0.441c-0.119,0.15-0.295,0.244-0.486,0.258l0,0
		c-0.201,0.018-0.35,0.193-0.334,0.395c0.018,0.201,0.193,0.352,0.395,0.334L77.673,99.989z"/>
	<path fill="#97DBF2" d="M80.963,92.001L80.963,92.001c0.314,0.002,0.618-0.107,0.856-0.312l0.336-0.305
		c0.198-0.176,0.495-0.18,0.699-0.012l0.334,0.275c0.519,0.42,1.264,0.41,1.77-0.027l0.336-0.305c0.197-0.17,0.486-0.174,0.689-0.01
		l0.346,0.314c0.52,0.418,1.266,0.402,1.769-0.037c0.108-0.092,0.208-0.193,0.315-0.283c0.065-0.051,0.14-0.092,0.219-0.115
		c0.211-0.049,0.433,0.016,0.583,0.172c0.181,0.152,0.374,0.291,0.576,0.412c0.157,0.08,0.335,0.111,0.511,0.092l0,0
		c0.199-0.004,0.357-0.166,0.355-0.365c-0.004-0.199-0.167-0.357-0.365-0.354l0,0c-0.179-0.012-0.346-0.092-0.464-0.225
		l-0.224-0.197c-0.502-0.381-1.199-0.371-1.689,0.025c-0.139,0.104-0.256,0.234-0.395,0.346c-0.201,0.182-0.504,0.186-0.709,0.012
		l-0.255-0.287c-0.521-0.426-1.272-0.414-1.78,0.027c-0.109,0.082-0.197,0.184-0.295,0.275c-0.216,0.219-0.569,0.225-0.791,0.012
		l-0.294-0.295c-0.366-0.309-0.862-0.402-1.314-0.252c-0.263,0.084-0.499,0.234-0.683,0.441c-0.119,0.15-0.295,0.244-0.486,0.258
		l0,0c-0.202,0.016-0.352,0.193-0.334,0.395c0.017,0.201,0.192,0.35,0.395,0.334L80.963,92.001z"/>
	<path fill="#97DBF2" d="M68.386,95.509L68.386,95.509c0.314,0.004,0.618-0.107,0.855-0.312l0.336-0.305
		c0.199-0.174,0.496-0.18,0.699-0.01l0.334,0.273c0.52,0.422,1.264,0.41,1.77-0.025l0.336-0.307c0.198-0.168,0.487-0.172,0.691-0.01
		l0.344,0.316c0.52,0.416,1.266,0.4,1.77-0.039c0.108-0.09,0.207-0.191,0.315-0.283c0.065-0.051,0.14-0.09,0.219-0.113
		c0.21-0.051,0.433,0.014,0.583,0.172c0.181,0.15,0.373,0.289,0.576,0.41c0.156,0.082,0.335,0.113,0.512,0.092l0,0
		c0.198-0.002,0.357-0.166,0.354-0.363c-0.003-0.199-0.166-0.357-0.365-0.355l0,0c-0.178-0.01-0.345-0.09-0.463-0.223l-0.224-0.199
		c-0.501-0.381-1.199-0.371-1.689,0.025c-0.139,0.104-0.257,0.236-0.396,0.348c-0.2,0.18-0.503,0.186-0.709,0.01l-0.254-0.285
		c-0.521-0.426-1.273-0.416-1.781,0.025c-0.107,0.084-0.196,0.184-0.295,0.275c-0.215,0.221-0.568,0.227-0.791,0.012l-0.293-0.295
		c-0.366-0.307-0.863-0.4-1.314-0.252c-0.263,0.084-0.498,0.236-0.684,0.441c-0.119,0.15-0.295,0.244-0.486,0.258l0,0
		c-0.201,0.018-0.35,0.193-0.334,0.395c0.018,0.201,0.193,0.352,0.395,0.334L68.386,95.509z"/>
	<path fill="#97DBF2" d="M109.673,78.459L109.673,78.459c0.314,0.004,0.618-0.107,0.855-0.312l0.336-0.305
		c0.199-0.176,0.496-0.18,0.699-0.01l0.334,0.273c0.52,0.422,1.264,0.41,1.77-0.027l0.336-0.305c0.198-0.168,0.486-0.172,0.691-0.01
		l0.344,0.314c0.52,0.418,1.266,0.402,1.77-0.037c0.108-0.092,0.207-0.191,0.315-0.283c0.065-0.051,0.14-0.09,0.218-0.113
		c0.211-0.051,0.434,0.014,0.584,0.172c0.181,0.15,0.373,0.289,0.576,0.41c0.156,0.082,0.335,0.113,0.512,0.092l0,0
		c0.198-0.002,0.357-0.166,0.354-0.363c-0.003-0.199-0.166-0.359-0.365-0.355l0,0c-0.178-0.01-0.345-0.092-0.463-0.225l-0.224-0.197
		c-0.501-0.381-1.199-0.371-1.689,0.025c-0.139,0.104-0.257,0.236-0.396,0.348c-0.2,0.18-0.503,0.186-0.709,0.01l-0.254-0.285
		c-0.521-0.426-1.273-0.416-1.781,0.025c-0.107,0.084-0.196,0.184-0.295,0.275c-0.215,0.221-0.568,0.225-0.791,0.012l-0.293-0.295
		c-0.366-0.307-0.863-0.402-1.314-0.252c-0.263,0.084-0.498,0.236-0.684,0.441c-0.119,0.15-0.295,0.244-0.486,0.258l0,0
		c-0.201,0.016-0.35,0.193-0.334,0.395c0.018,0.201,0.193,0.352,0.395,0.334L109.673,78.459z"/>
	<path fill="#97DBF2" d="M112.963,70.471L112.963,70.471c0.314,0.002,0.618-0.109,0.856-0.314l0.336-0.305
		c0.198-0.174,0.495-0.178,0.699-0.01l0.334,0.273c0.519,0.422,1.264,0.41,1.77-0.025l0.336-0.305
		c0.197-0.17,0.486-0.174,0.689-0.012l0.346,0.316c0.52,0.416,1.266,0.402,1.769-0.037c0.108-0.092,0.208-0.193,0.315-0.285
		c0.065-0.051,0.14-0.09,0.219-0.113c0.211-0.051,0.433,0.016,0.583,0.172c0.181,0.152,0.374,0.289,0.576,0.412
		c0.157,0.08,0.335,0.111,0.511,0.092l0,0c0.199-0.004,0.357-0.166,0.355-0.365c-0.004-0.199-0.167-0.357-0.365-0.355l0,0
		c-0.179-0.01-0.346-0.09-0.464-0.223l-0.224-0.197c-0.502-0.383-1.199-0.371-1.689,0.025c-0.139,0.104-0.256,0.234-0.395,0.346
		c-0.201,0.182-0.504,0.186-0.709,0.012l-0.255-0.287c-0.521-0.426-1.272-0.414-1.78,0.027c-0.109,0.082-0.197,0.184-0.295,0.273
		c-0.216,0.221-0.569,0.227-0.791,0.014l-0.294-0.297c-0.366-0.307-0.862-0.4-1.314-0.252c-0.263,0.084-0.499,0.236-0.683,0.443
		c-0.119,0.15-0.295,0.242-0.486,0.256l0,0c-0.202,0.018-0.352,0.195-0.334,0.396c0.017,0.199,0.192,0.35,0.395,0.332
		L112.963,70.471z"/>
	<path fill="#97DBF2" d="M100.386,73.979L100.386,73.979c0.314,0.004,0.618-0.107,0.855-0.312l0.336-0.305
		c0.199-0.176,0.496-0.18,0.699-0.012l0.334,0.275c0.52,0.42,1.264,0.41,1.77-0.027l0.336-0.305c0.198-0.168,0.487-0.174,0.691-0.01
		l0.344,0.314c0.52,0.418,1.266,0.402,1.77-0.037c0.108-0.092,0.207-0.191,0.315-0.283c0.065-0.051,0.14-0.09,0.219-0.113
		c0.21-0.051,0.433,0.014,0.583,0.172c0.181,0.15,0.373,0.289,0.576,0.41c0.156,0.08,0.335,0.113,0.512,0.092l0,0
		c0.198-0.002,0.357-0.166,0.354-0.365c-0.003-0.197-0.166-0.357-0.365-0.354l0,0c-0.178-0.01-0.345-0.092-0.463-0.225l-0.224-0.197
		c-0.501-0.381-1.199-0.371-1.689,0.025c-0.139,0.104-0.257,0.236-0.396,0.348c-0.2,0.18-0.503,0.184-0.709,0.01l-0.254-0.287
		c-0.521-0.426-1.273-0.414-1.781,0.027c-0.107,0.084-0.196,0.184-0.295,0.275c-0.215,0.221-0.568,0.225-0.791,0.012l-0.293-0.295
		c-0.366-0.307-0.863-0.402-1.314-0.252c-0.263,0.084-0.498,0.236-0.684,0.441c-0.119,0.15-0.295,0.244-0.486,0.258l0,0
		c-0.201,0.016-0.35,0.193-0.334,0.395c0.018,0.201,0.193,0.352,0.395,0.334L100.386,73.979z"/>
	<g>
		<g>
			<g>
				<path fill="#635E20" d="M38.33,35.88c-0.025,0.028-0.5,0.211-0.884,0.78c-0.397,0.571-0.593,1.627-0.774,2.804
					c-0.147,1.155-0.678,2.457-1.464,3.023c-0.39,0.268-0.725,0.446-0.987,0.5c-0.253,0.073-0.4,0.091-0.42,0.043
					c-0.058-0.121,0.48-0.378,1.004-0.967c0.522-0.604,0.786-1.589,0.813-2.726c0.048-1.104,0.105-2.412,0.636-3.38
					c0.542-0.971,1.261-1.319,1.283-1.352c0.201-0.124,0.511,0.082,0.69,0.456S38.453,35.804,38.33,35.88z"/>
			</g>
		</g>
	</g>
	<g>
		<g>
			<g>
				<path fill="#635E20" d="M39.651,36.199c0.003,0.034,0.136,0.194,0.234,0.527c0.048,0.166,0.111,0.364,0.163,0.59
					c0.019,0.231,0.056,0.494,0.052,0.77c-0.025,1.134-0.601,2.334-1.068,3.394c-0.494,1.072-0.703,2.137-0.512,2.959
					c0.199,0.81,0.554,1.317,0.445,1.395c-0.041,0.032-0.164-0.061-0.355-0.258c-0.21-0.185-0.42-0.518-0.645-0.955
					c-0.432-0.9-0.333-2.336,0.069-3.5c0.383-1.188,0.745-2.28,0.684-3.023c-0.038-0.738-0.378-1.14-0.384-1.18
					c-0.073-0.132,0.145-0.436,0.483-0.675S39.531,35.982,39.651,36.199z"/>
			</g>
		</g>
	</g>
	<g>
		<g>
			<g>
				<path fill="#635E20" d="M41.517,34.712c0.019,0.015,0.146,0.114,0.356,0.276c0.188,0.211,0.477,0.468,0.691,0.906
					c0.513,0.877,0.338,2.102,0.14,2.994c-0.215,0.937-0.285,1.753-0.033,2.345c0.252,0.583,0.626,0.914,0.543,1.013
					c-0.037,0.059-0.544-0.084-1.049-0.721c-0.222-0.327-0.445-0.782-0.493-1.28c-0.072-0.493-0.051-1.015-0.021-1.49
					c0.076-0.971,0.038-1.789-0.291-2.18c-0.283-0.424-0.678-0.613-0.702-0.632c-0.099-0.07-0.012-0.42,0.194-0.78
					S41.357,34.601,41.517,34.712z"/>
			</g>
		</g>
	</g>
	<g>
		<g>
			<g>
				<path fill="#635E20" d="M39.665,30.094c0.67,0.013,1.297,2.785,1.319,3.57c0.023,0.791-0.499,1.482-1.165,1.544
					s-1.228-0.561-1.254-1.392C38.539,32.98,38.995,30.081,39.665,30.094z"/>
			</g>
		</g>
	</g>
	<g>
		<path fill="#57AD50" d="M34.18,25.568c1.181,2.166,2.754,4.132,4.329,6.099"/>
		<g>
			<g>
				<path fill="#57AD50" d="M38.509,31.667c-0.519,0.433-3.558-2.503-4.218-3.597c-0.677-1.049-0.698-2.198-0.111-2.502
					c0.602-0.314,1.522,0.218,2.131,1.163C36.875,27.684,39.018,31.243,38.509,31.667z"/>
			</g>
		</g>
	</g>
	<g>
		<path fill="#57AD50" d="M39.099,24.583c0,1.969,0,3.936,0,5.903"/>
		<g>
			<g>
				<path fill="#57AD50" d="M39.099,30.486c-0.669,0-1.212-3.273-1.212-4.208c0-0.936,0.542-1.694,1.212-1.694
					s1.212,0.758,1.212,1.694C40.311,27.213,39.769,30.486,39.099,30.486z"/>
			</g>
		</g>
	</g>
	<g>
		<path fill="#57AD50" d="M44.214,25.764c-1.377,1.575-2.753,2.951-4.132,4.33"/>
		<g>
			<g>
				<path fill="#57AD50" d="M40.082,30.094c-0.466-0.48,1.407-3.23,2.049-3.902c0.645-0.675,1.578-0.867,2.083-0.428
					s0.376,1.36-0.289,2.058C43.257,28.523,40.548,30.575,40.082,30.094z"/>
			</g>
		</g>
	</g>
	<g>
		<path fill="#57AD50" d="M46.379,28.914c-1.376,1.573-3.147,2.361-5.312,2.361"/>
		<g>
			<g>
				<path fill="#57AD50" d="M41.066,31.275c0.004-0.345,0.815-0.631,1.572-1.038c0.771-0.396,1.459-0.926,1.765-1.167
					c0.616-0.429,1.447-0.587,1.976-0.156c0.51,0.409,0.36,1.468-0.583,2.14c-0.439,0.35-1.669,0.844-2.766,0.852
					C41.929,31.935,41.058,31.594,41.066,31.275z"/>
			</g>
		</g>
	</g>
	<g>
		<g>
			<g>
				<path fill="#635E20" d="M54.895,44.172c-0.025,0.028-0.5,0.211-0.884,0.779c-0.397,0.571-0.593,1.628-0.774,2.805
					c-0.147,1.155-0.678,2.456-1.464,3.022c-0.39,0.269-0.725,0.447-0.987,0.501c-0.253,0.073-0.4,0.091-0.42,0.043
					c-0.058-0.121,0.479-0.378,1.004-0.967c0.522-0.604,0.786-1.589,0.813-2.726c0.048-1.104,0.104-2.412,0.636-3.38
					c0.542-0.971,1.261-1.319,1.283-1.353c0.201-0.124,0.511,0.082,0.69,0.456S55.018,44.096,54.895,44.172z"/>
			</g>
		</g>
	</g>
	<g>
		<g>
			<g>
				<path fill="#635E20" d="M56.216,44.49c0.003,0.033,0.136,0.193,0.234,0.526c0.048,0.166,0.111,0.364,0.163,0.591
					c0.019,0.231,0.057,0.494,0.053,0.77c-0.025,1.134-0.601,2.334-1.068,3.394c-0.494,1.072-0.703,2.137-0.512,2.96
					c0.199,0.81,0.554,1.316,0.445,1.395c-0.041,0.032-0.164-0.061-0.355-0.258c-0.21-0.186-0.42-0.519-0.645-0.955
					c-0.432-0.9-0.333-2.337,0.069-3.501c0.383-1.187,0.745-2.279,0.684-3.022c-0.039-0.738-0.378-1.14-0.384-1.181
					c-0.073-0.132,0.145-0.436,0.483-0.675S56.096,44.272,56.216,44.49z"/>
			</g>
		</g>
	</g>
	<g>
		<g>
			<g>
				<path fill="#635E20" d="M58.081,43.004c0.02,0.015,0.147,0.114,0.356,0.276c0.188,0.211,0.478,0.468,0.692,0.906
					c0.513,0.876,0.338,2.101,0.141,2.993c-0.216,0.937-0.285,1.753-0.033,2.344c0.252,0.583,0.626,0.914,0.543,1.014
					c-0.037,0.06-0.544-0.085-1.049-0.722c-0.222-0.327-0.445-0.782-0.493-1.279c-0.072-0.494-0.051-1.015-0.021-1.49
					c0.076-0.971,0.037-1.788-0.291-2.179c-0.283-0.424-0.678-0.613-0.702-0.632c-0.1-0.07-0.012-0.421,0.194-0.78
					C57.625,43.095,57.921,42.893,58.081,43.004z"/>
			</g>
		</g>
	</g>
	<g>
		<g>
			<g>
				<path fill="#635E20" d="M56.229,38.385c0.669,0.013,1.297,2.785,1.32,3.571c0.022,0.791-0.499,1.482-1.166,1.544
					s-1.228-0.561-1.254-1.392C55.104,41.272,55.56,38.372,56.229,38.385z"/>
			</g>
		</g>
	</g>
	<g>
		<path fill="#57AD50" d="M50.745,33.859c1.181,2.166,2.754,4.132,4.329,6.099"/>
		<g>
			<g>
				<path fill="#57AD50" d="M55.074,39.958c-0.519,0.433-3.558-2.503-4.218-3.597c-0.677-1.049-0.698-2.198-0.111-2.502
					c0.602-0.314,1.522,0.218,2.131,1.163C53.44,35.975,55.583,39.534,55.074,39.958z"/>
			</g>
		</g>
	</g>
	<g>
		<path fill="#57AD50" d="M55.664,32.875c0,1.969,0,3.936,0,5.903"/>
		<g>
			<g>
				<path fill="#57AD50" d="M55.664,38.777c-0.669,0-1.212-3.273-1.212-4.208c0-0.936,0.542-1.694,1.212-1.694
					s1.211,0.758,1.211,1.694C56.875,35.504,56.333,38.777,55.664,38.777z"/>
			</g>
		</g>
	</g>
	<g>
		<path fill="#57AD50" d="M60.779,34.055c-1.377,1.575-2.753,2.951-4.132,4.33"/>
		<g>
			<g>
				<path fill="#57AD50" d="M56.647,38.385c-0.466-0.48,1.407-3.23,2.049-3.902c0.646-0.675,1.577-0.867,2.083-0.428
					s0.376,1.36-0.289,2.058C59.822,36.814,57.114,38.866,56.647,38.385z"/>
			</g>
		</g>
	</g>
	<g>
		<path fill="#57AD50" d="M62.944,37.205c-1.377,1.573-3.147,2.361-5.312,2.361"/>
		<g>
			<g>
				<path fill="#57AD50" d="M57.631,39.566c0.004-0.345,0.815-0.631,1.572-1.038c0.771-0.396,1.459-0.926,1.765-1.167
					c0.616-0.429,1.447-0.588,1.976-0.156c0.51,0.409,0.36,1.468-0.583,2.14c-0.44,0.35-1.67,0.845-2.767,0.853
					C58.494,40.226,57.623,39.885,57.631,39.566z"/>
			</g>
		</g>
	</g>
	<g>
		<g>
			<g>
				<path fill="#635E20" d="M102.386,36.469c-0.025,0.029-0.499,0.211-0.884,0.78c-0.397,0.571-0.593,1.628-0.774,2.805
					c-0.146,1.155-0.678,2.456-1.463,3.022c-0.391,0.269-0.725,0.447-0.988,0.501c-0.253,0.073-0.4,0.091-0.42,0.043
					c-0.057-0.121,0.48-0.378,1.005-0.967c0.522-0.604,0.786-1.589,0.813-2.726c0.048-1.104,0.104-2.412,0.637-3.38
					c0.541-0.971,1.26-1.319,1.283-1.352c0.201-0.124,0.51,0.082,0.689,0.456S102.51,36.392,102.386,36.469z"/>
			</g>
		</g>
	</g>
	<g>
		<g>
			<g>
				<path fill="#635E20" d="M103.708,36.788c0.004,0.034,0.136,0.194,0.234,0.527c0.048,0.166,0.11,0.364,0.162,0.59
					c0.02,0.231,0.057,0.494,0.053,0.77c-0.025,1.133-0.601,2.334-1.068,3.393c-0.494,1.072-0.703,2.137-0.512,2.96
					c0.199,0.81,0.555,1.316,0.445,1.395c-0.041,0.032-0.164-0.061-0.355-0.258c-0.211-0.186-0.42-0.519-0.645-0.955
					c-0.432-0.9-0.333-2.337,0.068-3.5c0.383-1.188,0.745-2.28,0.684-3.023c-0.037-0.738-0.377-1.14-0.383-1.18
					c-0.074-0.132,0.145-0.436,0.482-0.675S103.587,36.57,103.708,36.788z"/>
			</g>
		</g>
	</g>
	<g>
		<g>
			<g>
				<path fill="#635E20" d="M105.573,35.301c0.019,0.015,0.146,0.114,0.356,0.276c0.188,0.211,0.477,0.468,0.691,0.906
					c0.513,0.877,0.338,2.102,0.14,2.994c-0.215,0.937-0.285,1.753-0.032,2.345c0.253,0.582,0.626,0.913,0.544,1.013
					c-0.037,0.06-0.545-0.084-1.05-0.722c-0.222-0.326-0.445-0.782-0.493-1.279c-0.072-0.494-0.051-1.015-0.021-1.49
					c0.076-0.971,0.038-1.788-0.29-2.179c-0.283-0.424-0.679-0.613-0.703-0.632c-0.099-0.07-0.012-0.42,0.195-0.78
					C105.116,35.392,105.413,35.189,105.573,35.301z"/>
			</g>
		</g>
	</g>
	<g>
		<g>
			<g>
				<path fill="#635E20" d="M103.722,30.683c0.67,0.013,1.297,2.785,1.318,3.57c0.023,0.791-0.498,1.482-1.164,1.544
					c-0.667,0.062-1.229-0.561-1.254-1.392C102.595,33.569,103.052,30.669,103.722,30.683z"/>
			</g>
		</g>
	</g>
	<g>
		<path fill="#57AD50" d="M98.236,26.156c1.181,2.166,2.754,4.132,4.329,6.099"/>
		<g>
			<g>
				<path fill="#57AD50" d="M102.565,32.255c-0.519,0.433-3.558-2.503-4.218-3.597c-0.677-1.049-0.698-2.198-0.111-2.502
					c0.602-0.314,1.522,0.218,2.132,1.163C100.933,28.272,103.075,31.831,102.565,32.255z"/>
			</g>
		</g>
	</g>
	<g>
		<path fill="#57AD50" d="M103.155,25.172c0,1.969,0,3.936,0,5.903"/>
		<g>
			<g>
				<path fill="#57AD50" d="M103.155,31.075c-0.669,0-1.211-3.273-1.211-4.208c0-0.936,0.542-1.694,1.211-1.694
					c0.67,0,1.213,0.758,1.213,1.694C104.368,27.802,103.825,31.075,103.155,31.075z"/>
			</g>
		</g>
	</g>
	<g>
		<path fill="#57AD50" d="M108.271,26.353c-1.377,1.575-2.754,2.951-4.133,4.33"/>
		<g>
			<g>
				<path fill="#57AD50" d="M104.138,30.683c-0.466-0.48,1.408-3.23,2.05-3.902c0.646-0.675,1.577-0.867,2.083-0.428
					s0.376,1.36-0.289,2.058C107.313,29.111,104.604,31.163,104.138,30.683z"/>
			</g>
		</g>
	</g>
	<g>
		<path fill="#57AD50" d="M110.436,29.502c-1.376,1.573-3.147,2.361-5.312,2.361"/>
		<g>
			<g>
				<path fill="#57AD50" d="M105.123,31.863c0.004-0.345,0.815-0.631,1.571-1.038c0.771-0.396,1.46-0.926,1.766-1.167
					c0.616-0.429,1.447-0.587,1.976-0.156c0.51,0.409,0.36,1.468-0.583,2.14c-0.439,0.35-1.67,0.844-2.766,0.852
					C105.985,32.523,105.114,32.183,105.123,31.863z"/>
			</g>
		</g>
	</g>
	<g>
		<g>
			<g>
				<path fill="#635E20" d="M118.951,44.76c-0.024,0.028-0.499,0.211-0.884,0.779c-0.398,0.571-0.594,1.628-0.774,2.805
					c-0.146,1.155-0.678,2.456-1.464,3.022c-0.39,0.269-0.725,0.447-0.987,0.501c-0.254,0.073-0.4,0.091-0.42,0.043
					c-0.058-0.121,0.479-0.378,1.005-0.967c0.522-0.604,0.785-1.589,0.812-2.726c0.049-1.104,0.105-2.412,0.637-3.38
					c0.542-0.972,1.262-1.319,1.284-1.353c0.201-0.124,0.511,0.082,0.689,0.456S119.075,44.684,118.951,44.76z"/>
			</g>
		</g>
	</g>
	<g>
		<g>
			<g>
				<path fill="#635E20" d="M120.273,45.079c0.003,0.033,0.136,0.193,0.233,0.526c0.049,0.167,0.111,0.364,0.163,0.591
					c0.019,0.231,0.057,0.494,0.052,0.77c-0.024,1.134-0.601,2.334-1.067,3.394c-0.494,1.072-0.703,2.137-0.513,2.96
					c0.199,0.81,0.555,1.316,0.445,1.395c-0.04,0.032-0.164-0.061-0.355-0.258c-0.21-0.186-0.42-0.519-0.645-0.955
					c-0.432-0.9-0.333-2.337,0.068-3.5c0.383-1.188,0.745-2.28,0.685-3.023c-0.038-0.738-0.378-1.14-0.384-1.181
					c-0.073-0.132,0.146-0.436,0.483-0.675S120.152,44.862,120.273,45.079z"/>
			</g>
		</g>
	</g>
	<g>
		<g>
			<g>
				<path fill="#635E20" d="M122.137,43.592c0.019,0.015,0.146,0.113,0.356,0.276c0.188,0.21,0.478,0.468,0.692,0.905
					c0.513,0.877,0.339,2.102,0.141,2.994c-0.216,0.937-0.285,1.753-0.033,2.344c0.252,0.583,0.626,0.914,0.543,1.014
					c-0.037,0.06-0.544-0.085-1.049-0.722c-0.222-0.327-0.445-0.782-0.492-1.279c-0.072-0.494-0.052-1.016-0.021-1.49
					c0.076-0.971,0.038-1.788-0.291-2.179c-0.282-0.424-0.678-0.613-0.702-0.632c-0.099-0.07-0.012-0.421,0.194-0.78
					S121.978,43.481,122.137,43.592z"/>
			</g>
		</g>
	</g>
	<g>
		<g>
			<g>
				<path fill="#635E20" d="M120.286,38.974c0.67,0.013,1.297,2.786,1.319,3.571c0.023,0.791-0.498,1.482-1.165,1.544
					s-1.229-0.562-1.254-1.392C119.16,41.86,119.616,38.96,120.286,38.974z"/>
			</g>
		</g>
	</g>
	<g>
		<path fill="#57AD50" d="M114.801,34.447c1.182,2.166,2.754,4.132,4.33,6.099"/>
		<g>
			<g>
				<path fill="#57AD50" d="M119.131,40.546c-0.519,0.433-3.558-2.503-4.218-3.597c-0.678-1.049-0.699-2.198-0.112-2.502
					c0.602-0.314,1.522,0.218,2.132,1.163C117.497,36.563,119.64,40.122,119.131,40.546z"/>
			</g>
		</g>
	</g>
	<g>
		<path fill="#57AD50" d="M119.721,33.463c0,1.969,0,3.936,0,5.903"/>
		<g>
			<g>
				<path fill="#57AD50" d="M119.721,39.366c-0.67,0-1.212-3.273-1.212-4.208c0-0.936,0.542-1.694,1.212-1.694
					s1.212,0.758,1.212,1.694C120.933,36.093,120.391,39.366,119.721,39.366z"/>
			</g>
		</g>
	</g>
	<g>
		<path fill="#57AD50" d="M124.836,34.644c-1.377,1.575-2.754,2.951-4.133,4.33"/>
		<g>
			<g>
				<path fill="#57AD50" d="M120.703,38.974c-0.467-0.48,1.407-3.23,2.05-3.902c0.646-0.675,1.577-0.867,2.083-0.428
					s0.376,1.36-0.289,2.058C123.879,37.402,121.17,39.454,120.703,38.974z"/>
			</g>
		</g>
	</g>
	<g>
		<path fill="#57AD50" d="M127,37.793c-1.377,1.573-3.146,2.361-5.312,2.361"/>
		<g>
			<g>
				<path fill="#57AD50" d="M121.688,40.154c0.004-0.345,0.815-0.631,1.572-1.038c0.771-0.396,1.459-0.926,1.765-1.167
					c0.616-0.429,1.447-0.588,1.976-0.156c0.51,0.409,0.36,1.468-0.583,2.14c-0.44,0.35-1.67,0.845-2.767,0.853
					C122.55,40.814,121.679,40.474,121.688,40.154z"/>
			</g>
		</g>
	</g>
	<g>
		<g>
			<g>
				<path fill="#635E20" d="M38.303,100.736c-0.025,0.028-0.499,0.211-0.884,0.78c-0.397,0.57-0.593,1.627-0.774,2.804
					c-0.147,1.155-0.678,2.457-1.464,3.022c-0.39,0.269-0.725,0.447-0.987,0.501c-0.253,0.073-0.4,0.091-0.42,0.043
					c-0.058-0.121,0.48-0.378,1.005-0.967c0.522-0.604,0.786-1.589,0.813-2.726c0.048-1.104,0.105-2.412,0.636-3.38
					c0.542-0.971,1.261-1.319,1.283-1.353c0.201-0.123,0.511,0.082,0.69,0.456S38.427,100.66,38.303,100.736z"/>
			</g>
		</g>
	</g>
	<g>
		<g>
			<g>
				<path fill="#635E20" d="M39.625,101.056c0.003,0.033,0.136,0.193,0.234,0.526c0.048,0.166,0.111,0.364,0.163,0.59
					c0.019,0.231,0.056,0.494,0.052,0.771c-0.024,1.134-0.601,2.334-1.068,3.394c-0.494,1.071-0.703,2.137-0.512,2.959
					c0.199,0.81,0.555,1.316,0.445,1.395c-0.041,0.032-0.164-0.061-0.355-0.258c-0.211-0.186-0.42-0.519-0.645-0.955
					c-0.432-0.9-0.333-2.336,0.069-3.5c0.383-1.188,0.745-2.279,0.684-3.023c-0.039-0.737-0.378-1.139-0.384-1.18
					c-0.074-0.132,0.144-0.436,0.482-0.675S39.504,100.838,39.625,101.056z"/>
			</g>
		</g>
	</g>
	<g>
		<g>
			<g>
				<path fill="#635E20" d="M41.491,99.568c0.019,0.015,0.146,0.114,0.356,0.276c0.188,0.211,0.477,0.469,0.691,0.906
					c0.513,0.877,0.337,2.102,0.14,2.993c-0.215,0.937-0.285,1.754-0.032,2.345c0.252,0.582,0.626,0.913,0.543,1.013
					c-0.037,0.06-0.544-0.084-1.05-0.721c-0.222-0.327-0.445-0.782-0.493-1.28c-0.072-0.493-0.051-1.015-0.021-1.489
					c0.076-0.971,0.038-1.789-0.291-2.18c-0.283-0.424-0.678-0.613-0.702-0.632c-0.099-0.07-0.012-0.421,0.194-0.78
					S41.331,99.457,41.491,99.568z"/>
			</g>
		</g>
	</g>
	<g>
		<g>
			<g>
				<path fill="#635E20" d="M39.639,94.95c0.67,0.013,1.297,2.785,1.319,3.57c0.023,0.791-0.499,1.482-1.165,1.544
					s-1.228-0.562-1.254-1.392C38.513,97.837,38.969,94.938,39.639,94.95z"/>
			</g>
		</g>
	</g>
	<g>
		<path fill="#57AD50" d="M34.153,90.424c1.181,2.166,2.754,4.133,4.329,6.1"/>
		<g>
			<g>
				<path fill="#57AD50" d="M38.482,96.523c-0.519,0.433-3.558-2.504-4.218-3.597c-0.677-1.05-0.698-2.198-0.111-2.503
					c0.601-0.314,1.522,0.219,2.131,1.163C36.849,92.54,38.992,96.1,38.482,96.523z"/>
			</g>
		</g>
	</g>
	<g>
		<path fill="#57AD50" d="M39.072,89.439c0,1.969,0,3.936,0,5.902"/>
		<g>
			<g>
				<path fill="#57AD50" d="M39.072,95.342c-0.669,0-1.212-3.272-1.212-4.209c0-0.936,0.542-1.693,1.212-1.693
					s1.212,0.758,1.212,1.693C40.284,92.069,39.742,95.342,39.072,95.342z"/>
			</g>
		</g>
	</g>
	<g>
		<path fill="#57AD50" d="M44.188,90.62c-1.377,1.575-2.754,2.951-4.133,4.33"/>
		<g>
			<g>
				<path fill="#57AD50" d="M40.055,94.95c-0.466-0.48,1.408-3.23,2.05-3.902c0.645-0.675,1.578-0.866,2.083-0.428
					s0.376,1.36-0.289,2.058C43.23,93.379,40.521,95.431,40.055,94.95z"/>
			</g>
		</g>
	</g>
	<g>
		<path fill="#57AD50" d="M46.353,93.77c-1.376,1.572-3.147,2.361-5.312,2.361"/>
		<g>
			<g>
				<path fill="#57AD50" d="M41.04,96.131c0.004-0.346,0.815-0.632,1.572-1.038c0.771-0.396,1.459-0.926,1.765-1.168
					c0.616-0.429,1.447-0.587,1.976-0.155c0.51,0.408,0.36,1.469-0.583,2.14c-0.439,0.351-1.669,0.845-2.766,0.853
					C41.903,96.791,41.031,96.45,41.04,96.131z"/>
			</g>
		</g>
	</g>
	<g>
		<g>
			<g>
				<path fill="#635E20" d="M54.868,109.027c-0.024,0.028-0.499,0.211-0.884,0.779c-0.398,0.571-0.594,1.628-0.774,2.805
					c-0.146,1.155-0.678,2.456-1.464,3.022c-0.39,0.269-0.725,0.447-0.987,0.501c-0.254,0.073-0.4,0.091-0.42,0.043
					c-0.058-0.121,0.479-0.378,1.005-0.967c0.522-0.604,0.785-1.589,0.813-2.726c0.048-1.104,0.104-2.412,0.636-3.38
					c0.542-0.971,1.262-1.319,1.284-1.353c0.201-0.124,0.511,0.082,0.689,0.456S54.992,108.951,54.868,109.027z"/>
			</g>
		</g>
	</g>
	<g>
		<g>
			<g>
				<path fill="#635E20" d="M56.19,109.346c0.003,0.033,0.136,0.193,0.233,0.526c0.048,0.167,0.111,0.364,0.163,0.591
					c0.019,0.231,0.056,0.494,0.052,0.77c-0.024,1.134-0.601,2.334-1.067,3.394c-0.494,1.072-0.703,2.137-0.513,2.96
					c0.199,0.81,0.555,1.316,0.445,1.395c-0.04,0.032-0.164-0.061-0.355-0.258c-0.21-0.186-0.42-0.519-0.645-0.955
					c-0.432-0.9-0.333-2.337,0.069-3.5c0.383-1.188,0.744-2.28,0.684-3.023c-0.038-0.738-0.378-1.14-0.384-1.181
					c-0.073-0.132,0.146-0.436,0.483-0.675S56.069,109.129,56.19,109.346z"/>
			</g>
		</g>
	</g>
	<g>
		<g>
			<g>
				<path fill="#635E20" d="M58.054,107.859c0.019,0.015,0.146,0.113,0.356,0.276c0.188,0.211,0.478,0.468,0.692,0.905
					c0.513,0.877,0.339,2.102,0.141,2.994c-0.216,0.937-0.285,1.753-0.033,2.345c0.252,0.582,0.626,0.913,0.543,1.013
					c-0.037,0.06-0.544-0.084-1.049-0.722c-0.223-0.327-0.445-0.782-0.492-1.279c-0.072-0.494-0.052-1.016-0.021-1.49
					c0.076-0.971,0.038-1.788-0.291-2.179c-0.282-0.424-0.678-0.613-0.702-0.632c-0.099-0.07-0.012-0.421,0.194-0.78
					S57.895,107.748,58.054,107.859z"/>
			</g>
		</g>
	</g>
	<g>
		<g>
			<g>
				<path fill="#635E20" d="M56.203,103.241c0.67,0.013,1.297,2.785,1.319,3.57c0.023,0.791-0.498,1.482-1.165,1.544
					s-1.229-0.562-1.254-1.392C55.077,106.128,55.533,103.229,56.203,103.241z"/>
			</g>
		</g>
	</g>
	<g>
		<path fill="#57AD50" d="M50.718,98.715c1.182,2.166,2.754,4.133,4.33,6.1"/>
		<g>
			<g>
				<path fill="#57AD50" d="M55.048,104.814c-0.519,0.434-3.559-2.504-4.219-3.597c-0.677-1.049-0.698-2.198-0.111-2.503
					c0.602-0.314,1.522,0.218,2.132,1.163C53.414,100.831,55.557,104.39,55.048,104.814z"/>
			</g>
		</g>
	</g>
	<g>
		<path fill="#57AD50" d="M55.638,97.73c0,1.969,0,3.936,0,5.902"/>
		<g>
			<g>
				<path fill="#57AD50" d="M55.638,103.633c-0.67,0-1.212-3.272-1.212-4.208c0-0.937,0.542-1.694,1.212-1.694
					s1.212,0.758,1.212,1.694C56.85,100.36,56.308,103.633,55.638,103.633z"/>
			</g>
		</g>
	</g>
	<g>
		<path fill="#57AD50" d="M60.753,98.911c-1.377,1.575-2.754,2.951-4.133,4.33"/>
		<g>
			<g>
				<path fill="#57AD50" d="M56.62,103.241c-0.467-0.48,1.407-3.23,2.05-3.902c0.645-0.675,1.577-0.866,2.083-0.428
					s0.376,1.36-0.289,2.058C59.796,101.67,57.087,103.722,56.62,103.241z"/>
			</g>
		</g>
	</g>
	<g>
		<path fill="#57AD50" d="M62.917,102.061c-1.377,1.572-3.146,2.361-5.312,2.361"/>
		<g>
			<g>
				<path fill="#57AD50" d="M57.604,104.422c0.004-0.346,0.815-0.632,1.572-1.038c0.771-0.396,1.459-0.926,1.765-1.168
					c0.616-0.429,1.447-0.587,1.976-0.155c0.51,0.409,0.36,1.469-0.583,2.14c-0.44,0.351-1.67,0.845-2.767,0.853
					C58.467,105.082,57.596,104.741,57.604,104.422z"/>
			</g>
		</g>
	</g>
	<g>
		<g>
			<g>
				<path fill="#635E20" d="M102.387,100.469c-0.025,0.028-0.5,0.211-0.885,0.78c-0.397,0.57-0.594,1.627-0.773,2.804
					c-0.147,1.155-0.679,2.457-1.465,3.022c-0.39,0.269-0.725,0.447-0.987,0.501c-0.253,0.073-0.4,0.091-0.42,0.043
					c-0.058-0.121,0.479-0.378,1.005-0.967c0.522-0.604,0.785-1.589,0.813-2.726c0.048-1.104,0.104-2.412,0.636-3.38
					c0.542-0.971,1.262-1.319,1.283-1.353c0.201-0.123,0.512,0.082,0.69,0.456S102.51,100.393,102.387,100.469z"/>
			</g>
		</g>
	</g>
	<g>
		<g>
			<g>
				<path fill="#635E20" d="M103.708,100.788c0.003,0.033,0.136,0.193,0.233,0.526c0.049,0.166,0.111,0.364,0.164,0.59
					c0.019,0.231,0.056,0.494,0.052,0.771c-0.024,1.134-0.601,2.334-1.067,3.394c-0.494,1.071-0.703,2.137-0.513,2.959
					c0.199,0.81,0.555,1.316,0.445,1.395c-0.04,0.032-0.164-0.061-0.354-0.258c-0.211-0.186-0.421-0.519-0.646-0.955
					c-0.433-0.9-0.333-2.336,0.069-3.5c0.383-1.188,0.744-2.279,0.684-3.023c-0.039-0.737-0.379-1.139-0.384-1.18
					c-0.073-0.132,0.144-0.436,0.482-0.675S103.588,100.57,103.708,100.788z"/>
			</g>
		</g>
	</g>
	<g>
		<g>
			<g>
				<path fill="#635E20" d="M105.574,99.301c0.018,0.015,0.146,0.114,0.355,0.276c0.188,0.211,0.477,0.469,0.691,0.906
					c0.514,0.877,0.338,2.102,0.141,2.993c-0.216,0.937-0.285,1.754-0.033,2.345c0.252,0.582,0.627,0.913,0.544,1.013
					c-0.036,0.06-0.544-0.084-1.05-0.721c-0.222-0.327-0.445-0.782-0.492-1.28c-0.072-0.493-0.052-1.015-0.021-1.489
					c0.076-0.971,0.038-1.789-0.291-2.18c-0.282-0.424-0.678-0.613-0.701-0.632c-0.1-0.07-0.012-0.421,0.194-0.78
					S105.414,99.189,105.574,99.301z"/>
			</g>
		</g>
	</g>
	<g>
		<g>
			<g>
				<path fill="#635E20" d="M103.722,94.683c0.67,0.013,1.297,2.785,1.319,3.57c0.023,0.791-0.498,1.482-1.165,1.544
					s-1.228-0.562-1.254-1.392C102.596,97.569,103.052,94.67,103.722,94.683z"/>
			</g>
		</g>
	</g>
	<g>
		<path fill="#57AD50" d="M98.236,90.156c1.181,2.166,2.754,4.133,4.329,6.1"/>
		<g>
			<g>
				<path fill="#57AD50" d="M102.565,96.256c-0.519,0.433-3.558-2.504-4.218-3.597c-0.678-1.05-0.697-2.198-0.111-2.503
					c0.602-0.314,1.522,0.219,2.131,1.163C100.932,92.272,103.074,95.832,102.565,96.256z"/>
			</g>
		</g>
	</g>
	<g>
		<path fill="#57AD50" d="M103.155,89.172c0,1.969,0,3.936,0,5.902"/>
		<g>
			<g>
				<path fill="#57AD50" d="M103.155,95.074c-0.669,0-1.212-3.272-1.212-4.209c0-0.936,0.543-1.693,1.212-1.693
					s1.212,0.758,1.212,1.693C104.367,91.802,103.824,95.074,103.155,95.074z"/>
			</g>
		</g>
	</g>
	<g>
		<path fill="#57AD50" d="M108.271,90.353c-1.377,1.575-2.754,2.951-4.133,4.33"/>
		<g>
			<g>
				<path fill="#57AD50" d="M104.138,94.683c-0.466-0.48,1.407-3.23,2.05-3.902c0.645-0.675,1.578-0.866,2.083-0.428
					s0.376,1.36-0.289,2.058C107.312,93.111,104.604,95.163,104.138,94.683z"/>
			</g>
		</g>
	</g>
	<g>
		<path fill="#57AD50" d="M110.436,93.502c-1.376,1.572-3.147,2.361-5.312,2.361"/>
		<g>
			<g>
				<path fill="#57AD50" d="M105.123,95.863c0.004-0.346,0.814-0.632,1.572-1.038c0.77-0.396,1.459-0.926,1.765-1.168
					c0.616-0.429,1.446-0.587,1.976-0.155c0.51,0.408,0.36,1.469-0.584,2.14c-0.439,0.351-1.668,0.845-2.766,0.853
					C105.986,96.523,105.114,96.183,105.123,95.863z"/>
			</g>
		</g>
	</g>
	<g>
		<g>
			<g>
				<path fill="#635E20" d="M118.951,108.76c-0.024,0.028-0.499,0.211-0.884,0.779c-0.398,0.571-0.594,1.628-0.774,2.805
					c-0.146,1.155-0.678,2.456-1.464,3.022c-0.39,0.269-0.725,0.447-0.987,0.501c-0.254,0.073-0.4,0.091-0.42,0.043
					c-0.058-0.121,0.479-0.378,1.005-0.967c0.522-0.604,0.785-1.589,0.813-2.726c0.048-1.104,0.104-2.412,0.636-3.38
					c0.542-0.971,1.262-1.319,1.284-1.353c0.201-0.124,0.511,0.082,0.689,0.456S119.075,108.684,118.951,108.76z"/>
			</g>
		</g>
	</g>
	<g>
		<g>
			<g>
				<path fill="#635E20" d="M120.273,109.078c0.003,0.033,0.136,0.193,0.233,0.526c0.048,0.167,0.111,0.364,0.163,0.591
					c0.019,0.231,0.056,0.494,0.052,0.77c-0.024,1.134-0.601,2.334-1.067,3.394c-0.494,1.072-0.703,2.137-0.513,2.96
					c0.199,0.81,0.555,1.316,0.445,1.395c-0.04,0.032-0.164-0.061-0.355-0.258c-0.21-0.186-0.42-0.519-0.645-0.955
					c-0.432-0.9-0.333-2.337,0.069-3.5c0.383-1.188,0.744-2.28,0.684-3.023c-0.038-0.738-0.378-1.14-0.384-1.181
					c-0.073-0.132,0.146-0.436,0.483-0.675S120.152,108.861,120.273,109.078z"/>
			</g>
		</g>
	</g>
	<g>
		<g>
			<g>
				<path fill="#635E20" d="M122.137,107.592c0.019,0.015,0.146,0.113,0.356,0.276c0.188,0.211,0.478,0.468,0.692,0.905
					c0.513,0.877,0.339,2.102,0.141,2.994c-0.216,0.937-0.285,1.753-0.033,2.345c0.252,0.582,0.626,0.913,0.543,1.013
					c-0.037,0.06-0.544-0.084-1.049-0.722c-0.223-0.327-0.445-0.782-0.492-1.279c-0.072-0.494-0.052-1.016-0.021-1.49
					c0.076-0.971,0.038-1.788-0.291-2.179c-0.282-0.424-0.678-0.613-0.702-0.632c-0.099-0.07-0.012-0.421,0.194-0.78
					S121.978,107.48,122.137,107.592z"/>
			</g>
		</g>
	</g>
	<g>
		<g>
			<g>
				<path fill="#635E20" d="M120.286,102.974c0.67,0.013,1.297,2.785,1.319,3.57c0.023,0.791-0.498,1.482-1.165,1.544
					s-1.229-0.562-1.254-1.392C119.16,105.86,119.616,102.961,120.286,102.974z"/>
			</g>
		</g>
	</g>
	<g>
		<path fill="#57AD50" d="M114.801,98.447c1.182,2.166,2.754,4.133,4.33,6.1"/>
		<g>
			<g>
				<path fill="#57AD50" d="M119.131,104.547c-0.519,0.434-3.559-2.504-4.219-3.597c-0.677-1.049-0.698-2.198-0.111-2.503
					c0.602-0.314,1.522,0.218,2.132,1.163C117.497,100.563,119.64,104.122,119.131,104.547z"/>
			</g>
		</g>
	</g>
	<g>
		<path fill="#57AD50" d="M119.721,97.463c0,1.969,0,3.936,0,5.902"/>
		<g>
			<g>
				<path fill="#57AD50" d="M119.721,103.365c-0.67,0-1.212-3.272-1.212-4.208c0-0.937,0.542-1.694,1.212-1.694
					s1.212,0.758,1.212,1.694C120.933,100.093,120.391,103.365,119.721,103.365z"/>
			</g>
		</g>
	</g>
	<g>
		<path fill="#57AD50" d="M124.836,98.644c-1.377,1.575-2.754,2.951-4.133,4.33"/>
		<g>
			<g>
				<path fill="#57AD50" d="M120.703,102.974c-0.467-0.48,1.407-3.23,2.05-3.902c0.645-0.675,1.577-0.866,2.083-0.428
					s0.376,1.36-0.289,2.058C123.879,101.402,121.17,103.454,120.703,102.974z"/>
			</g>
		</g>
	</g>
	<g>
		<path fill="#57AD50" d="M127,101.793c-1.377,1.572-3.146,2.361-5.312,2.361"/>
		<g>
			<g>
				<path fill="#57AD50" d="M121.688,104.154c0.004-0.346,0.815-0.632,1.572-1.038c0.771-0.396,1.459-0.926,1.765-1.168
					c0.616-0.429,1.447-0.587,1.976-0.155c0.51,0.409,0.36,1.469-0.583,2.14c-0.44,0.351-1.67,0.845-2.767,0.853
					C122.55,104.814,121.679,104.474,121.688,104.154z"/>
			</g>
		</g>
	</g>
</g>
</svg>
