<?xml version="1.0" encoding="UTF-8" standalone="no"?>
<!-- Created with Inkscape (http://www.inkscape.org/) -->

<svg
   xmlns:osb="http://www.openswatchbook.org/uri/2009/osb"
   xmlns:dc="http://purl.org/dc/elements/1.1/"
   xmlns:cc="http://creativecommons.org/ns#"
   xmlns:rdf="http://www.w3.org/1999/02/22-rdf-syntax-ns#"
   xmlns:svg="http://www.w3.org/2000/svg"
   xmlns="http://www.w3.org/2000/svg"
   xmlns:sodipodi="http://sodipodi.sourceforge.net/DTD/sodipodi-0.dtd"
   xmlns:inkscape="http://www.inkscape.org/namespaces/inkscape"
   id="svg3336"
   version="1.1"
   inkscape:version="0.92.3 (2405546, 2018-03-11)"
   xml:space="preserve"
   width="200"
   height="160"
   viewBox="0 0 200 160"
   sodipodi:docname="eventkit-icon-white.svg"><metadata
     id="metadata3342"><rdf:RDF><cc:Work
         rdf:about=""><dc:format>image/svg+xml</dc:format><dc:type
           rdf:resource="http://purl.org/dc/dcmitype/StillImage" /><dc:title></dc:title></cc:Work></rdf:RDF></metadata><defs
     id="defs3340"><linearGradient
       id="linearGradient6759"
       osb:paint="solid"><stop
         style="stop-color:#000000;stop-opacity:1;"
         offset="0"
         id="stop6757" /></linearGradient><clipPath
       clipPathUnits="userSpaceOnUse"
       id="clipPath3358"><path
         d="m 0,226.411 720.68,0 L 720.68,0 0,0 0,226.411 Z"
         id="path3360"
         inkscape:connector-curvature="0" /></clipPath></defs><sodipodi:namedview
     pagecolor="#ffffff"
     bordercolor="#666666"
     borderopacity="1"
     objecttolerance="10"
     gridtolerance="10"
     guidetolerance="10"
     inkscape:pageopacity="0"
     inkscape:pageshadow="2"
     inkscape:window-width="1656"
     inkscape:window-height="726"
     id="namedview3338"
     showgrid="false"
     inkscape:zoom="0.9796304"
     inkscape:cx="-308.47196"
     inkscape:cy="13.008818"
     inkscape:window-x="1761"
     inkscape:window-y="44"
     inkscape:window-maximized="0"
     inkscape:current-layer="g3344"
     fit-margin-top="0"
     fit-margin-left="0"
     fit-margin-bottom="0"
     fit-margin-right="0"
     inkscape:snap-global="false" /><g
     id="g3344"
     inkscape:groupmode="layer"
     inkscape:label="EventKit-Icon"
     transform="matrix(1.25,0,0,-1.25,-40.736995,216.31109)"><g
       id="g3354"
       transform="matrix(0.99325642,0,0,0.99750758,0.21977046,0.11228041)"
       style="fill:#ffffff;fill-opacity:1"><g
         id="g3356"
         clip-path="url(#clipPath3358)"
         style="fill:#ffffff;fill-opacity:1"><g
           id="g3362"
           transform="translate(397.1682,110.8147)"
           style="fill:#ffffff;fill-opacity:1" /><g
           id="g3366"
           transform="translate(443.8722,99.6556)"
           style="fill:#ffffff;fill-opacity:1" /><g
           id="g3370"
           transform="translate(515.1941,114.6102)"
           style="fill:#ffffff;fill-opacity:1" /><g
           id="g3374"
           transform="translate(542.341,145.5561)"
           style="fill:#ffffff;fill-opacity:1" /><g
           id="g3380"
           transform="translate(667.269,114.6102)"
           style="fill:#ffffff;fill-opacity:1" /><g
           id="g3384"
           transform="translate(191.2135,143.7354)"
           style="fill:#ffffff;fill-opacity:1"><path
             d="m 0,0 -5.659,1.553 -71.74,-38.038 c -0.309,-0.164 -0.68,-0.198 -0.99,-0.035 l -72.146,38.064 -5.604,-1.535 c -0.909,-0.249 -1.063,-1.473 -0.244,-1.939 l 77.772,-44.322 c 0.324,-0.185 0.722,-0.185 1.047,0 L 0.244,-1.939 C 1.062,-1.472 0.908,-0.249 0,0"
             style="fill:#ffffff;fill-opacity:1;fill-rule:nonzero;stroke:none"
             id="path3386"
             inkscape:connector-curvature="0" /></g><g
           id="g3388"
           transform="translate(189.4894,133.8303)"
           style="fill:#ffffff;fill-opacity:1"><path
             d="m 0,0 -5.006,1.513 -70.63,-41.177 c -0.33,-0.192 -0.737,-0.226 -1.067,-0.034 l -70.921,41.311 -5.058,-1.522 c -0.87,-0.262 -1.027,-1.427 -0.256,-1.909 l 76.014,-47.592 c 0.343,-0.214 0.778,-0.215 1.121,0 L 0.254,-1.909 C 1.025,-1.428 0.87,-0.263 0,0"
             style="fill:#ffffff;fill-opacity:1;fill-rule:nonzero;stroke:none"
             id="path3390"
             inkscape:connector-curvature="0" /></g><g
           id="g3392"
           transform="translate(187.6434,123.6636)"
           style="fill:#ffffff;fill-opacity:1"><path
             d="m 0,0 -4.758,1.599 -69.131,-44.19 c -0.347,-0.222 -0.792,-0.287 -1.139,-0.065 l -69.458,44.298 -4.548,-1.518 c -0.829,-0.277 -0.983,-1.384 -0.26,-1.877 l 74.182,-50.534 c 0.359,-0.244 0.83,-0.245 1.189,-10e-4 L 0.258,-1.877 C 0.981,-1.386 0.829,-0.279 0,0"
             style="fill:#ffffff;fill-opacity:1;fill-rule:nonzero;stroke:none"
             id="path3394"
             inkscape:connector-curvature="0" /></g><g
           id="g3396"
           transform="translate(185.8365,113.3027)"
           style="fill:#ffffff;fill-opacity:1"><path
             d="m 0,0 -4.307,1.61 -67.742,-46.859 c -0.362,-0.251 -0.843,-0.308 -1.206,-0.057 l -67.844,46.975 -4.247,-1.582 c -0.788,-0.293 -0.935,-1.344 -0.258,-1.842 l 72.325,-53.256 c 0.373,-0.275 0.881,-0.275 1.254,0 L 0.256,-1.842 C 0.933,-1.345 0.787,-0.294 0,0"
             style="fill:#ffffff;fill-opacity:1;fill-rule:nonzero;stroke:none"
             id="path3398"
             inkscape:connector-curvature="0" /></g><g
           id="g3400"
           transform="translate(183.8861,102.5375)"
           style="fill:#ffffff;fill-opacity:1"><path
             d="m 0,0 -4.089,1.717 -65.978,-49.2 c -0.376,-0.281 -0.892,-0.295 -1.268,-0.014 l -65.948,49.404 -4.161,-1.736 c -0.743,-0.31 -0.881,-1.305 -0.249,-1.805 l 70.277,-55.626 c 0.384,-0.304 0.926,-0.305 1.311,-0.002 L 0.245,-1.806 C 0.878,-1.307 0.743,-0.312 0,0"
             style="fill:#ffffff;fill-opacity:1;fill-rule:nonzero;stroke:none"
             id="path3402"
             inkscape:connector-curvature="0" /></g><g
           id="g3404"
           transform="translate(136.0557,150.1482)"
           style="fill:#ffffff;fill-opacity:1"><path
             d="m 0,0 -5.568,1.797 c 0,0 -0.99,5.7 -3.164,9.432 0.867,0.543 1.781,1.102 2.958,1.681 -0.105,-0.005 -0.326,-0.057 -0.611,-0.136 -3.687,-1.285 -20.456,-7.104 -24.529,-8.117 -3.978,-0.989 -5.113,-6.043 -5.857,-16.929 l -2.666,-1.177 -7.779,3.422 c 0.258,4.926 0.293,5.975 0.728,8.464 1.17,6.699 3.914,10.324 7.719,11.7 3.782,1.369 24.87,6.915 24.87,6.915 1.704,0.477 3.338,0.804 6.348,0.006 2.216,-0.704 4.849,-1.396 4.849,-1.396 0,0 -0.008,-0.002 -0.022,-0.006 C 1.072,14.399 2.75,1.021 2.75,1.021 L 0,0 Z m 56.819,3.321 -79.434,19.868 c -0.168,0.042 -0.344,0.042 -0.512,0 l -79.537,-19.82 c -0.947,-0.235 -1.096,-1.518 -0.229,-1.966 l 79.537,-41.018 c 0.304,-0.157 0.666,-0.157 0.97,0 l 79.433,40.97 c 0.867,0.447 0.718,1.729 -0.228,1.966"
             style="fill:#ffffff;fill-opacity:1;fill-rule:nonzero;stroke:none"
             id="path3406"
             inkscape:connector-curvature="0" /></g></g></g><path
       style="fill:#ffffff;stroke:none;stroke-width:1px;stroke-linecap:butt;stroke-linejoin:miter;stroke-opacity:1;fill-opacity:0"
       d="m 91.90039,138.52341 -3.302403,1.55806 0.183697,2.78942 c 0.57995,8.80612 2.939188,14.31867 7.029466,16.42491 1.383662,0.71249 10.42582,3.35635 21.51981,6.29223 6.53067,1.72825 8.37295,1.78972 12.81927,0.42769 3.11594,-0.95447 3.4262,-1.15062 4.34884,-2.74926 1.12132,-1.9429 2.01877,-4.84622 2.84634,-9.20804 l 0.56403,-2.9728 -1.24321,-0.52498 c -1.08408,-0.45776 -1.58457,-0.40933 -3.90987,0.37841 l -2.66665,0.90339 -0.85121,3.01844 c -0.46816,1.66013 -1.163,3.7487 -1.5441,4.64126 -0.43274,1.01353 -0.53551,1.67551 -0.27373,1.76314 0.23054,0.0771 0.83224,0.48478 1.33711,0.90578 1.00512,0.83817 -24.34669,-7.39455 -25.9886,-8.43951 -1.80684,-1.14993 -3.22871,-5.96345 -3.92503,-13.28766 -0.233924,-2.46048 -0.376802,-2.81585 -1.269143,-3.15657 -1.51807,-0.57965 -2.090217,-0.45502 -5.674617,1.23609 z"
       id="path3408"
       inkscape:connector-curvature="0" /><path
       style="fill:#ffffff;fill-opacity:0"
       d="m 91.869543,138.46528 -3.333257,1.49284 0.216538,2.8511 c 0.688128,9.06027 2.966229,14.38108 7.058326,16.48568 3.088479,1.58843 26.18718,7.74865 29.05477,7.74865 1.17247,0 3.61051,-0.46914 5.41787,-1.04253 2.72304,-0.86389 3.42134,-1.26518 4.07534,-2.34197 0.97499,-1.6053 2.21187,-5.38893 2.82144,-8.63084 0.25273,-1.34409 0.5515,-2.76778 0.66395,-3.16374 0.14729,-0.51868 -0.15421,-0.87139 -1.07848,-1.26167 -1.12474,-0.47496 -1.6279,-0.4364 -4.08111,0.31263 -1.82802,0.55815 -2.80089,1.0662 -2.80594,1.46533 -0.004,0.33602 -0.63295,2.43234 -1.3971,4.65849 -1.28439,3.74172 -1.33774,4.08696 -0.70611,4.56917 0.39003,0.29777 0.47594,0.52718 0.20016,0.53458 -0.2657,0.007 -6.06892,-1.83707 -12.89604,-4.0982 -12.14659,-4.02292 -12.43369,-4.14309 -13.38038,-5.60036 -1.2066,-1.85735 -2.048615,-5.18597 -2.643425,-10.44982 -0.652927,-5.77812 -1.374349,-6.13241 -7.186552,-3.52934 z"
       id="path3410"
       inkscape:connector-curvature="0" /></g></svg>