<?xml version="1.0" encoding="UTF-8" standalone="no"?>
<!-- Created with Inkscape (http://www.inkscape.org/) -->

<svg
   xmlns:dc="http://purl.org/dc/elements/1.1/"
   xmlns:cc="http://creativecommons.org/ns#"
   xmlns:rdf="http://www.w3.org/1999/02/22-rdf-syntax-ns#"
   xmlns:svg="http://www.w3.org/2000/svg"
   xmlns="http://www.w3.org/2000/svg"
   xmlns:sodipodi="http://sodipodi.sourceforge.net/DTD/sodipodi-0.dtd"
   xmlns:inkscape="http://www.inkscape.org/namespaces/inkscape"
   id="svg3336"
   version="1.1"
   inkscape:version="0.92.3 (2405546, 2018-03-11)"
   xml:space="preserve"
   width="819.37677"
   height="160.39978"
   viewBox="0 0 819.37677 160.39978"
   sodipodi:docname="eventkit-logo-blac.svg"><metadata
     id="metadata3342"><rdf:RDF><cc:Work
         rdf:about=""><dc:format>image/svg+xml</dc:format><dc:type
           rdf:resource="http://purl.org/dc/dcmitype/StillImage" /><dc:title></dc:title></cc:Work></rdf:RDF></metadata><defs
     id="defs3340"><clipPath
       clipPathUnits="userSpaceOnUse"
       id="clipPath3358"><path
         d="m 0,226.411 720.68,0 L 720.68,0 0,0 0,226.411 Z"
         id="path3360"
         inkscape:connector-curvature="0" /></clipPath></defs><sodipodi:namedview
     pagecolor="#ffffff"
     bordercolor="#666666"
     borderopacity="1"
     objecttolerance="10"
     gridtolerance="10"
     guidetolerance="10"
     inkscape:pageopacity="0"
     inkscape:pageshadow="2"
     inkscape:window-width="1656"
     inkscape:window-height="726"
     id="namedview3338"
     showgrid="false"
     inkscape:zoom="3.9185216"
     inkscape:cx="484.68373"
     inkscape:cy="75.00883"
     inkscape:window-x="1766"
     inkscape:window-y="135"
     inkscape:window-maximized="0"
     inkscape:current-layer="g3344"
     fit-margin-top="0"
     fit-margin-left="0"
     fit-margin-right="0"
     fit-margin-bottom="0" /><g
     id="g3344"
     inkscape:groupmode="layer"
     inkscape:label="EventKit-Logo"
     transform="matrix(1.25,0,0,-1.25,-40.736995,216.71087)"><g
       id="g3346"
       transform="matrix(1.0007606,0,0,0.99750758,286.58245,145.30559)"><path
         d="m 0,0 0,-15.991 -40.033,0 0,-16.565 36.007,0 0,-15.3 -36.007,0 0,-16.68 41.299,0 0,-15.875 -59.244,0 0,80.411 L 0,0 Z"
         style="fill:#000000;fill-opacity:1;fill-rule:nonzero;stroke:none"
         id="path3348"
         inkscape:connector-curvature="0" /></g><g
       id="g3350"
       transform="matrix(1.0007606,0,0,0.99750758,314.21095,65.094912)"><path
         d="m 0,0 -24.503,62.005 17.946,0 15.415,-38.998 15.415,38.998 17.945,0 L 17.716,0 0,0 Z"
         style="fill:#000000;fill-opacity:1;fill-rule:nonzero;stroke:none"
         id="path3352"
         inkscape:connector-curvature="0" /></g><g
       id="g3354"
       transform="matrix(1.0007606,0,0,0.99750758,-0.02478873,0.11228053)"><g
         id="g3356"
         clip-path="url(#clipPath3358)"><g
           id="g3362"
           transform="translate(397.1682,110.8147)"><path
             d="m 0,0 c -2.378,1.993 -5.273,2.991 -8.685,2.991 -3.413,0 -6.539,-1.036 -9.375,-3.106 -2.839,-2.071 -4.488,-4.872 -4.947,-8.398 l 27.148,0 C 3.756,-4.832 2.376,-1.995 0,0 m 16.565,-36.697 c -6.979,-6.597 -15.166,-9.893 -24.56,-9.893 -9.395,0 -17.161,2.894 -23.295,8.685 -6.136,5.79 -9.203,13.554 -9.203,23.295 0,9.738 3.124,17.485 9.375,23.237 6.251,5.752 13.632,8.629 22.145,8.629 8.512,0 15.74,-2.571 21.685,-7.709 5.942,-5.138 8.914,-12.193 8.914,-21.166 l 0,-9.202 -45.094,0 c 0.536,-3.376 2.301,-6.138 5.293,-8.283 2.99,-2.149 6.364,-3.221 10.123,-3.221 6.057,0 11.043,2.03 14.954,6.096 l 9.663,-10.468 z"
             style="fill:#000000;fill-opacity:1;fill-rule:nonzero;stroke:none"
             id="path3364"
             inkscape:connector-curvature="0" /></g><g
           id="g3366"
           transform="translate(443.8722,99.6556)"><path
             d="m 0,0 0,-34.511 -17.255,0 0,61.891 17.255,0 0,-6.903 c 5.214,5.292 11.081,7.938 17.601,7.938 6.517,0 11.982,-2.301 16.392,-6.903 4.409,-4.601 6.615,-10.738 6.615,-18.405 l 0,-37.618 -17.256,0 0,34.972 c 0,9.508 -3.491,14.264 -10.468,14.264 -3.451,0 -6.461,-1.247 -9.03,-3.739 C 1.284,8.493 0,4.832 0,0"
             style="fill:#000000;fill-opacity:1;fill-rule:nonzero;stroke:none"
             id="path3368"
             inkscape:connector-curvature="0" /></g><g
           id="g3370"
           transform="translate(515.1941,114.6102)"><path
             d="m 0,0 0,-27.724 c 0,-2.377 0.613,-4.238 1.841,-5.578 1.226,-1.344 2.683,-2.014 4.371,-2.014 3.221,0 5.942,1.456 8.168,4.372 l 6.441,-12.08 c -5.368,-4.908 -11.024,-7.361 -16.967,-7.361 -5.944,0 -10.968,1.955 -15.07,5.867 -4.103,3.91 -6.154,9.241 -6.154,15.989 l 0,28.529 -7.248,0 0,12.425 7.248,0 0,18.521 17.37,0 0,-18.521 14.955,0 L 14.955,0 0,0 Z"
             style="fill:#000000;fill-opacity:1;fill-rule:nonzero;stroke:none"
             id="path3372"
             inkscape:connector-curvature="0" /></g><g
           id="g3374"
           transform="translate(542.341,145.5561)"><path
             d="m 0,0 17.946,0 0,-33.016 L 48.316,0 70.518,0 38.537,-35.547 c 2.762,-3.836 7.861,-10.986 15.3,-21.455 7.438,-10.468 13,-18.272 16.681,-23.409 l -20.937,0 -23.582,31.75 -8.053,-8.973 0,-22.777 L 0,-80.411 0,0 Z"
             style="fill:#000000;fill-opacity:1;fill-rule:nonzero;stroke:none"
             id="path3376"
             inkscape:connector-curvature="0" /></g><path
           d="m 634.945,65.145 -17.255,0 0,61.89 17.255,0 0,-61.89 z m -15.818,69.77 c -1.955,1.956 -2.933,4.352 -2.933,7.19 0,2.836 0.978,5.234 2.933,7.189 1.957,1.956 4.352,2.934 7.191,2.934 2.836,0 5.234,-0.978 7.189,-2.934 1.956,-1.955 2.934,-4.353 2.934,-7.189 0,-2.838 -0.978,-5.234 -2.934,-7.19 -1.955,-1.956 -4.353,-2.934 -7.189,-2.934 -2.839,0 -5.234,0.978 -7.191,2.934"
           style="fill:#000000;fill-opacity:1;fill-rule:nonzero;stroke:none"
           id="path3378"
           inkscape:connector-curvature="0" /><g
           id="g3380"
           transform="translate(667.269,114.6102)"><path
             d="m 0,0 0,-27.724 c 0,-2.377 0.613,-4.238 1.841,-5.578 1.226,-1.344 2.683,-2.014 4.371,-2.014 3.221,0 5.942,1.456 8.168,4.372 l 6.442,-12.08 c -5.369,-4.908 -11.025,-7.361 -16.968,-7.361 -5.944,0 -10.968,1.955 -15.07,5.867 -4.103,3.91 -6.154,9.241 -6.154,15.989 l 0,28.529 -7.248,0 0,12.425 7.248,0 0,18.521 17.37,0 0,-18.521 14.955,0 L 14.955,0 0,0 Z"
             style="fill:#000000;fill-opacity:1;fill-rule:nonzero;stroke:none"
             id="path3382"
             inkscape:connector-curvature="0" /></g><g
           id="g3384"
           transform="translate(191.2135,143.7354)"><path
             d="m 0,0 -5.659,1.553 -71.74,-38.038 c -0.309,-0.164 -0.68,-0.198 -0.99,-0.035 l -72.146,38.064 -5.604,-1.535 c -0.909,-0.249 -1.063,-1.473 -0.244,-1.939 l 77.772,-44.322 c 0.324,-0.185 0.722,-0.185 1.047,0 L 0.244,-1.939 C 1.062,-1.472 0.908,-0.249 0,0"
             style="fill:#0f92a3;fill-opacity:1;fill-rule:nonzero;stroke:none"
             id="path3386"
             inkscape:connector-curvature="0" /></g><g
           id="g3388"
           transform="translate(189.4894,133.8303)"><path
             d="m 0,0 -5.006,1.513 -70.63,-41.177 c -0.33,-0.192 -0.737,-0.226 -1.067,-0.034 l -70.921,41.311 -5.058,-1.522 c -0.87,-0.262 -1.027,-1.427 -0.256,-1.909 l 76.014,-47.592 c 0.343,-0.214 0.778,-0.215 1.121,0 L 0.254,-1.909 C 1.025,-1.428 0.87,-0.263 0,0"
             style="fill:#0f92a3;fill-opacity:1;fill-rule:nonzero;stroke:none"
             id="path3390"
             inkscape:connector-curvature="0" /></g><g
           id="g3392"
           transform="translate(187.6434,123.6636)"><path
             d="m 0,0 -4.758,1.599 -69.131,-44.19 c -0.347,-0.222 -0.792,-0.287 -1.139,-0.065 l -69.458,44.298 -4.548,-1.518 c -0.829,-0.277 -0.983,-1.384 -0.26,-1.877 l 74.182,-50.534 c 0.359,-0.244 0.83,-0.245 1.189,-10e-4 L 0.258,-1.877 C 0.981,-1.386 0.829,-0.279 0,0"
             style="fill:#0f92a3;fill-opacity:1;fill-rule:nonzero;stroke:none"
             id="path3394"
             inkscape:connector-curvature="0" /></g><g
           id="g3396"
           transform="translate(185.8365,113.3027)"><path
             d="m 0,0 -4.307,1.61 -67.742,-46.859 c -0.362,-0.251 -0.843,-0.308 -1.206,-0.057 l -67.844,46.975 -4.247,-1.582 c -0.788,-0.293 -0.935,-1.344 -0.258,-1.842 l 72.325,-53.256 c 0.373,-0.275 0.881,-0.275 1.254,0 L 0.256,-1.842 C 0.933,-1.345 0.787,-0.294 0,0"
             style="fill:#0f92a3;fill-opacity:1;fill-rule:nonzero;stroke:none"
             id="path3398"
             inkscape:connector-curvature="0" /></g><g
           id="g3400"
           transform="translate(183.8861,102.5375)"><path
             d="m 0,0 -4.089,1.717 -65.978,-49.2 c -0.376,-0.281 -0.892,-0.295 -1.268,-0.014 l -65.948,49.404 -4.161,-1.736 c -0.743,-0.31 -0.881,-1.305 -0.249,-1.805 l 70.277,-55.626 c 0.384,-0.304 0.926,-0.305 1.311,-0.002 L 0.245,-1.806 C 0.878,-1.307 0.743,-0.312 0,0"
             style="fill:#0f92a3;fill-opacity:1;fill-rule:nonzero;stroke:none"
             id="path3402"
             inkscape:connector-curvature="0" /></g><g
           id="g3404"
           transform="translate(136.0557,150.1482)"><path
             d="m 0,0 -5.568,1.797 c 0,0 -0.99,5.7 -3.164,9.432 0.867,0.543 1.781,1.102 2.958,1.681 -0.105,-0.005 -0.326,-0.057 -0.611,-0.136 -3.687,-1.285 -20.456,-7.104 -24.529,-8.117 -3.978,-0.989 -5.113,-6.043 -5.857,-16.929 l -2.666,-1.177 -7.779,3.422 c 0.258,4.926 0.293,5.975 0.728,8.464 1.17,6.699 3.914,10.324 7.719,11.7 3.782,1.369 24.87,6.915 24.87,6.915 1.704,0.477 3.338,0.804 6.348,0.006 2.216,-0.704 4.849,-1.396 4.849,-1.396 0,0 -0.008,-0.002 -0.022,-0.006 C 1.072,14.399 2.75,1.021 2.75,1.021 L 0,0 Z m 56.819,3.321 -79.434,19.868 c -0.168,0.042 -0.344,0.042 -0.512,0 l -79.537,-19.82 c -0.947,-0.235 -1.096,-1.518 -0.229,-1.966 l 79.537,-41.018 c 0.304,-0.157 0.666,-0.157 0.97,0 l 79.433,40.97 c 0.867,0.447 0.718,1.729 -0.228,1.966"
             style="fill:#0f92a3;fill-opacity:1;fill-rule:nonzero;stroke:none"
             id="path3406"
             inkscape:connector-curvature="0" /></g></g></g><path
       style="fill:#ffffff;stroke:none;stroke-width:1px;stroke-linecap:butt;stroke-linejoin:miter;stroke-opacity:1"
       d="m 92.348492,138.52341 -3.327353,1.55806 0.185085,2.78942 c 0.584332,8.80611 2.961395,14.31867 7.082575,16.42491 1.394116,0.7125 10.504581,3.35635 21.682401,6.29223 6.58,1.72825 8.4362,1.78971 12.91612,0.4277 3.13947,-0.95449 3.45208,-1.15063 4.38169,-2.74927 1.12979,-1.94291 2.03403,-4.84621 2.86785,-9.20805 l 0.56829,-2.9728 -1.25261,-0.52497 c -1.09226,-0.45776 -1.59654,-0.40932 -3.93941,0.37842 l -2.68679,0.90338 -0.85764,3.01843 c -0.4717,1.66014 -1.17179,3.7487 -1.55576,4.64126 -0.43602,1.01355 -0.53957,1.67552 -0.27581,1.76316 0.23228,0.0772 0.83853,0.48477 1.34721,0.90577 1.01272,0.83817 -24.53063,-7.39456 -26.18494,-8.43951 -1.8205,-1.14993 -3.25311,-5.96346 -3.954686,-13.28766 -0.235692,-2.46048 -0.379649,-2.81585 -1.278732,-3.15657 -1.529539,-0.57964 -2.106009,-0.45501 -5.71749,1.23609 z"
       id="path3408"
       inkscape:connector-curvature="0" /><path
       style="fill:#ffffff"
       d="m 92.317412,138.46529 -3.35844,1.49283 0.218174,2.8511 c 0.693327,9.06026 2.988639,14.38109 7.111653,16.48568 3.111813,1.58843 26.385031,7.74864 29.274281,7.74864 1.18133,0 3.63779,-0.46913 5.45881,-1.04252 2.74361,-0.86389 3.44718,-1.26518 4.10612,-2.34197 0.98236,-1.6053 2.22859,-5.38893 2.84277,-8.63085 0.25463,-1.34408 0.55566,-2.76776 0.66896,-3.16373 0.1484,-0.51867 -0.15538,-0.87139 -1.08663,-1.26167 -1.13324,-0.47495 -1.6402,-0.43641 -4.11195,0.31264 -1.84183,0.55814 -2.82204,1.06619 -2.82714,1.46532 -0.004,0.33602 -0.63773,2.43234 -1.40765,4.6585 -1.29409,3.74171 -1.34784,4.08695 -0.71144,4.56916 0.39297,0.29777 0.47953,0.52718 0.20167,0.53457 -0.26771,0.007 -6.11477,-1.83706 -12.99347,-4.09819 -12.23836,-4.02292 -12.52763,-4.14309 -13.48148,-5.60036 -1.21571,-1.85735 -2.06409,-5.18598 -2.66339,-10.44981 -0.65786,-5.77813 -1.384733,-6.13242 -7.240848,-3.52934 z"
       id="path3410"
       inkscape:connector-curvature="0" /><path
       style="fill:#000000;stroke:#000000;stroke-width:0.79930621;stroke-opacity:1;fill-opacity:0"
       d="m 228.69781,105.07877 0,39.50806 28.60395,0 28.60396,0 0,-7.3314 0,-7.33139 -20.02277,0 -20.02276,0 0,-8.55329 0,-8.5533 17.97962,0 17.97963,0 0,-7.33139 0,-7.331392 -18.00728,0 -18.00727,0 0.23196,-8.756936 0.23197,-8.756944 20.6357,-0.21764 20.6357,-0.217632 0,-7.317404 0,-7.317405 -29.4212,0 -29.42121,0 0,39.508063 z"
       id="path3412"
       inkscape:connector-curvature="0" /><path
       style="fill:#000000;stroke:#000000;stroke-width:0.79930621;stroke-opacity:1;fill-opacity:0"
       d="m 313.76727,67.375893 c -0.39768,1.023283 -5.86861,14.794075 -12.15764,30.601761 l -11.4346,28.741266 8.67321,-0.2303 8.6732,-0.23027 7.66855,-19.39462 c 4.2177,-10.66705 7.82781,-19.235888 8.02246,-19.041876 0.19464,0.194011 3.74931,8.921596 7.89926,19.394626 l 7.54535,19.04187 8.45373,0.23319 8.45374,0.23321 -0.4963,-1.8624 c -0.27296,-1.02433 -5.60696,-14.69234 -11.85332,-30.373371 L 331.85788,65.978002 323.17409,65.7467 c -8.38853,-0.223442 -8.70837,-0.168053 -9.40682,1.629193 z"
       id="path3414"
       inkscape:connector-curvature="0" /><path
       style="fill:#000000;stroke:#000000;stroke-width:0.79930621;stroke-opacity:1;fill-opacity:0"
       d="m 379.48149,65.853281 c -12.35981,4.07659 -19.62894,12.35256 -21.70266,24.708702 -2.36583,14.096537 4.35126,27.612507 16.74512,33.694137 13.44615,6.598 31.68131,2.31634 39.46458,-9.26638 3.49993,-5.20844 4.30261,-8.4566 4.30805,-17.43313 l 0.005,-7.522157 -22.38398,-0.216539 -22.38397,-0.216531 1.21237,-3.028856 c 1.49844,-3.743542 7.01096,-7.573596 11.96664,-8.314329 4.60965,-0.689015 10.73929,0.697752 14.77344,3.342344 l 3.20727,2.102531 4.27869,-4.789537 c 3.9882,-4.464373 4.18987,-4.888521 2.9704,-6.24747 -0.71956,-0.801868 -4.04699,-2.807074 -7.39429,-4.456018 -5.56117,-2.739546 -6.76338,-3.016909 -13.94159,-3.216523 -4.90596,-0.136427 -9.08307,0.186399 -11.12463,0.859756 z m 22.17003,36.758389 c 0.74582,1.93727 -2.32364,7.17778 -5.41629,9.24726 -2.45103,1.64014 -3.64613,1.87124 -8.35074,1.61479 -3.9159,-0.21346 -6.14234,-0.78075 -7.76393,-1.97822 -2.84116,-2.09807 -5.95123,-6.57863 -5.95123,-8.57369 0,-1.40775 0.90442,-1.50874 13.51037,-1.50874 11.13863,0 13.59137,0.21041 13.97182,1.1986 z"
       id="path3416"
       inkscape:connector-curvature="0" /><path
       style="fill:#000000;stroke:#000000;stroke-width:0.79930621;stroke-opacity:1;fill-opacity:0"
       d="m 427.29095,96.118172 0,30.547478 8.17256,0 8.17256,0 0,-3.25841 c 0,-1.79211 0.19274,-3.25839 0.42832,-3.25839 0.23559,0 2.28525,1.27318 4.55482,2.82929 2.26957,1.55611 5.47865,3.20364 7.13129,3.66115 10.48796,2.90353 21.10803,-1.99411 26.04246,-12.00997 l 2.29726,-4.66296 0.26279,-22.197829 0.26279,-22.197824 -8.16816,0 -8.16815,0 -0.28006,20.161328 c -0.23033,16.581545 -0.52029,20.694115 -1.63301,23.161965 -1.81567,4.0269 -5.45004,5.84951 -10.66774,5.34978 -4.57588,-0.43826 -7.66156,-2.40895 -10.01948,-6.39906 -1.49107,-2.52323 -1.65706,-4.49945 -1.89144,-22.519987 l -0.25693,-19.754026 -8.11994,0 -8.11994,0 0,30.547465 z"
       id="path3418"
       inkscape:connector-curvature="0" /><path
       style="fill:#000000;stroke:#000000;stroke-width:0.79930621;stroke-opacity:1;fill-opacity:0"
       d="m 509.78162,66.996257 c -5.43323,2.746506 -9.28381,7.604176 -10.49691,13.242305 -0.49088,2.281467 -0.89251,10.911607 -0.89251,19.178104 l 0,15.029994 -3.67766,0 -3.67765,0 0,6.10949 0,6.1095 3.67765,0 3.67766,0 0,8.96058 0,8.9606 8.58118,0 8.58119,0 0,-8.9606 0,-8.96058 7.3553,0 7.35529,0 0,-6.1095 0,-6.10949 -7.35529,0 -7.3553,0 0,-15.410762 c 0,-8.475918 0.22844,-16.004156 0.50766,-16.729415 0.27922,-0.72526 1.59324,-1.878196 2.92005,-2.562087 2.81087,-1.448836 6.17798,-0.951335 9.10769,1.345694 l 1.98784,1.558546 2.96522,-5.624483 2.96523,-5.62449 -2.40356,-1.705914 c -7.77856,-5.520821 -16.3238,-6.488404 -23.82308,-2.697492 z"
       id="path3420"
       inkscape:connector-curvature="0" /><path
       style="fill:#000000;stroke:#000000;stroke-width:0.79930621;stroke-opacity:1;fill-opacity:0"
       d="m 543.34126,105.07877 0,39.50806 8.56426,0 8.56427,0 0.22123,-16.35797 0.22124,-16.35796 14.99886,16.35796 14.99887,16.35797 10.71053,0 10.71054,0 -3.2967,-3.46206 c -3.14416,-3.30188 -23.62383,-26.03855 -26.70727,-29.65062 -1.44649,-1.69448 -1.23682,-2.04354 14.09766,-23.46996 8.56129,-11.962446 15.56599,-21.903702 15.56599,-22.091689 0,-0.187986 -4.38519,-0.341794 -9.74487,-0.341794 l -9.74487,0 -11.8246,15.891006 -11.8246,15.891014 -4.17409,-4.552265 -4.17408,-4.552274 0,-11.33874 0,-11.338741 -8.58119,0 -8.58118,0 0,39.508063 z"
       id="path3422"
       inkscape:connector-curvature="0" /><path
       style="fill:#000000;stroke:#000000;stroke-width:0.79930621;stroke-opacity:1;fill-opacity:0"
       d="m 618.52879,96.118172 0,30.547478 8.17255,0 8.17256,0 0,-30.547478 0,-30.547465 -8.17256,0 -8.17255,0 0,30.547465 z"
       id="path3424"
       inkscape:connector-curvature="0" /><path
       style="fill:#000000;stroke:#000000;stroke-width:0.79930621;stroke-opacity:1;fill-opacity:0"
       d="m 621.59812,133.79729 c -6.8381,4.22604 -5.35092,15.11245 2.35417,17.23302 8.23417,2.26617 15.22749,-6.26292 11.3164,-13.80154 -2.35814,-4.54532 -9.12135,-6.24297 -13.67057,-3.43148 z"
       id="path3426"
       inkscape:connector-curvature="0" /><path
       style="fill:#000000;stroke:#000000;stroke-width:0.79930621;stroke-opacity:1;fill-opacity:0"
       d="m 664.08913,65.918335 c -4.93503,1.755413 -8.49437,5.010959 -10.96786,10.031742 -2.27387,4.615579 -2.31548,4.961467 -2.59778,21.593645 l -0.28689,16.902938 -3.18645,0 -3.18644,0 0,6.10949 0,6.1095 3.26902,0 3.26903,0 0,8.96058 0,8.9606 8.58118,0 8.58119,0 0,-8.9606 0,-8.96058 7.3553,0 7.35529,0 0,-6.1095 0,-6.10949 -7.35529,0 -7.3553,0 0,-15.031757 c 0,-9.436885 0.34364,-15.783523 0.92327,-17.051531 1.88227,-4.117703 8.11626,-4.549145 12.22171,-0.845838 1.29559,1.16868 1.62078,0.850993 4.32521,-4.225522 3.40707,-6.395444 3.36563,-6.505593 -3.78791,-10.068642 -5.56058,-2.769624 -11.72226,-3.238293 -17.15728,-1.305035 z"
       id="path3428"
       inkscape:connector-curvature="0" /></g></svg>