<?xml version="1.0" encoding="utf-8"?>
<!-- Generator: Adobe Illustrator 16.0.4, SVG Export Plug-In . SVG Version: 6.00 Build 0)  -->
<!DOCTYPE svg PUBLIC "-//W3C//DTD SVG 1.1//EN" "http://www.w3.org/Graphics/SVG/1.1/DTD/svg11.dtd">
<svg version="1.1" xmlns="http://www.w3.org/2000/svg" xmlns:xlink="http://www.w3.org/1999/xlink" x="0px" y="0px" width="256px"
	 height="256px" viewBox="0 0 256 256" enable-background="new 0 0 256 256" xml:space="preserve">
<g id="Layer_2">
	<rect x="0" opacity="0.3" fill="#97DBF2" width="256" height="256"/>
</g>
<g id="Layer_1">
	<path fill="#57AD50" d="M20.67,215.59c0.307-0.239,0.692-0.357,1.08-0.33c0.876-0.064,1.658,0.545,1.81,1.41l0.57,3.39
		c-0.455-0.219-0.985-0.219-1.44,0l-0.57-3.39C21.906,216.045,21.33,215.616,20.67,215.59z M25.01,220.47
		c0.276-0.222,0.597-0.383,0.94-0.47l0.899-5.5c0.214-0.625,0.79-1.055,1.45-1.08c-0.306-0.252-0.695-0.381-1.09-0.36
		c-0.887-0.062-1.672,0.563-1.811,1.44l-0.939,5.64C24.657,220.226,24.841,220.336,25.01,220.47z M28.14,220.109L28.14,220.109
		c0.112-0.094,0.232-0.177,0.359-0.25l0.5-3.209c0.211-0.629,0.788-1.062,1.451-1.091c-0.307-0.252-0.695-0.381-1.091-0.36
		c-0.886-0.057-1.667,0.573-1.8,1.451l-0.48,3c0.382,0.068,0.741,0.226,1.051,0.459H28.14z M29.701,221.01L29.701,221.01
		c-0.314-0.008-0.62,0.099-0.861,0.3l-0.34,0.3c-0.201,0.172-0.498,0.172-0.699,0l-0.33-0.279c-0.513-0.429-1.258-0.429-1.77,0
		l-0.341,0.3c-0.2,0.166-0.489,0.166-0.69,0l-0.34-0.32c-0.514-0.425-1.26-0.421-1.77,0.011c-0.11,0.09-0.21,0.189-0.32,0.279
		c-0.066,0.05-0.141,0.088-0.22,0.11c-0.211,0.047-0.432-0.021-0.58-0.181c-0.179-0.154-0.369-0.295-0.57-0.42
		c-0.156-0.083-0.334-0.117-0.51-0.1l0,0c-0.199,0-0.36,0.161-0.36,0.359c0,0.199,0.161,0.36,0.36,0.36l0,0
		c0.178,0.013,0.344,0.096,0.46,0.23l0.22,0.2c0.496,0.389,1.194,0.389,1.69,0c0.14-0.101,0.26-0.23,0.4-0.34
		c0.204-0.178,0.506-0.178,0.709,0l0.25,0.289c0.515,0.434,1.267,0.434,1.781,0c0.109-0.08,0.199-0.18,0.299-0.27
		c0.219-0.217,0.572-0.217,0.791,0l0.289,0.3c0.361,0.312,0.856,0.414,1.311,0.271c0.264-0.08,0.502-0.229,0.689-0.431
		c0.121-0.148,0.299-0.239,0.49-0.25l0,0c0.202-0.014,0.354-0.188,0.34-0.39s-0.188-0.354-0.39-0.34L29.701,221.01z"/>
	<path fill="#57AD50" d="M53.59,183.939c0.307-0.239,0.692-0.357,1.08-0.33c0.876-0.064,1.658,0.545,1.81,1.41l0.57,3.39
		c-0.455-0.219-0.985-0.219-1.44,0l-0.57-3.39C54.826,184.395,54.25,183.966,53.59,183.939z M57.931,188.819
		c0.276-0.222,0.597-0.383,0.94-0.47l0.899-5.5c0.214-0.625,0.79-1.055,1.45-1.08c-0.306-0.252-0.695-0.381-1.09-0.36
		c-0.887-0.062-1.672,0.563-1.811,1.44l-0.939,5.64C57.577,188.575,57.762,188.686,57.931,188.819z M61.061,188.459L61.061,188.459
		c0.112-0.094,0.232-0.177,0.359-0.25l0.5-3.209c0.211-0.629,0.788-1.062,1.451-1.091c-0.307-0.252-0.695-0.381-1.091-0.36
		c-0.886-0.057-1.667,0.573-1.8,1.451L60,188c0.382,0.068,0.741,0.226,1.051,0.459H61.061z M62.621,189.359L62.621,189.359
		c-0.314-0.008-0.62,0.099-0.861,0.3l-0.34,0.3c-0.201,0.172-0.498,0.172-0.699,0l-0.33-0.279c-0.513-0.429-1.258-0.429-1.77,0
		l-0.341,0.3c-0.2,0.166-0.489,0.166-0.69,0l-0.34-0.32c-0.514-0.425-1.26-0.421-1.77,0.011c-0.11,0.09-0.21,0.189-0.32,0.279
		c-0.066,0.05-0.141,0.088-0.22,0.11c-0.211,0.047-0.432-0.021-0.58-0.181c-0.179-0.154-0.369-0.295-0.57-0.42
		c-0.156-0.083-0.334-0.117-0.51-0.1l0,0c-0.199,0-0.36,0.161-0.36,0.359c0,0.199,0.161,0.36,0.36,0.36l0,0
		c0.178,0.013,0.344,0.096,0.46,0.23l0.22,0.2c0.496,0.389,1.194,0.389,1.69,0c0.14-0.101,0.26-0.23,0.4-0.34
		c0.204-0.178,0.506-0.178,0.709,0l0.25,0.289c0.515,0.434,1.267,0.434,1.781,0c0.109-0.08,0.199-0.18,0.299-0.27
		c0.219-0.217,0.572-0.217,0.791,0l0.289,0.3c0.361,0.312,0.856,0.414,1.311,0.271c0.264-0.08,0.502-0.229,0.689-0.431
		c0.121-0.148,0.299-0.239,0.49-0.25l0,0c0.202-0.014,0.354-0.188,0.34-0.39s-0.188-0.354-0.39-0.34L62.621,189.359z"/>
	<path fill="#57AD50" d="M85.469,151.973c0.307-0.239,0.692-0.356,1.08-0.33c0.876-0.064,1.658,0.545,1.81,1.41l0.57,3.39
		c-0.455-0.219-0.985-0.219-1.44,0l-0.57-3.39C86.705,152.428,86.129,151.999,85.469,151.973z M89.81,156.853
		c0.276-0.222,0.597-0.383,0.94-0.47l0.899-5.5c0.214-0.625,0.79-1.054,1.45-1.08c-0.306-0.253-0.695-0.381-1.09-0.36
		c-0.887-0.062-1.672,0.562-1.811,1.44l-0.939,5.64C89.456,156.608,89.641,156.719,89.81,156.853z M92.939,156.492L92.939,156.492
		c0.112-0.094,0.232-0.177,0.359-0.25l0.5-3.209c0.211-0.63,0.788-1.063,1.451-1.091c-0.307-0.252-0.695-0.381-1.091-0.359
		c-0.886-0.057-1.667,0.572-1.8,1.45l-0.48,3c0.382,0.068,0.741,0.226,1.051,0.459H92.939z M94.5,157.393L94.5,157.393
		c-0.314-0.008-0.62,0.099-0.861,0.3l-0.34,0.3c-0.201,0.172-0.498,0.172-0.699,0l-0.33-0.279c-0.513-0.429-1.258-0.429-1.77,0
		l-0.341,0.3c-0.2,0.166-0.489,0.166-0.69,0l-0.34-0.32c-0.514-0.425-1.26-0.421-1.77,0.011c-0.11,0.09-0.21,0.189-0.32,0.279
		c-0.066,0.05-0.141,0.088-0.22,0.11c-0.211,0.047-0.432-0.021-0.58-0.181c-0.179-0.154-0.369-0.295-0.57-0.42
		c-0.156-0.083-0.334-0.117-0.51-0.1l0,0c-0.199,0-0.36,0.161-0.36,0.359c0,0.199,0.161,0.36,0.36,0.36l0,0
		c0.178,0.013,0.344,0.096,0.46,0.23l0.22,0.2c0.496,0.389,1.194,0.389,1.69,0c0.14-0.101,0.26-0.23,0.4-0.34
		c0.204-0.178,0.506-0.178,0.709,0l0.25,0.289c0.515,0.434,1.267,0.434,1.781,0c0.109-0.08,0.199-0.18,0.299-0.27
		c0.219-0.217,0.572-0.217,0.791,0l0.289,0.3c0.361,0.312,0.856,0.414,1.311,0.271c0.264-0.08,0.502-0.229,0.689-0.431
		c0.121-0.148,0.299-0.239,0.49-0.25l0,0c0.202-0.014,0.354-0.188,0.34-0.39s-0.188-0.354-0.39-0.34L94.5,157.393z"/>
	<path fill="#57AD50" d="M116.67,118.535c0.307-0.239,0.692-0.357,1.08-0.33c0.876-0.064,1.658,0.545,1.81,1.41l0.57,3.39
		c-0.455-0.219-0.985-0.219-1.44,0l-0.57-3.39C117.906,118.99,117.33,118.561,116.67,118.535z M121.01,123.415
		c0.276-0.222,0.597-0.383,0.94-0.47l0.899-5.5c0.214-0.625,0.79-1.054,1.45-1.08c-0.306-0.252-0.695-0.381-1.09-0.36
		c-0.887-0.062-1.672,0.563-1.811,1.44l-0.939,5.64C120.657,123.17,120.841,123.281,121.01,123.415z M124.14,123.054L124.14,123.054
		c0.112-0.094,0.232-0.177,0.359-0.25l0.5-3.209c0.211-0.629,0.788-1.063,1.451-1.091c-0.307-0.252-0.695-0.381-1.091-0.36
		c-0.886-0.057-1.667,0.573-1.8,1.451l-0.48,3c0.382,0.068,0.741,0.226,1.051,0.459H124.14z M125.701,123.955L125.701,123.955
		c-0.314-0.008-0.62,0.099-0.861,0.3l-0.34,0.3c-0.201,0.172-0.498,0.172-0.699,0l-0.33-0.279c-0.513-0.429-1.258-0.429-1.77,0
		l-0.341,0.3c-0.2,0.166-0.489,0.166-0.69,0l-0.34-0.32c-0.514-0.425-1.26-0.421-1.77,0.011c-0.11,0.09-0.21,0.189-0.32,0.279
		c-0.066,0.05-0.141,0.088-0.22,0.11c-0.211,0.047-0.432-0.021-0.58-0.181c-0.179-0.154-0.369-0.295-0.57-0.42
		c-0.156-0.083-0.334-0.117-0.51-0.1l0,0c-0.199,0-0.36,0.161-0.36,0.359c0,0.199,0.161,0.36,0.36,0.36l0,0
		c0.178,0.013,0.344,0.096,0.46,0.23l0.22,0.2c0.496,0.389,1.194,0.389,1.69,0c0.14-0.101,0.26-0.23,0.4-0.34
		c0.204-0.178,0.506-0.178,0.709,0l0.25,0.289c0.515,0.434,1.267,0.434,1.781,0c0.109-0.08,0.199-0.18,0.299-0.27
		c0.219-0.217,0.572-0.217,0.791,0l0.289,0.3c0.361,0.312,0.856,0.414,1.311,0.271c0.264-0.08,0.502-0.229,0.689-0.431
		c0.121-0.148,0.299-0.239,0.49-0.25l0,0c0.202-0.014,0.354-0.188,0.34-0.39s-0.188-0.354-0.39-0.34L125.701,123.955z"/>
	<path fill="#57AD50" d="M148.67,86.535c0.308-0.239,0.692-0.357,1.08-0.33c0.877-0.064,1.658,0.545,1.811,1.41l0.57,3.39
		c-0.455-0.219-0.985-0.219-1.44,0l-0.569-3.39C149.906,86.99,149.33,86.561,148.67,86.535z M153.011,91.415
		c0.276-0.222,0.597-0.383,0.94-0.47l0.899-5.5c0.214-0.625,0.79-1.054,1.45-1.08c-0.306-0.252-0.695-0.381-1.09-0.36
		c-0.887-0.062-1.672,0.563-1.811,1.44l-0.939,5.64C152.657,91.17,152.842,91.281,153.011,91.415z M156.141,91.054L156.141,91.054
		c0.112-0.094,0.232-0.177,0.359-0.25l0.5-3.209c0.211-0.629,0.788-1.063,1.451-1.091c-0.307-0.252-0.695-0.381-1.091-0.36
		c-0.886-0.057-1.667,0.573-1.8,1.451l-0.48,3c0.382,0.068,0.741,0.226,1.051,0.459H156.141z M157.701,91.955L157.701,91.955
		c-0.314-0.008-0.62,0.099-0.861,0.3l-0.34,0.3c-0.201,0.172-0.498,0.172-0.699,0l-0.33-0.279c-0.513-0.429-1.258-0.429-1.77,0
		l-0.341,0.3c-0.2,0.166-0.489,0.166-0.69,0l-0.34-0.32c-0.514-0.425-1.26-0.421-1.77,0.011c-0.109,0.09-0.21,0.189-0.32,0.279
		c-0.065,0.05-0.141,0.088-0.22,0.11c-0.212,0.047-0.433-0.021-0.58-0.181c-0.179-0.154-0.369-0.295-0.569-0.42
		c-0.156-0.083-0.334-0.117-0.511-0.1l0,0c-0.198,0-0.36,0.161-0.36,0.359c0,0.199,0.162,0.36,0.36,0.36l0,0
		c0.179,0.013,0.344,0.096,0.46,0.23l0.221,0.2c0.496,0.389,1.193,0.389,1.689,0c0.141-0.101,0.26-0.23,0.4-0.34
		c0.203-0.178,0.506-0.178,0.709,0l0.25,0.289c0.515,0.434,1.267,0.434,1.781,0c0.109-0.08,0.199-0.18,0.299-0.27
		c0.219-0.217,0.572-0.217,0.791,0l0.289,0.3c0.361,0.312,0.856,0.414,1.311,0.271c0.264-0.08,0.502-0.229,0.689-0.431
		c0.121-0.148,0.299-0.239,0.49-0.25l0,0c0.202-0.014,0.354-0.188,0.34-0.39s-0.188-0.354-0.39-0.34L157.701,91.955z"/>
	<path fill="#57AD50" d="M180.67,53.116c0.308-0.239,0.692-0.357,1.08-0.33c0.877-0.064,1.658,0.545,1.811,1.41l0.57,3.39
		c-0.455-0.219-0.985-0.219-1.44,0l-0.569-3.39C181.906,53.571,181.33,53.143,180.67,53.116z M185.011,57.996
		c0.276-0.222,0.597-0.383,0.94-0.47l0.899-5.5c0.214-0.625,0.79-1.054,1.45-1.08c-0.306-0.252-0.695-0.381-1.09-0.36
		c-0.887-0.062-1.672,0.563-1.811,1.44l-0.939,5.64C184.657,57.752,184.842,57.862,185.011,57.996z M188.141,57.636L188.141,57.636
		c0.112-0.094,0.232-0.177,0.359-0.25l0.5-3.209c0.211-0.629,0.788-1.063,1.451-1.091c-0.307-0.252-0.695-0.381-1.091-0.36
		c-0.886-0.057-1.667,0.573-1.8,1.451l-0.48,3c0.382,0.068,0.741,0.226,1.051,0.459H188.141z M189.701,58.536L189.701,58.536
		c-0.314-0.008-0.62,0.099-0.861,0.3l-0.34,0.3c-0.201,0.172-0.498,0.172-0.699,0l-0.33-0.279c-0.513-0.429-1.258-0.429-1.77,0
		l-0.341,0.3c-0.2,0.166-0.489,0.166-0.69,0l-0.34-0.32c-0.514-0.425-1.26-0.421-1.77,0.011c-0.109,0.09-0.21,0.189-0.32,0.279
		c-0.065,0.05-0.141,0.088-0.22,0.11c-0.212,0.047-0.433-0.021-0.58-0.181c-0.179-0.154-0.369-0.295-0.569-0.42
		c-0.156-0.083-0.334-0.117-0.511-0.1l0,0c-0.198,0-0.36,0.161-0.36,0.359c0,0.199,0.162,0.36,0.36,0.36l0,0
		c0.179,0.013,0.344,0.096,0.46,0.23l0.221,0.2c0.496,0.389,1.193,0.389,1.689,0c0.141-0.101,0.26-0.23,0.4-0.34
		c0.203-0.178,0.506-0.178,0.709,0l0.25,0.289c0.515,0.434,1.267,0.434,1.781,0c0.109-0.08,0.199-0.18,0.299-0.27
		c0.219-0.217,0.572-0.217,0.791,0l0.289,0.3c0.361,0.312,0.856,0.414,1.311,0.271c0.264-0.08,0.502-0.229,0.689-0.431
		c0.121-0.148,0.299-0.239,0.49-0.25l0,0c0.202-0.014,0.354-0.188,0.34-0.39s-0.188-0.354-0.39-0.34L189.701,58.536z"/>
	<path fill="#57AD50" d="M212.67,21.116c0.308-0.239,0.692-0.357,1.08-0.33c0.877-0.064,1.658,0.545,1.811,1.41l0.57,3.39
		c-0.455-0.219-0.985-0.219-1.44,0l-0.569-3.39C213.906,21.571,213.33,21.143,212.67,21.116z M217.011,25.996
		c0.276-0.222,0.597-0.383,0.94-0.47l0.899-5.5c0.214-0.625,0.79-1.054,1.45-1.08c-0.306-0.252-0.695-0.381-1.09-0.36
		c-0.887-0.062-1.672,0.563-1.811,1.44l-0.939,5.64C216.657,25.752,216.842,25.862,217.011,25.996z M220.141,25.636L220.141,25.636
		c0.112-0.094,0.232-0.177,0.359-0.25l0.5-3.209c0.211-0.629,0.788-1.063,1.451-1.091c-0.307-0.252-0.695-0.381-1.091-0.36
		c-0.886-0.057-1.667,0.573-1.8,1.451l-0.48,3c0.382,0.068,0.741,0.226,1.051,0.459H220.141z M221.701,26.536L221.701,26.536
		c-0.314-0.008-0.62,0.099-0.861,0.3l-0.34,0.3c-0.201,0.172-0.498,0.172-0.699,0l-0.33-0.279c-0.513-0.429-1.258-0.429-1.77,0
		l-0.341,0.3c-0.2,0.166-0.489,0.166-0.69,0l-0.34-0.32c-0.514-0.425-1.26-0.421-1.77,0.011c-0.109,0.09-0.21,0.189-0.32,0.279
		c-0.065,0.05-0.141,0.088-0.22,0.11c-0.212,0.047-0.433-0.021-0.58-0.181c-0.179-0.154-0.369-0.295-0.569-0.42
		c-0.156-0.083-0.334-0.117-0.511-0.1l0,0c-0.198,0-0.36,0.161-0.36,0.359c0,0.199,0.162,0.36,0.36,0.36l0,0
		c0.179,0.013,0.344,0.096,0.46,0.23l0.221,0.2c0.496,0.389,1.193,0.389,1.689,0c0.141-0.101,0.26-0.23,0.4-0.34
		c0.203-0.178,0.506-0.178,0.709,0l0.25,0.289c0.515,0.434,1.267,0.434,1.781,0c0.109-0.08,0.199-0.18,0.299-0.27
		c0.219-0.217,0.572-0.217,0.791,0l0.289,0.3c0.361,0.312,0.856,0.414,1.311,0.271c0.264-0.08,0.502-0.229,0.689-0.431
		c0.121-0.148,0.299-0.239,0.49-0.25l0,0c0.202-0.014,0.354-0.188,0.34-0.39s-0.188-0.354-0.39-0.34L221.701,26.536z"/>
	<path fill="#57AD50" d="M22.219,150.535c0.307-0.239,0.692-0.357,1.08-0.33c0.876-0.064,1.658,0.545,1.81,1.41l0.57,3.39
		c-0.455-0.219-0.985-0.219-1.44,0l-0.57-3.39C23.455,150.99,22.879,150.562,22.219,150.535z M26.56,155.415
		c0.276-0.222,0.597-0.383,0.94-0.47l0.899-5.5c0.214-0.625,0.79-1.055,1.45-1.08c-0.306-0.252-0.695-0.381-1.09-0.36
		c-0.887-0.062-1.672,0.563-1.811,1.44l-0.939,5.64C26.206,155.171,26.391,155.281,26.56,155.415z M29.689,155.055L29.689,155.055
		c0.112-0.094,0.232-0.177,0.359-0.25l0.5-3.209c0.211-0.629,0.788-1.062,1.451-1.091c-0.307-0.252-0.695-0.381-1.091-0.36
		c-0.886-0.057-1.667,0.573-1.8,1.451l-0.48,3c0.382,0.068,0.741,0.226,1.051,0.459H29.689z M31.25,155.955L31.25,155.955
		c-0.314-0.008-0.62,0.099-0.861,0.3l-0.34,0.3c-0.201,0.172-0.498,0.172-0.699,0l-0.33-0.279c-0.513-0.429-1.258-0.429-1.77,0
		l-0.341,0.3c-0.2,0.166-0.489,0.166-0.69,0l-0.34-0.32c-0.514-0.425-1.26-0.421-1.77,0.011c-0.11,0.09-0.21,0.189-0.32,0.279
		c-0.066,0.05-0.141,0.088-0.22,0.11c-0.211,0.047-0.432-0.021-0.58-0.181c-0.179-0.154-0.369-0.295-0.57-0.42
		c-0.156-0.083-0.334-0.117-0.51-0.1l0,0c-0.199,0-0.36,0.161-0.36,0.359c0,0.199,0.161,0.36,0.36,0.36l0,0
		c0.178,0.013,0.344,0.096,0.46,0.23l0.22,0.2c0.496,0.389,1.194,0.389,1.69,0c0.14-0.101,0.26-0.23,0.4-0.34
		c0.204-0.178,0.506-0.178,0.709,0l0.25,0.289c0.515,0.434,1.267,0.434,1.781,0c0.109-0.08,0.199-0.18,0.299-0.27
		c0.219-0.217,0.572-0.217,0.791,0l0.289,0.3c0.361,0.312,0.856,0.414,1.311,0.271c0.264-0.08,0.502-0.229,0.689-0.431
		c0.121-0.148,0.299-0.239,0.49-0.25l0,0c0.202-0.014,0.354-0.188,0.34-0.39s-0.188-0.354-0.39-0.34L31.25,155.955z"/>
	<path fill="#57AD50" d="M54.219,118.535c0.307-0.239,0.692-0.357,1.08-0.33c0.876-0.064,1.658,0.545,1.81,1.41l0.57,3.39
		c-0.455-0.219-0.985-0.219-1.44,0l-0.57-3.39C55.455,118.99,54.879,118.561,54.219,118.535z M58.56,123.415
		c0.276-0.222,0.597-0.383,0.94-0.47l0.899-5.5c0.214-0.625,0.79-1.054,1.45-1.08c-0.306-0.252-0.695-0.381-1.09-0.36
		c-0.887-0.062-1.672,0.563-1.811,1.44l-0.939,5.64C58.206,123.17,58.391,123.281,58.56,123.415z M61.689,123.054L61.689,123.054
		c0.112-0.094,0.232-0.177,0.359-0.25l0.5-3.209c0.211-0.629,0.788-1.063,1.451-1.091c-0.307-0.252-0.695-0.381-1.091-0.36
		c-0.886-0.057-1.667,0.573-1.8,1.451l-0.48,3c0.382,0.068,0.741,0.226,1.051,0.459H61.689z M63.25,123.955L63.25,123.955
		c-0.314-0.008-0.62,0.099-0.861,0.3l-0.34,0.3c-0.201,0.172-0.498,0.172-0.699,0l-0.33-0.279c-0.513-0.429-1.258-0.429-1.77,0
		l-0.341,0.3c-0.2,0.166-0.489,0.166-0.69,0l-0.34-0.32c-0.514-0.425-1.26-0.421-1.77,0.011c-0.11,0.09-0.21,0.189-0.32,0.279
		c-0.066,0.05-0.141,0.088-0.22,0.11c-0.211,0.047-0.432-0.021-0.58-0.181c-0.179-0.154-0.369-0.295-0.57-0.42
		c-0.156-0.083-0.334-0.117-0.51-0.1l0,0c-0.199,0-0.36,0.161-0.36,0.359c0,0.199,0.161,0.36,0.36,0.36l0,0
		c0.178,0.013,0.344,0.096,0.46,0.23l0.22,0.2c0.496,0.389,1.194,0.389,1.69,0c0.14-0.101,0.26-0.23,0.4-0.34
		c0.204-0.178,0.506-0.178,0.709,0l0.25,0.289c0.515,0.434,1.267,0.434,1.781,0c0.109-0.08,0.199-0.18,0.299-0.27
		c0.219-0.217,0.572-0.217,0.791,0l0.289,0.3c0.361,0.312,0.856,0.414,1.311,0.271c0.264-0.08,0.502-0.229,0.689-0.431
		c0.121-0.148,0.299-0.239,0.49-0.25l0,0c0.202-0.014,0.354-0.188,0.34-0.39s-0.188-0.354-0.39-0.34L63.25,123.955z"/>
	<path fill="#57AD50" d="M86.219,86.535c0.307-0.239,0.692-0.357,1.08-0.33c0.876-0.064,1.658,0.545,1.81,1.41l0.57,3.39
		c-0.455-0.219-0.985-0.219-1.44,0l-0.57-3.39C87.455,86.99,86.879,86.561,86.219,86.535z M90.56,91.415
		c0.276-0.222,0.597-0.383,0.94-0.47l0.899-5.5c0.214-0.625,0.79-1.054,1.45-1.08c-0.306-0.252-0.695-0.381-1.09-0.36
		c-0.887-0.062-1.672,0.563-1.811,1.44l-0.939,5.64C90.206,91.17,90.391,91.281,90.56,91.415z M93.689,91.054L93.689,91.054
		c0.112-0.094,0.232-0.177,0.359-0.25l0.5-3.209c0.211-0.629,0.788-1.063,1.451-1.091c-0.307-0.252-0.695-0.381-1.091-0.36
		c-0.886-0.057-1.667,0.573-1.8,1.451l-0.48,3c0.382,0.068,0.741,0.226,1.051,0.459H93.689z M95.25,91.955L95.25,91.955
		c-0.314-0.008-0.62,0.099-0.861,0.3l-0.34,0.3c-0.201,0.172-0.498,0.172-0.699,0l-0.33-0.279c-0.513-0.429-1.258-0.429-1.77,0
		l-0.341,0.3c-0.2,0.166-0.489,0.166-0.69,0l-0.34-0.32c-0.514-0.425-1.26-0.421-1.77,0.011c-0.11,0.09-0.21,0.189-0.32,0.279
		c-0.066,0.05-0.141,0.088-0.22,0.11c-0.211,0.047-0.432-0.021-0.58-0.181c-0.179-0.154-0.369-0.295-0.57-0.42
		c-0.156-0.083-0.334-0.117-0.51-0.1l0,0c-0.199,0-0.36,0.161-0.36,0.359c0,0.199,0.161,0.36,0.36,0.36l0,0
		c0.178,0.013,0.344,0.096,0.46,0.23l0.22,0.2c0.496,0.389,1.194,0.389,1.69,0c0.14-0.101,0.26-0.23,0.4-0.34
		c0.204-0.178,0.506-0.178,0.709,0l0.25,0.289c0.515,0.434,1.267,0.434,1.781,0c0.109-0.08,0.199-0.18,0.299-0.27
		c0.219-0.217,0.572-0.217,0.791,0l0.289,0.3c0.361,0.312,0.856,0.414,1.311,0.271c0.264-0.08,0.502-0.229,0.689-0.431
		c0.121-0.148,0.299-0.239,0.49-0.25l0,0c0.202-0.014,0.354-0.188,0.34-0.39s-0.188-0.354-0.39-0.34L95.25,91.955z"/>
	<path fill="#57AD50" d="M118.219,53.116c0.307-0.239,0.692-0.357,1.08-0.33c0.876-0.064,1.658,0.545,1.81,1.41l0.57,3.39
		c-0.455-0.219-0.985-0.219-1.44,0l-0.57-3.39C119.455,53.571,118.879,53.143,118.219,53.116z M122.56,57.996
		c0.276-0.222,0.597-0.383,0.94-0.47l0.899-5.5c0.214-0.625,0.79-1.054,1.45-1.08c-0.306-0.252-0.695-0.381-1.09-0.36
		c-0.887-0.062-1.672,0.563-1.811,1.44l-0.939,5.64C122.206,57.752,122.391,57.862,122.56,57.996z M125.689,57.636L125.689,57.636
		c0.112-0.094,0.232-0.177,0.359-0.25l0.5-3.209c0.211-0.629,0.788-1.063,1.451-1.091c-0.307-0.252-0.695-0.381-1.091-0.36
		c-0.886-0.057-1.667,0.573-1.8,1.451l-0.48,3c0.382,0.068,0.741,0.226,1.051,0.459H125.689z M127.25,58.536L127.25,58.536
		c-0.314-0.008-0.62,0.099-0.861,0.3l-0.34,0.3c-0.201,0.172-0.498,0.172-0.699,0l-0.33-0.279c-0.513-0.429-1.258-0.429-1.77,0
		l-0.341,0.3c-0.2,0.166-0.489,0.166-0.69,0l-0.34-0.32c-0.514-0.425-1.26-0.421-1.77,0.011c-0.11,0.09-0.21,0.189-0.32,0.279
		c-0.066,0.05-0.141,0.088-0.22,0.11c-0.211,0.047-0.432-0.021-0.58-0.181c-0.179-0.154-0.369-0.295-0.57-0.42
		c-0.156-0.083-0.334-0.117-0.51-0.1l0,0c-0.199,0-0.36,0.161-0.36,0.359c0,0.199,0.161,0.36,0.36,0.36l0,0
		c0.178,0.013,0.344,0.096,0.46,0.23l0.22,0.2c0.496,0.389,1.194,0.389,1.69,0c0.14-0.101,0.26-0.23,0.4-0.34
		c0.204-0.178,0.506-0.178,0.709,0l0.25,0.289c0.515,0.434,1.267,0.434,1.781,0c0.109-0.08,0.199-0.18,0.299-0.27
		c0.219-0.217,0.572-0.217,0.791,0l0.289,0.3c0.361,0.312,0.856,0.414,1.311,0.271c0.264-0.08,0.502-0.229,0.689-0.431
		c0.121-0.148,0.299-0.239,0.49-0.25l0,0c0.202-0.014,0.354-0.188,0.34-0.39s-0.188-0.354-0.39-0.34L127.25,58.536z"/>
	<path fill="#57AD50" d="M149.59,21.116c0.308-0.239,0.692-0.357,1.08-0.33c0.877-0.064,1.658,0.545,1.811,1.41l0.57,3.39
		c-0.455-0.219-0.985-0.219-1.44,0l-0.569-3.39C150.826,21.571,150.25,21.142,149.59,21.116z M153.931,25.996
		c0.276-0.222,0.597-0.383,0.94-0.47l0.899-5.5c0.214-0.625,0.79-1.054,1.45-1.08c-0.306-0.252-0.695-0.381-1.09-0.36
		c-0.887-0.062-1.672,0.563-1.811,1.44l-0.939,5.64C153.577,25.751,153.762,25.862,153.931,25.996z M157.061,25.635L157.061,25.635
		c0.112-0.094,0.232-0.177,0.359-0.25l0.5-3.209c0.211-0.629,0.788-1.063,1.451-1.091c-0.307-0.252-0.695-0.381-1.091-0.36
		c-0.886-0.057-1.667,0.573-1.8,1.451l-0.48,3c0.382,0.068,0.741,0.226,1.051,0.459H157.061z M158.621,26.536L158.621,26.536
		c-0.314-0.008-0.62,0.099-0.861,0.3l-0.34,0.3c-0.201,0.172-0.498,0.172-0.699,0l-0.33-0.279c-0.513-0.429-1.258-0.429-1.77,0
		l-0.341,0.3c-0.2,0.166-0.489,0.166-0.69,0l-0.34-0.32c-0.514-0.425-1.26-0.421-1.77,0.011c-0.109,0.09-0.21,0.189-0.32,0.279
		c-0.065,0.05-0.141,0.088-0.22,0.11c-0.212,0.047-0.433-0.021-0.58-0.181c-0.179-0.154-0.369-0.295-0.569-0.42
		c-0.156-0.083-0.334-0.117-0.511-0.1l0,0c-0.198,0-0.36,0.161-0.36,0.359c0,0.199,0.162,0.36,0.36,0.36l0,0
		c0.179,0.013,0.344,0.096,0.46,0.23l0.221,0.2c0.496,0.389,1.193,0.389,1.689,0c0.141-0.101,0.26-0.23,0.4-0.34
		c0.203-0.178,0.506-0.178,0.709,0l0.25,0.289c0.515,0.434,1.267,0.434,1.781,0c0.109-0.08,0.199-0.18,0.299-0.27
		c0.219-0.217,0.572-0.217,0.791,0l0.289,0.3c0.361,0.312,0.856,0.414,1.311,0.271c0.264-0.08,0.502-0.229,0.689-0.431
		c0.121-0.148,0.299-0.239,0.49-0.25l0,0c0.202-0.014,0.354-0.188,0.34-0.39s-0.188-0.354-0.39-0.34L158.621,26.536z"/>
	<path fill="#57AD50" d="M84.54,213.116c0.307-0.239,0.692-0.357,1.08-0.33c0.876-0.064,1.658,0.545,1.81,1.41l0.57,3.39
		c-0.455-0.219-0.985-0.219-1.44,0l-0.57-3.39C85.775,213.571,85.2,213.143,84.54,213.116z M88.88,217.996
		c0.276-0.222,0.597-0.383,0.94-0.47l0.899-5.5c0.214-0.625,0.79-1.055,1.45-1.08c-0.306-0.252-0.695-0.381-1.09-0.36
		c-0.887-0.062-1.672,0.563-1.811,1.44l-0.939,5.64C88.526,217.752,88.711,217.862,88.88,217.996z M92.01,217.636L92.01,217.636
		c0.112-0.094,0.232-0.177,0.359-0.25l0.5-3.209c0.211-0.629,0.788-1.062,1.451-1.091c-0.307-0.252-0.695-0.381-1.091-0.36
		c-0.886-0.057-1.667,0.573-1.8,1.451l-0.48,3c0.382,0.068,0.741,0.226,1.051,0.459H92.01z M93.57,218.536L93.57,218.536
		c-0.314-0.008-0.62,0.099-0.861,0.3l-0.34,0.3c-0.201,0.172-0.498,0.172-0.699,0l-0.33-0.279c-0.513-0.429-1.258-0.429-1.77,0
		l-0.341,0.3c-0.2,0.166-0.489,0.166-0.69,0l-0.34-0.32c-0.514-0.425-1.26-0.421-1.77,0.011c-0.11,0.09-0.21,0.189-0.32,0.279
		c-0.066,0.05-0.141,0.088-0.22,0.11c-0.211,0.047-0.432-0.021-0.58-0.181c-0.179-0.154-0.369-0.295-0.57-0.42
		c-0.156-0.083-0.334-0.117-0.51-0.1l0,0c-0.199,0-0.36,0.161-0.36,0.359c0,0.199,0.161,0.36,0.36,0.36l0,0
		c0.178,0.013,0.344,0.096,0.46,0.23l0.22,0.2c0.496,0.389,1.194,0.389,1.69,0c0.14-0.101,0.26-0.23,0.4-0.34
		c0.204-0.178,0.506-0.178,0.709,0l0.25,0.289c0.515,0.434,1.267,0.434,1.781,0c0.109-0.08,0.199-0.18,0.299-0.27
		c0.219-0.217,0.572-0.217,0.791,0l0.289,0.3c0.361,0.312,0.856,0.414,1.311,0.271c0.264-0.08,0.502-0.229,0.689-0.431
		c0.121-0.148,0.299-0.239,0.49-0.25l0,0c0.202-0.014,0.354-0.188,0.34-0.39s-0.188-0.354-0.39-0.34L93.57,218.536z"/>
	<path fill="#57AD50" d="M116.54,181.116c0.307-0.24,0.692-0.357,1.08-0.33c0.876-0.064,1.658,0.545,1.81,1.41l0.57,3.389
		c-0.455-0.219-0.985-0.219-1.44,0l-0.57-3.389C117.775,181.571,117.2,181.142,116.54,181.116z M120.88,185.995
		c0.276-0.221,0.597-0.383,0.94-0.469l0.899-5.5c0.214-0.625,0.79-1.055,1.45-1.08c-0.306-0.253-0.695-0.381-1.09-0.361
		c-0.887-0.062-1.672,0.563-1.811,1.441l-0.939,5.639C120.526,185.751,120.711,185.862,120.88,185.995z M124.01,185.636
		L124.01,185.636c0.112-0.094,0.232-0.178,0.359-0.25l0.5-3.209c0.211-0.63,0.788-1.063,1.451-1.092
		c-0.307-0.252-0.695-0.381-1.091-0.359c-0.886-0.057-1.667,0.572-1.8,1.451l-0.48,3c0.382,0.068,0.741,0.225,1.051,0.459H124.01z
		 M125.57,186.536L125.57,186.536c-0.314-0.008-0.62,0.098-0.861,0.299l-0.34,0.301c-0.201,0.172-0.498,0.172-0.699,0l-0.33-0.279
		c-0.513-0.43-1.258-0.43-1.77,0l-0.341,0.299c-0.2,0.166-0.489,0.166-0.69,0l-0.34-0.32c-0.514-0.424-1.26-0.42-1.77,0.012
		c-0.11,0.09-0.21,0.189-0.32,0.279c-0.066,0.049-0.141,0.088-0.22,0.109c-0.211,0.047-0.432-0.021-0.58-0.18
		c-0.179-0.154-0.369-0.295-0.57-0.42c-0.156-0.084-0.334-0.117-0.51-0.1l0,0c-0.199,0-0.36,0.16-0.36,0.359s0.161,0.359,0.36,0.359
		l0,0c0.178,0.014,0.344,0.096,0.46,0.23l0.22,0.201c0.496,0.389,1.194,0.389,1.69,0c0.14-0.102,0.26-0.23,0.4-0.34
		c0.204-0.178,0.506-0.178,0.709,0l0.25,0.289c0.515,0.434,1.267,0.434,1.781,0c0.109-0.08,0.199-0.18,0.299-0.27
		c0.219-0.217,0.572-0.217,0.791,0l0.289,0.299c0.361,0.312,0.856,0.414,1.311,0.271c0.264-0.08,0.502-0.229,0.689-0.432
		c0.121-0.148,0.299-0.238,0.49-0.25l0,0c0.202-0.014,0.354-0.188,0.34-0.389s-0.188-0.354-0.39-0.34L125.57,186.536z"/>
	<path fill="#57AD50" d="M148.539,149.116c0.308-0.24,0.692-0.357,1.08-0.33c0.877-0.064,1.658,0.545,1.811,1.41l0.57,3.389
		c-0.455-0.219-0.985-0.219-1.44,0l-0.569-3.389C149.775,149.571,149.199,149.142,148.539,149.116z M152.88,153.995
		c0.276-0.221,0.597-0.383,0.94-0.469l0.899-5.5c0.214-0.625,0.79-1.055,1.45-1.08c-0.306-0.253-0.695-0.381-1.09-0.361
		c-0.887-0.062-1.672,0.563-1.811,1.441l-0.939,5.639C152.526,153.751,152.711,153.862,152.88,153.995z M156.01,153.636
		L156.01,153.636c0.112-0.094,0.232-0.178,0.359-0.25l0.5-3.209c0.211-0.63,0.788-1.063,1.451-1.092
		c-0.307-0.252-0.695-0.381-1.091-0.359c-0.886-0.057-1.667,0.572-1.8,1.451l-0.48,3c0.382,0.068,0.741,0.225,1.051,0.459H156.01z
		 M157.57,154.536L157.57,154.536c-0.314-0.008-0.62,0.098-0.861,0.299l-0.34,0.301c-0.201,0.172-0.498,0.172-0.699,0l-0.33-0.279
		c-0.513-0.43-1.258-0.43-1.77,0l-0.341,0.299c-0.2,0.166-0.489,0.166-0.69,0l-0.34-0.32c-0.514-0.424-1.26-0.42-1.77,0.012
		c-0.109,0.09-0.21,0.189-0.32,0.279c-0.065,0.049-0.141,0.088-0.22,0.109c-0.212,0.047-0.433-0.021-0.58-0.18
		c-0.179-0.154-0.369-0.295-0.569-0.42c-0.156-0.084-0.334-0.117-0.511-0.1l0,0c-0.198,0-0.36,0.16-0.36,0.359
		s0.162,0.359,0.36,0.359l0,0c0.179,0.014,0.344,0.096,0.46,0.23l0.221,0.201c0.496,0.389,1.193,0.389,1.689,0
		c0.141-0.102,0.26-0.23,0.4-0.34c0.203-0.178,0.506-0.178,0.709,0l0.25,0.289c0.515,0.434,1.267,0.434,1.781,0
		c0.109-0.08,0.199-0.18,0.299-0.27c0.219-0.217,0.572-0.217,0.791,0l0.289,0.299c0.361,0.312,0.856,0.414,1.311,0.271
		c0.264-0.08,0.502-0.229,0.689-0.432c0.121-0.148,0.299-0.238,0.49-0.25l0,0c0.202-0.014,0.354-0.188,0.34-0.389
		s-0.188-0.354-0.39-0.34L157.57,154.536z"/>
	<path fill="#57AD50" d="M180.539,118.062c0.308-0.239,0.692-0.357,1.08-0.33c0.877-0.064,1.658,0.545,1.811,1.41l0.57,3.39
		c-0.455-0.219-0.985-0.219-1.44,0l-0.569-3.39C181.775,118.517,181.199,118.088,180.539,118.062z M184.88,122.941
		c0.276-0.222,0.597-0.383,0.94-0.47l0.899-5.5c0.214-0.625,0.79-1.054,1.45-1.08c-0.306-0.252-0.695-0.381-1.09-0.36
		c-0.887-0.062-1.672,0.563-1.811,1.44l-0.939,5.64C184.526,122.697,184.711,122.808,184.88,122.941z M188.01,122.581
		L188.01,122.581c0.112-0.094,0.232-0.177,0.359-0.25l0.5-3.209c0.211-0.629,0.788-1.063,1.451-1.091
		c-0.307-0.252-0.695-0.381-1.091-0.36c-0.886-0.057-1.667,0.573-1.8,1.451l-0.48,3c0.382,0.068,0.741,0.226,1.051,0.459H188.01z
		 M189.57,123.481L189.57,123.481c-0.314-0.008-0.62,0.099-0.861,0.3l-0.34,0.3c-0.201,0.172-0.498,0.172-0.699,0l-0.33-0.279
		c-0.513-0.429-1.258-0.429-1.77,0l-0.341,0.3c-0.2,0.166-0.489,0.166-0.69,0l-0.34-0.32c-0.514-0.425-1.26-0.421-1.77,0.011
		c-0.109,0.09-0.21,0.189-0.32,0.279c-0.065,0.05-0.141,0.088-0.22,0.11c-0.212,0.047-0.433-0.021-0.58-0.181
		c-0.179-0.154-0.369-0.295-0.569-0.42c-0.156-0.083-0.334-0.117-0.511-0.1l0,0c-0.198,0-0.36,0.161-0.36,0.359
		c0,0.199,0.162,0.36,0.36,0.36l0,0c0.179,0.013,0.344,0.096,0.46,0.23l0.221,0.2c0.496,0.389,1.193,0.389,1.689,0
		c0.141-0.101,0.26-0.23,0.4-0.34c0.203-0.178,0.506-0.178,0.709,0l0.25,0.289c0.515,0.434,1.267,0.434,1.781,0
		c0.109-0.08,0.199-0.18,0.299-0.27c0.219-0.217,0.572-0.217,0.791,0l0.289,0.3c0.361,0.312,0.856,0.414,1.311,0.271
		c0.264-0.08,0.502-0.229,0.689-0.431c0.121-0.148,0.299-0.239,0.49-0.25l0,0c0.202-0.014,0.354-0.188,0.34-0.39
		s-0.188-0.354-0.39-0.34L189.57,123.481z"/>
	<path fill="#57AD50" d="M212.67,86.535c0.308-0.239,0.692-0.357,1.08-0.33c0.877-0.064,1.658,0.545,1.811,1.41l0.57,3.39
		c-0.455-0.219-0.985-0.219-1.44,0l-0.569-3.39C213.906,86.99,213.33,86.561,212.67,86.535z M217.011,91.415
		c0.276-0.222,0.597-0.383,0.94-0.47l0.899-5.5c0.214-0.625,0.79-1.054,1.45-1.08c-0.306-0.252-0.695-0.381-1.09-0.36
		c-0.887-0.062-1.672,0.563-1.811,1.44l-0.939,5.64C216.657,91.17,216.842,91.281,217.011,91.415z M220.141,91.054L220.141,91.054
		c0.112-0.094,0.232-0.177,0.359-0.25l0.5-3.209c0.211-0.629,0.788-1.063,1.451-1.091c-0.307-0.252-0.695-0.381-1.091-0.36
		c-0.886-0.057-1.667,0.573-1.8,1.451l-0.48,3c0.382,0.068,0.741,0.226,1.051,0.459H220.141z M221.701,91.955L221.701,91.955
		c-0.314-0.008-0.62,0.099-0.861,0.3l-0.34,0.3c-0.201,0.172-0.498,0.172-0.699,0l-0.33-0.279c-0.513-0.429-1.258-0.429-1.77,0
		l-0.341,0.3c-0.2,0.166-0.489,0.166-0.69,0l-0.34-0.32c-0.514-0.425-1.26-0.421-1.77,0.011c-0.109,0.09-0.21,0.189-0.32,0.279
		c-0.065,0.05-0.141,0.088-0.22,0.11c-0.212,0.047-0.433-0.021-0.58-0.181c-0.179-0.154-0.369-0.295-0.569-0.42
		c-0.156-0.083-0.334-0.117-0.511-0.1l0,0c-0.198,0-0.36,0.161-0.36,0.359c0,0.199,0.162,0.36,0.36,0.36l0,0
		c0.179,0.013,0.344,0.096,0.46,0.23l0.221,0.2c0.496,0.389,1.193,0.389,1.689,0c0.141-0.101,0.26-0.23,0.4-0.34
		c0.203-0.178,0.506-0.178,0.709,0l0.25,0.289c0.515,0.434,1.267,0.434,1.781,0c0.109-0.08,0.199-0.18,0.299-0.27
		c0.219-0.217,0.572-0.217,0.791,0l0.289,0.3c0.361,0.312,0.856,0.414,1.311,0.271c0.264-0.08,0.502-0.229,0.689-0.431
		c0.121-0.148,0.299-0.239,0.49-0.25l0,0c0.202-0.014,0.354-0.188,0.34-0.39s-0.188-0.354-0.39-0.34L221.701,91.955z"/>
	<path fill="#57AD50" d="M116.67,245.131c0.307-0.239,0.692-0.357,1.08-0.33c0.876-0.064,1.658,0.545,1.81,1.41l0.57,3.39
		c-0.455-0.219-0.985-0.219-1.44,0l-0.57-3.39C117.906,245.586,117.331,245.157,116.67,245.131z M121.011,250.011
		c0.276-0.222,0.597-0.383,0.94-0.47l0.899-5.5c0.214-0.625,0.79-1.055,1.45-1.08c-0.306-0.252-0.695-0.381-1.09-0.36
		c-0.887-0.062-1.672,0.563-1.811,1.44l-0.939,5.64C120.657,249.767,120.842,249.877,121.011,250.011z M124.141,249.65
		L124.141,249.65c0.112-0.094,0.232-0.177,0.359-0.25l0.5-3.209c0.211-0.629,0.788-1.062,1.451-1.091
		c-0.307-0.252-0.695-0.381-1.091-0.36c-0.886-0.057-1.667,0.573-1.8,1.451l-0.48,3c0.382,0.068,0.741,0.226,1.051,0.459H124.141z
		 M125.701,250.551L125.701,250.551c-0.314-0.008-0.62,0.099-0.861,0.3l-0.34,0.3c-0.201,0.172-0.498,0.172-0.699,0l-0.33-0.279
		c-0.513-0.429-1.258-0.429-1.77,0l-0.341,0.3c-0.2,0.166-0.489,0.166-0.69,0l-0.34-0.32c-0.514-0.425-1.26-0.421-1.77,0.011
		c-0.11,0.09-0.21,0.189-0.32,0.279c-0.066,0.05-0.141,0.088-0.22,0.11c-0.211,0.047-0.432-0.021-0.58-0.181
		c-0.179-0.154-0.369-0.295-0.57-0.42c-0.156-0.083-0.334-0.117-0.51-0.1l0,0c-0.199,0-0.36,0.161-0.36,0.359
		c0,0.199,0.161,0.36,0.36,0.36l0,0c0.178,0.013,0.344,0.096,0.46,0.23l0.22,0.2c0.496,0.389,1.194,0.389,1.69,0
		c0.14-0.101,0.26-0.23,0.4-0.34c0.204-0.178,0.506-0.178,0.709,0l0.25,0.289c0.515,0.434,1.267,0.434,1.781,0
		c0.109-0.08,0.199-0.18,0.299-0.27c0.219-0.217,0.572-0.217,0.791,0l0.289,0.3c0.361,0.312,0.856,0.414,1.311,0.271
		c0.264-0.08,0.502-0.229,0.689-0.431c0.121-0.148,0.299-0.239,0.49-0.25l0,0c0.202-0.014,0.354-0.188,0.34-0.39
		s-0.188-0.354-0.39-0.34L125.701,250.551z"/>
	<path fill="#57AD50" d="M148.67,213.131c0.308-0.24,0.692-0.357,1.08-0.33c0.877-0.064,1.658,0.545,1.811,1.41l0.57,3.389
		c-0.455-0.219-0.985-0.219-1.44,0l-0.569-3.389C149.906,213.586,149.33,213.156,148.67,213.131z M153.011,218.01
		c0.276-0.221,0.597-0.383,0.94-0.469l0.899-5.5c0.214-0.625,0.79-1.055,1.45-1.08c-0.306-0.253-0.695-0.381-1.09-0.361
		c-0.887-0.062-1.672,0.563-1.811,1.441l-0.939,5.639C152.657,217.766,152.842,217.877,153.011,218.01z M156.141,217.65
		L156.141,217.65c0.112-0.094,0.232-0.178,0.359-0.25l0.5-3.209c0.211-0.63,0.788-1.063,1.451-1.092
		c-0.307-0.252-0.695-0.381-1.091-0.359c-0.886-0.057-1.667,0.572-1.8,1.451l-0.48,3c0.382,0.068,0.741,0.225,1.051,0.459H156.141z
		 M157.701,218.551L157.701,218.551c-0.314-0.008-0.62,0.098-0.861,0.299l-0.34,0.301c-0.201,0.172-0.498,0.172-0.699,0l-0.33-0.279
		c-0.513-0.43-1.258-0.43-1.77,0l-0.341,0.299c-0.2,0.166-0.489,0.166-0.69,0l-0.34-0.32c-0.514-0.424-1.26-0.42-1.77,0.012
		c-0.109,0.09-0.21,0.189-0.32,0.279c-0.065,0.049-0.141,0.088-0.22,0.109c-0.212,0.047-0.433-0.021-0.58-0.18
		c-0.179-0.154-0.369-0.295-0.569-0.42c-0.156-0.084-0.334-0.117-0.511-0.1l0,0c-0.198,0-0.36,0.16-0.36,0.359
		s0.162,0.359,0.36,0.359l0,0c0.179,0.014,0.344,0.096,0.46,0.23l0.221,0.201c0.496,0.389,1.193,0.389,1.689,0
		c0.141-0.102,0.26-0.23,0.4-0.34c0.203-0.178,0.506-0.178,0.709,0l0.25,0.289c0.515,0.434,1.267,0.434,1.781,0
		c0.109-0.08,0.199-0.18,0.299-0.27c0.219-0.217,0.572-0.217,0.791,0l0.289,0.299c0.361,0.312,0.856,0.414,1.311,0.271
		c0.264-0.08,0.502-0.229,0.689-0.432c0.121-0.148,0.299-0.238,0.49-0.25l0,0c0.202-0.014,0.354-0.188,0.34-0.389
		s-0.188-0.354-0.39-0.34L157.701,218.551z"/>
	<path fill="#57AD50" d="M180.67,181.131c0.308-0.24,0.692-0.357,1.08-0.33c0.877-0.064,1.658,0.545,1.811,1.41l0.57,3.389
		c-0.455-0.219-0.985-0.219-1.44,0l-0.569-3.389C181.906,181.586,181.33,181.156,180.67,181.131z M185.011,186.01
		c0.276-0.221,0.597-0.383,0.94-0.469l0.899-5.5c0.214-0.625,0.79-1.055,1.45-1.08c-0.306-0.253-0.695-0.381-1.09-0.361
		c-0.887-0.062-1.672,0.563-1.811,1.441l-0.939,5.639C184.657,185.766,184.842,185.877,185.011,186.01z M188.141,185.65
		L188.141,185.65c0.112-0.094,0.232-0.178,0.359-0.25l0.5-3.209c0.211-0.63,0.788-1.063,1.451-1.092
		c-0.307-0.252-0.695-0.381-1.091-0.359c-0.886-0.057-1.667,0.572-1.8,1.451l-0.48,3c0.382,0.068,0.741,0.225,1.051,0.459H188.141z
		 M189.701,186.551L189.701,186.551c-0.314-0.008-0.62,0.098-0.861,0.299l-0.34,0.301c-0.201,0.172-0.498,0.172-0.699,0l-0.33-0.279
		c-0.513-0.43-1.258-0.43-1.77,0l-0.341,0.299c-0.2,0.166-0.489,0.166-0.69,0l-0.34-0.32c-0.514-0.424-1.26-0.42-1.77,0.012
		c-0.109,0.09-0.21,0.189-0.32,0.279c-0.065,0.049-0.141,0.088-0.22,0.109c-0.212,0.047-0.433-0.021-0.58-0.18
		c-0.179-0.154-0.369-0.295-0.569-0.42c-0.156-0.084-0.334-0.117-0.511-0.1l0,0c-0.198,0-0.36,0.16-0.36,0.359
		s0.162,0.359,0.36,0.359l0,0c0.179,0.014,0.344,0.096,0.46,0.23l0.221,0.201c0.496,0.389,1.193,0.389,1.689,0
		c0.141-0.102,0.26-0.23,0.4-0.34c0.203-0.178,0.506-0.178,0.709,0l0.25,0.289c0.515,0.434,1.267,0.434,1.781,0
		c0.109-0.08,0.199-0.18,0.299-0.27c0.219-0.217,0.572-0.217,0.791,0l0.289,0.299c0.361,0.312,0.856,0.414,1.311,0.271
		c0.264-0.08,0.502-0.229,0.689-0.432c0.121-0.148,0.299-0.238,0.49-0.25l0,0c0.202-0.014,0.354-0.188,0.34-0.389
		s-0.188-0.354-0.39-0.34L189.701,186.551z"/>
	<path fill="#57AD50" d="M212.67,149.116c0.308-0.239,0.692-0.356,1.08-0.33c0.877-0.064,1.658,0.545,1.811,1.41l0.57,3.39
		c-0.455-0.219-0.985-0.219-1.44,0l-0.569-3.39C213.906,149.571,213.33,149.143,212.67,149.116z M217.011,153.996
		c0.276-0.222,0.597-0.383,0.94-0.47l0.899-5.5c0.214-0.625,0.79-1.054,1.45-1.08c-0.306-0.253-0.695-0.381-1.09-0.36
		c-0.887-0.062-1.672,0.562-1.811,1.44l-0.939,5.64C216.657,153.752,216.842,153.862,217.011,153.996z M220.141,153.636
		L220.141,153.636c0.112-0.094,0.232-0.177,0.359-0.25l0.5-3.209c0.211-0.63,0.788-1.063,1.451-1.091
		c-0.307-0.252-0.695-0.381-1.091-0.359c-0.886-0.057-1.667,0.572-1.8,1.45l-0.48,3c0.382,0.068,0.741,0.226,1.051,0.459H220.141z
		 M221.701,154.536L221.701,154.536c-0.314-0.008-0.62,0.099-0.861,0.3l-0.34,0.3c-0.201,0.172-0.498,0.172-0.699,0l-0.33-0.279
		c-0.513-0.429-1.258-0.429-1.77,0l-0.341,0.3c-0.2,0.166-0.489,0.166-0.69,0l-0.34-0.32c-0.514-0.425-1.26-0.421-1.77,0.011
		c-0.109,0.09-0.21,0.189-0.32,0.279c-0.065,0.05-0.141,0.088-0.22,0.11c-0.212,0.047-0.433-0.021-0.58-0.181
		c-0.179-0.154-0.369-0.295-0.569-0.42c-0.156-0.083-0.334-0.117-0.511-0.1l0,0c-0.198,0-0.36,0.161-0.36,0.359
		c0,0.199,0.162,0.36,0.36,0.36l0,0c0.179,0.013,0.344,0.096,0.46,0.23l0.221,0.2c0.496,0.389,1.193,0.389,1.689,0
		c0.141-0.101,0.26-0.23,0.4-0.34c0.203-0.178,0.506-0.178,0.709,0l0.25,0.289c0.515,0.434,1.267,0.434,1.781,0
		c0.109-0.08,0.199-0.18,0.299-0.27c0.219-0.217,0.572-0.217,0.791,0l0.289,0.3c0.361,0.312,0.856,0.414,1.311,0.271
		c0.264-0.08,0.502-0.229,0.689-0.431c0.121-0.148,0.299-0.239,0.49-0.25l0,0c0.202-0.014,0.354-0.188,0.34-0.39
		s-0.188-0.354-0.39-0.34L221.701,154.536z"/>
	<path fill="#57AD50" d="M244.67,117.116c0.308-0.239,0.692-0.357,1.08-0.33c0.877-0.064,1.658,0.545,1.811,1.41l0.57,3.39
		c-0.455-0.219-0.985-0.219-1.44,0l-0.569-3.39C245.906,117.571,245.33,117.142,244.67,117.116z M249.011,121.996
		c0.276-0.222,0.597-0.383,0.94-0.47l0.899-5.5c0.214-0.625,0.79-1.054,1.45-1.08c-0.306-0.252-0.695-0.381-1.09-0.36
		c-0.887-0.062-1.672,0.563-1.811,1.44l-0.939,5.64C248.657,121.751,248.842,121.862,249.011,121.996z M252.141,121.635
		L252.141,121.635c0.112-0.094,0.232-0.177,0.359-0.25l0.5-3.209c0.211-0.629,0.788-1.063,1.451-1.091
		c-0.307-0.252-0.695-0.381-1.091-0.36c-0.886-0.057-1.667,0.573-1.8,1.451l-0.48,3c0.382,0.068,0.741,0.226,1.051,0.459H252.141z
		 M253.701,122.536L253.701,122.536c-0.314-0.008-0.62,0.099-0.861,0.3l-0.34,0.3c-0.201,0.172-0.498,0.172-0.699,0l-0.33-0.279
		c-0.513-0.429-1.258-0.429-1.77,0l-0.341,0.3c-0.2,0.166-0.489,0.166-0.69,0l-0.34-0.32c-0.514-0.425-1.26-0.421-1.77,0.011
		c-0.109,0.09-0.21,0.189-0.32,0.279c-0.065,0.05-0.141,0.088-0.22,0.11c-0.212,0.047-0.433-0.021-0.58-0.181
		c-0.179-0.154-0.369-0.295-0.569-0.42c-0.156-0.083-0.334-0.117-0.511-0.1l0,0c-0.198,0-0.36,0.161-0.36,0.359
		c0,0.199,0.162,0.36,0.36,0.36l0,0c0.179,0.013,0.344,0.096,0.46,0.23l0.221,0.2c0.496,0.389,1.193,0.389,1.689,0
		c0.141-0.101,0.26-0.23,0.4-0.34c0.203-0.178,0.506-0.178,0.709,0l0.25,0.289c0.515,0.434,1.267,0.434,1.781,0
		c0.109-0.08,0.199-0.18,0.299-0.27c0.219-0.217,0.572-0.217,0.791,0l0.289,0.3c0.361,0.312,0.856,0.414,1.311,0.271
		c0.264-0.08,0.502-0.229,0.689-0.431c0.121-0.148,0.299-0.239,0.49-0.25l0,0c0.202-0.014,0.354-0.188,0.34-0.39
		s-0.188-0.354-0.39-0.34L253.701,122.536z"/>
	<path fill="#57AD50" d="M52.67,245.116c0.307-0.239,0.692-0.357,1.08-0.33c0.876-0.064,1.658,0.545,1.81,1.41l0.57,3.39
		c-0.455-0.219-0.985-0.219-1.44,0l-0.57-3.39C53.906,245.571,53.33,245.143,52.67,245.116z M57.01,249.996
		c0.276-0.222,0.597-0.383,0.94-0.47l0.899-5.5c0.214-0.625,0.79-1.055,1.45-1.08c-0.306-0.252-0.695-0.381-1.09-0.36
		c-0.887-0.062-1.672,0.563-1.811,1.44l-0.939,5.64C56.657,249.752,56.841,249.862,57.01,249.996z M60.14,249.636L60.14,249.636
		c0.112-0.094,0.232-0.177,0.359-0.25l0.5-3.209c0.211-0.629,0.788-1.062,1.451-1.091c-0.307-0.252-0.695-0.381-1.091-0.36
		c-0.886-0.057-1.667,0.573-1.8,1.451l-0.48,3c0.382,0.068,0.741,0.226,1.051,0.459H60.14z M61.701,250.536L61.701,250.536
		c-0.314-0.008-0.62,0.099-0.861,0.3l-0.34,0.3c-0.201,0.172-0.498,0.172-0.699,0l-0.33-0.279c-0.513-0.429-1.258-0.429-1.77,0
		l-0.341,0.3c-0.2,0.166-0.489,0.166-0.69,0l-0.34-0.32c-0.514-0.425-1.26-0.421-1.77,0.011c-0.11,0.09-0.21,0.189-0.32,0.279
		c-0.066,0.05-0.141,0.088-0.22,0.11c-0.211,0.047-0.432-0.021-0.58-0.181c-0.179-0.154-0.369-0.295-0.57-0.42
		c-0.156-0.083-0.334-0.117-0.51-0.1l0,0c-0.199,0-0.36,0.161-0.36,0.359c0,0.199,0.161,0.36,0.36,0.36l0,0
		c0.178,0.013,0.344,0.096,0.46,0.23l0.22,0.2c0.496,0.389,1.194,0.389,1.69,0c0.14-0.101,0.26-0.23,0.4-0.34
		c0.204-0.178,0.506-0.178,0.709,0l0.25,0.289c0.515,0.434,1.267,0.434,1.781,0c0.109-0.08,0.199-0.18,0.299-0.27
		c0.219-0.217,0.572-0.217,0.791,0l0.289,0.3c0.361,0.312,0.856,0.414,1.311,0.271c0.264-0.08,0.502-0.229,0.689-0.431
		c0.121-0.148,0.299-0.239,0.49-0.25l0,0c0.202-0.014,0.354-0.188,0.34-0.39s-0.188-0.354-0.39-0.34L61.701,250.536z"/>
	<path fill="#57AD50" d="M244.67,53.116c0.308-0.239,0.692-0.357,1.08-0.33c0.877-0.064,1.658,0.545,1.811,1.41l0.57,3.39
		c-0.455-0.219-0.985-0.219-1.44,0l-0.569-3.39C245.906,53.571,245.33,53.142,244.67,53.116z M249.011,57.996
		c0.276-0.222,0.597-0.383,0.94-0.47l0.899-5.5c0.214-0.625,0.79-1.055,1.45-1.08c-0.306-0.252-0.695-0.381-1.09-0.36
		c-0.887-0.062-1.672,0.563-1.811,1.44l-0.939,5.64C248.657,57.751,248.842,57.862,249.011,57.996z M252.141,57.635L252.141,57.635
		c0.112-0.094,0.232-0.177,0.359-0.25l0.5-3.209c0.211-0.629,0.788-1.062,1.451-1.091c-0.307-0.252-0.695-0.381-1.091-0.36
		c-0.886-0.057-1.667,0.573-1.8,1.451l-0.48,3c0.382,0.068,0.741,0.226,1.051,0.459H252.141z M253.701,58.536L253.701,58.536
		c-0.314-0.008-0.62,0.099-0.861,0.3l-0.34,0.3c-0.201,0.172-0.498,0.172-0.699,0l-0.33-0.279c-0.513-0.429-1.258-0.429-1.77,0
		l-0.341,0.3c-0.2,0.166-0.489,0.166-0.69,0l-0.34-0.32c-0.514-0.425-1.26-0.421-1.77,0.011c-0.109,0.09-0.21,0.189-0.32,0.279
		c-0.065,0.05-0.141,0.088-0.22,0.11c-0.212,0.047-0.433-0.021-0.58-0.181c-0.179-0.154-0.369-0.295-0.569-0.42
		c-0.156-0.083-0.334-0.117-0.511-0.1l0,0c-0.198,0-0.36,0.161-0.36,0.359c0,0.199,0.162,0.36,0.36,0.36l0,0
		c0.179,0.013,0.344,0.096,0.46,0.23l0.221,0.2c0.496,0.389,1.193,0.389,1.689,0c0.141-0.101,0.26-0.23,0.4-0.34
		c0.203-0.178,0.506-0.178,0.709,0l0.25,0.289c0.515,0.434,1.267,0.434,1.781,0c0.109-0.08,0.199-0.18,0.299-0.27
		c0.219-0.217,0.572-0.217,0.791,0l0.289,0.3c0.361,0.312,0.856,0.414,1.311,0.271c0.264-0.08,0.502-0.229,0.689-0.431
		c0.121-0.148,0.299-0.239,0.49-0.25l0,0c0.202-0.014,0.354-0.188,0.34-0.39s-0.188-0.354-0.39-0.34L253.701,58.536z"/>
	<path fill="#57AD50" d="M18.848,85.116c0.307-0.239,0.692-0.357,1.08-0.33c0.876-0.064,1.658,0.545,1.81,1.41l0.57,3.39
		c-0.455-0.219-0.985-0.219-1.44,0l-0.57-3.39C20.084,85.571,19.508,85.142,18.848,85.116z M23.188,89.996
		c0.276-0.222,0.597-0.383,0.94-0.47l0.899-5.5c0.214-0.625,0.79-1.055,1.45-1.08c-0.306-0.252-0.695-0.381-1.09-0.36
		c-0.887-0.062-1.672,0.563-1.811,1.44l-0.939,5.64C22.835,89.751,23.02,89.862,23.188,89.996z M26.318,89.635L26.318,89.635
		c0.112-0.094,0.232-0.177,0.359-0.25l0.5-3.209c0.211-0.629,0.788-1.062,1.451-1.091c-0.307-0.252-0.695-0.381-1.091-0.36
		c-0.886-0.057-1.667,0.573-1.8,1.451l-0.48,3c0.382,0.068,0.741,0.226,1.051,0.459H26.318z M27.879,90.536L27.879,90.536
		c-0.314-0.008-0.62,0.099-0.861,0.3l-0.34,0.3c-0.201,0.172-0.498,0.172-0.699,0l-0.33-0.279c-0.513-0.429-1.258-0.429-1.77,0
		l-0.341,0.3c-0.2,0.166-0.489,0.166-0.69,0l-0.34-0.32c-0.514-0.425-1.26-0.421-1.77,0.011c-0.11,0.09-0.21,0.189-0.32,0.279
		c-0.066,0.05-0.141,0.088-0.22,0.11c-0.211,0.047-0.432-0.021-0.58-0.181c-0.179-0.154-0.369-0.295-0.57-0.42
		c-0.156-0.083-0.334-0.117-0.51-0.1l0,0c-0.199,0-0.36,0.161-0.36,0.359c0,0.199,0.161,0.36,0.36,0.36l0,0
		c0.178,0.013,0.344,0.096,0.46,0.23l0.22,0.2c0.496,0.389,1.194,0.389,1.69,0c0.14-0.101,0.26-0.23,0.4-0.34
		c0.204-0.178,0.506-0.178,0.709,0l0.25,0.289c0.515,0.434,1.267,0.434,1.781,0c0.109-0.08,0.199-0.18,0.299-0.27
		c0.219-0.217,0.572-0.217,0.791,0l0.289,0.3c0.361,0.312,0.856,0.414,1.311,0.271c0.264-0.08,0.502-0.229,0.689-0.431
		c0.121-0.148,0.299-0.239,0.49-0.25l0,0c0.202-0.014,0.354-0.188,0.34-0.39s-0.188-0.354-0.39-0.34L27.879,90.536z"/>
	<path fill="#57AD50" d="M50.848,53.116c0.307-0.24,0.692-0.357,1.08-0.33c0.876-0.064,1.658,0.545,1.81,1.41l0.57,3.389
		c-0.455-0.219-0.985-0.219-1.44,0l-0.57-3.389C52.084,53.571,51.508,53.141,50.848,53.116z M55.188,57.995
		c0.276-0.221,0.597-0.383,0.94-0.469l0.899-5.5c0.214-0.625,0.79-1.055,1.45-1.08c-0.306-0.253-0.695-0.381-1.09-0.361
		c-0.887-0.062-1.672,0.563-1.811,1.441l-0.939,5.639C54.835,57.75,55.02,57.862,55.188,57.995z M58.318,57.635L58.318,57.635
		c0.112-0.094,0.232-0.178,0.359-0.25l0.5-3.209c0.211-0.63,0.788-1.063,1.451-1.092c-0.307-0.252-0.695-0.381-1.091-0.359
		c-0.886-0.057-1.667,0.572-1.8,1.451l-0.48,3c0.382,0.068,0.741,0.225,1.051,0.459H58.318z M59.879,58.536L59.879,58.536
		c-0.314-0.008-0.62,0.098-0.861,0.299l-0.34,0.301c-0.201,0.172-0.498,0.172-0.699,0l-0.33-0.279c-0.513-0.43-1.258-0.43-1.77,0
		l-0.341,0.299c-0.2,0.166-0.489,0.166-0.69,0l-0.34-0.32c-0.514-0.424-1.26-0.42-1.77,0.012c-0.11,0.09-0.21,0.189-0.32,0.279
		c-0.066,0.049-0.141,0.088-0.22,0.109c-0.211,0.047-0.432-0.021-0.58-0.18c-0.179-0.154-0.369-0.295-0.57-0.42
		c-0.156-0.084-0.334-0.117-0.51-0.1l0,0c-0.199,0-0.36,0.16-0.36,0.359s0.161,0.359,0.36,0.359l0,0
		c0.178,0.014,0.344,0.096,0.46,0.23l0.22,0.201c0.496,0.389,1.194,0.389,1.69,0c0.14-0.102,0.26-0.23,0.4-0.34
		c0.204-0.178,0.506-0.178,0.709,0l0.25,0.289c0.515,0.434,1.267,0.434,1.781,0c0.109-0.08,0.199-0.18,0.299-0.27
		c0.219-0.217,0.572-0.217,0.791,0l0.289,0.299c0.361,0.312,0.856,0.414,1.311,0.271c0.264-0.08,0.502-0.229,0.689-0.432
		c0.121-0.148,0.299-0.238,0.49-0.25l0,0c0.202-0.014,0.354-0.188,0.34-0.389s-0.188-0.354-0.39-0.34L59.879,58.536z"/>
	<path fill="#57AD50" d="M82.848,21.115c0.307-0.239,0.692-0.357,1.08-0.33c0.876-0.064,1.658,0.545,1.81,1.411l0.57,3.389
		c-0.455-0.219-0.985-0.219-1.44,0l-0.57-3.389C84.084,21.57,83.508,21.142,82.848,21.115z M87.188,25.995
		c0.276-0.221,0.597-0.383,0.94-0.469l0.899-5.5c0.214-0.625,0.79-1.054,1.45-1.08c-0.306-0.252-0.695-0.381-1.09-0.36
		c-0.887-0.062-1.672,0.563-1.811,1.44l-0.939,5.639C86.835,25.75,87.02,25.862,87.188,25.995z M90.318,25.635L90.318,25.635
		c0.112-0.094,0.232-0.178,0.359-0.25l0.5-3.209c0.211-0.63,0.788-1.063,1.451-1.091c-0.307-0.252-0.695-0.381-1.091-0.36
		c-0.886-0.057-1.667,0.573-1.8,1.451l-0.48,3c0.382,0.068,0.741,0.225,1.051,0.459H90.318z M91.879,26.536L91.879,26.536
		c-0.314-0.008-0.62,0.098-0.861,0.299l-0.34,0.301c-0.201,0.172-0.498,0.172-0.699,0l-0.33-0.279c-0.513-0.43-1.258-0.43-1.77,0
		l-0.341,0.299c-0.2,0.166-0.489,0.166-0.69,0l-0.34-0.32c-0.514-0.424-1.26-0.42-1.77,0.012c-0.11,0.09-0.21,0.189-0.32,0.279
		c-0.066,0.049-0.141,0.088-0.22,0.109c-0.211,0.047-0.432-0.021-0.58-0.18c-0.179-0.154-0.369-0.295-0.57-0.42
		c-0.156-0.084-0.334-0.117-0.51-0.1l0,0c-0.199,0-0.36,0.16-0.36,0.359s0.161,0.359,0.36,0.359l0,0
		c0.178,0.014,0.344,0.096,0.46,0.23l0.22,0.201c0.496,0.389,1.194,0.389,1.69,0c0.14-0.102,0.26-0.23,0.4-0.34
		c0.204-0.178,0.506-0.178,0.709,0l0.25,0.289c0.515,0.434,1.267,0.434,1.781,0c0.109-0.08,0.199-0.18,0.299-0.27
		c0.219-0.217,0.572-0.217,0.791,0l0.289,0.299c0.361,0.312,0.856,0.414,1.311,0.271c0.264-0.08,0.502-0.229,0.689-0.432
		c0.121-0.148,0.299-0.238,0.49-0.25l0,0c0.202-0.014,0.354-0.188,0.34-0.389s-0.188-0.354-0.39-0.34L91.879,26.536z"/>
	<path fill="#57AD50" d="M20.67,22.535c0.308-0.239,0.692-0.357,1.08-0.33c0.877-0.064,1.658,0.545,1.811,1.41l0.57,3.39
		c-0.455-0.219-0.985-0.219-1.44,0l-0.569-3.39C21.906,22.99,21.33,22.561,20.67,22.535z M25.011,27.415
		c0.276-0.222,0.597-0.383,0.94-0.47l0.899-5.5c0.214-0.625,0.79-1.054,1.45-1.08c-0.306-0.252-0.695-0.381-1.09-0.36
		c-0.887-0.062-1.672,0.563-1.811,1.44l-0.939,5.64C24.657,27.17,24.842,27.281,25.011,27.415z M28.141,27.054L28.141,27.054
		c0.112-0.094,0.232-0.177,0.359-0.25l0.5-3.209c0.211-0.629,0.788-1.063,1.451-1.091c-0.307-0.252-0.695-0.381-1.091-0.36
		c-0.886-0.057-1.667,0.573-1.8,1.451l-0.48,3c0.382,0.068,0.741,0.226,1.051,0.459H28.141z M29.701,27.955L29.701,27.955
		c-0.314-0.008-0.62,0.099-0.861,0.3l-0.34,0.3c-0.201,0.172-0.498,0.172-0.699,0l-0.33-0.279c-0.513-0.429-1.258-0.429-1.77,0
		l-0.341,0.3c-0.2,0.166-0.489,0.166-0.69,0l-0.34-0.32c-0.514-0.425-1.26-0.421-1.77,0.011c-0.109,0.09-0.21,0.189-0.32,0.279
		c-0.065,0.05-0.141,0.088-0.22,0.11c-0.212,0.047-0.433-0.021-0.58-0.181c-0.179-0.154-0.369-0.295-0.569-0.42
		c-0.156-0.083-0.334-0.117-0.511-0.1l0,0c-0.198,0-0.36,0.161-0.36,0.359c0,0.199,0.162,0.36,0.36,0.36l0,0
		c0.179,0.013,0.344,0.096,0.46,0.23l0.221,0.2c0.496,0.389,1.193,0.389,1.689,0c0.141-0.101,0.26-0.23,0.4-0.34
		c0.203-0.178,0.506-0.178,0.709,0l0.25,0.289c0.515,0.434,1.267,0.434,1.781,0c0.109-0.08,0.199-0.18,0.299-0.27
		c0.219-0.217,0.572-0.217,0.791,0l0.289,0.3c0.361,0.312,0.856,0.414,1.311,0.271c0.264-0.08,0.502-0.229,0.689-0.431
		c0.121-0.148,0.299-0.239,0.49-0.25l0,0c0.202-0.014,0.354-0.188,0.34-0.39s-0.188-0.354-0.39-0.34L29.701,27.955z"/>
	<path fill="#57AD50" d="M146.219-44.304c0.308-0.239,0.692-0.357,1.08-0.33c0.877-0.064,1.658,0.545,1.811,1.41l0.57,3.39
		c-0.455-0.219-0.985-0.219-1.44,0l-0.569-3.39C147.455-43.849,146.879-44.277,146.219-44.304z M150.56-39.424
		c0.276-0.222,0.597-0.383,0.94-0.47l0.899-5.5c0.214-0.625,0.79-1.054,1.45-1.08c-0.306-0.252-0.695-0.381-1.09-0.36
		c-0.887-0.062-1.672,0.563-1.811,1.44l-0.939,5.64C150.206-39.668,150.391-39.558,150.56-39.424z M153.689-39.784L153.689-39.784
		c0.112-0.094,0.232-0.177,0.359-0.25l0.5-3.209c0.211-0.629,0.788-1.063,1.451-1.091c-0.307-0.252-0.695-0.381-1.091-0.36
		c-0.886-0.057-1.667,0.573-1.8,1.451l-0.48,3c0.382,0.068,0.741,0.226,1.051,0.459H153.689z M155.25-38.884L155.25-38.884
		c-0.314-0.008-0.62,0.099-0.861,0.3l-0.34,0.3c-0.201,0.172-0.498,0.172-0.699,0l-0.33-0.279c-0.513-0.429-1.258-0.429-1.77,0
		l-0.341,0.3c-0.2,0.166-0.489,0.166-0.69,0l-0.34-0.32c-0.514-0.425-1.26-0.421-1.77,0.011c-0.109,0.09-0.21,0.189-0.32,0.279
		c-0.065,0.05-0.141,0.088-0.22,0.11c-0.212,0.047-0.433-0.021-0.58-0.181c-0.179-0.154-0.369-0.295-0.569-0.42
		c-0.156-0.083-0.334-0.117-0.511-0.1l0,0c-0.198,0-0.36,0.161-0.36,0.359c0,0.199,0.162,0.36,0.36,0.36l0,0
		c0.179,0.013,0.344,0.096,0.46,0.23l0.221,0.2c0.496,0.389,1.193,0.389,1.689,0c0.141-0.101,0.26-0.23,0.4-0.34
		c0.203-0.178,0.506-0.178,0.709,0l0.25,0.289c0.515,0.434,1.267,0.434,1.781,0c0.109-0.08,0.199-0.18,0.299-0.27
		c0.219-0.217,0.572-0.217,0.791,0l0.289,0.3c0.361,0.312,0.856,0.414,1.311,0.271c0.264-0.08,0.502-0.229,0.689-0.431
		c0.121-0.148,0.299-0.239,0.49-0.25l0,0c0.202-0.014,0.354-0.188,0.34-0.39s-0.188-0.354-0.39-0.34L155.25-38.884z"/>
	<path fill="#57AD50" d="M180.67,245.116c0.308-0.239,0.692-0.357,1.08-0.33c0.877-0.064,1.658,0.545,1.811,1.41l0.57,3.39
		c-0.455-0.219-0.985-0.219-1.44,0l-0.569-3.39C181.906,245.571,181.33,245.143,180.67,245.116z M185.011,249.996
		c0.276-0.222,0.597-0.383,0.94-0.47l0.899-5.5c0.214-0.625,0.79-1.055,1.45-1.08c-0.306-0.252-0.695-0.381-1.09-0.36
		c-0.887-0.062-1.672,0.563-1.811,1.44l-0.939,5.64C184.657,249.752,184.842,249.862,185.011,249.996z M188.141,249.636
		L188.141,249.636c0.112-0.094,0.232-0.177,0.359-0.25l0.5-3.209c0.211-0.629,0.788-1.062,1.451-1.091
		c-0.307-0.252-0.695-0.381-1.091-0.36c-0.886-0.057-1.667,0.573-1.8,1.451l-0.48,3c0.382,0.068,0.741,0.226,1.051,0.459H188.141z
		 M189.701,250.536L189.701,250.536c-0.314-0.008-0.62,0.099-0.861,0.3l-0.34,0.3c-0.201,0.172-0.498,0.172-0.699,0l-0.33-0.279
		c-0.513-0.429-1.258-0.429-1.77,0l-0.341,0.3c-0.2,0.166-0.489,0.166-0.69,0l-0.34-0.32c-0.514-0.425-1.26-0.421-1.77,0.011
		c-0.109,0.09-0.21,0.189-0.32,0.279c-0.065,0.05-0.141,0.088-0.22,0.11c-0.212,0.047-0.433-0.021-0.58-0.181
		c-0.179-0.154-0.369-0.295-0.569-0.42c-0.156-0.083-0.334-0.117-0.511-0.1l0,0c-0.198,0-0.36,0.161-0.36,0.359
		c0,0.199,0.162,0.36,0.36,0.36l0,0c0.179,0.013,0.344,0.096,0.46,0.23l0.221,0.2c0.496,0.389,1.193,0.389,1.689,0
		c0.141-0.101,0.26-0.23,0.4-0.34c0.203-0.178,0.506-0.178,0.709,0l0.25,0.289c0.515,0.434,1.267,0.434,1.781,0
		c0.109-0.08,0.199-0.18,0.299-0.27c0.219-0.217,0.572-0.217,0.791,0l0.289,0.3c0.361,0.312,0.856,0.414,1.311,0.271
		c0.264-0.08,0.502-0.229,0.689-0.431c0.121-0.148,0.299-0.239,0.49-0.25l0,0c0.202-0.014,0.354-0.188,0.34-0.39
		s-0.188-0.354-0.39-0.34L189.701,250.536z"/>
	<path fill="#57AD50" d="M212.67,213.116c0.308-0.24,0.692-0.357,1.08-0.33c0.877-0.064,1.658,0.545,1.811,1.41l0.57,3.389
		c-0.455-0.219-0.985-0.219-1.44,0l-0.569-3.389C213.906,213.571,213.33,213.142,212.67,213.116z M217.011,217.995
		c0.276-0.221,0.597-0.383,0.94-0.469l0.899-5.5c0.214-0.625,0.79-1.055,1.45-1.08c-0.306-0.253-0.695-0.381-1.09-0.361
		c-0.887-0.062-1.672,0.563-1.811,1.441l-0.939,5.639C216.657,217.751,216.842,217.862,217.011,217.995z M220.141,217.636
		L220.141,217.636c0.112-0.094,0.232-0.178,0.359-0.25l0.5-3.209c0.211-0.63,0.788-1.063,1.451-1.092
		c-0.307-0.252-0.695-0.381-1.091-0.359c-0.886-0.057-1.667,0.572-1.8,1.451l-0.48,3c0.382,0.068,0.741,0.225,1.051,0.459H220.141z
		 M221.701,218.536L221.701,218.536c-0.314-0.008-0.62,0.098-0.861,0.299l-0.34,0.301c-0.201,0.172-0.498,0.172-0.699,0l-0.33-0.279
		c-0.513-0.43-1.258-0.43-1.77,0l-0.341,0.299c-0.2,0.166-0.489,0.166-0.69,0l-0.34-0.32c-0.514-0.424-1.26-0.42-1.77,0.012
		c-0.109,0.09-0.21,0.189-0.32,0.279c-0.065,0.049-0.141,0.088-0.22,0.109c-0.212,0.047-0.433-0.021-0.58-0.18
		c-0.179-0.154-0.369-0.295-0.569-0.42c-0.156-0.084-0.334-0.117-0.511-0.1l0,0c-0.198,0-0.36,0.16-0.36,0.359
		s0.162,0.359,0.36,0.359l0,0c0.179,0.014,0.344,0.096,0.46,0.23l0.221,0.201c0.496,0.389,1.193,0.389,1.689,0
		c0.141-0.102,0.26-0.23,0.4-0.34c0.203-0.178,0.506-0.178,0.709,0l0.25,0.289c0.515,0.434,1.267,0.434,1.781,0
		c0.109-0.08,0.199-0.18,0.299-0.27c0.219-0.217,0.572-0.217,0.791,0l0.289,0.299c0.361,0.312,0.856,0.414,1.311,0.271
		c0.264-0.08,0.502-0.229,0.689-0.432c0.121-0.148,0.299-0.238,0.49-0.25l0,0c0.202-0.014,0.354-0.188,0.34-0.389
		s-0.188-0.354-0.39-0.34L221.701,218.536z"/>
	<path fill="#57AD50" d="M244.67,181.116c0.308-0.24,0.692-0.357,1.08-0.33c0.877-0.064,1.658,0.545,1.811,1.41l0.57,3.389
		c-0.455-0.219-0.985-0.219-1.44,0l-0.569-3.389C245.906,181.571,245.33,181.142,244.67,181.116z M249.011,185.995
		c0.276-0.221,0.597-0.383,0.94-0.469l0.899-5.5c0.214-0.625,0.79-1.055,1.45-1.08c-0.306-0.253-0.695-0.381-1.09-0.361
		c-0.887-0.062-1.672,0.563-1.811,1.441l-0.939,5.639C248.657,185.751,248.842,185.862,249.011,185.995z M252.141,185.636
		L252.141,185.636c0.112-0.094,0.232-0.178,0.359-0.25l0.5-3.209c0.211-0.63,0.788-1.063,1.451-1.092
		c-0.307-0.252-0.695-0.381-1.091-0.359c-0.886-0.057-1.667,0.572-1.8,1.451l-0.48,3c0.382,0.068,0.741,0.225,1.051,0.459H252.141z
		 M253.701,186.536L253.701,186.536c-0.314-0.008-0.62,0.098-0.861,0.299l-0.34,0.301c-0.201,0.172-0.498,0.172-0.699,0l-0.33-0.279
		c-0.513-0.43-1.258-0.43-1.77,0l-0.341,0.299c-0.2,0.166-0.489,0.166-0.69,0l-0.34-0.32c-0.514-0.424-1.26-0.42-1.77,0.012
		c-0.109,0.09-0.21,0.189-0.32,0.279c-0.065,0.049-0.141,0.088-0.22,0.109c-0.212,0.047-0.433-0.021-0.58-0.18
		c-0.179-0.154-0.369-0.295-0.569-0.42c-0.156-0.084-0.334-0.117-0.511-0.1l0,0c-0.198,0-0.36,0.16-0.36,0.359
		s0.162,0.359,0.36,0.359l0,0c0.179,0.014,0.344,0.096,0.46,0.23l0.221,0.201c0.496,0.389,1.193,0.389,1.689,0
		c0.141-0.102,0.26-0.23,0.4-0.34c0.203-0.178,0.506-0.178,0.709,0l0.25,0.289c0.515,0.434,1.267,0.434,1.781,0
		c0.109-0.08,0.199-0.18,0.299-0.27c0.219-0.217,0.572-0.217,0.791,0l0.289,0.299c0.361,0.312,0.856,0.414,1.311,0.271
		c0.264-0.08,0.502-0.229,0.689-0.432c0.121-0.148,0.299-0.238,0.49-0.25l0,0c0.202-0.014,0.354-0.188,0.34-0.389
		s-0.188-0.354-0.39-0.34L253.701,186.536z"/>
	<path fill="#57AD50" d="M244.67,245.116c0.308-0.239,0.692-0.356,1.08-0.33c0.877-0.064,1.658,0.545,1.811,1.41l0.57,3.39
		c-0.455-0.219-0.985-0.219-1.44,0l-0.569-3.39C245.906,245.571,245.33,245.143,244.67,245.116z M249.011,249.996
		c0.276-0.222,0.597-0.383,0.94-0.47l0.899-5.5c0.214-0.625,0.79-1.054,1.45-1.08c-0.306-0.253-0.695-0.381-1.09-0.36
		c-0.887-0.062-1.672,0.562-1.811,1.44l-0.939,5.64C248.657,249.752,248.842,249.862,249.011,249.996z M252.141,249.636
		L252.141,249.636c0.112-0.094,0.232-0.177,0.359-0.25l0.5-3.209c0.211-0.63,0.788-1.063,1.451-1.091
		c-0.307-0.252-0.695-0.381-1.091-0.359c-0.886-0.057-1.667,0.572-1.8,1.45l-0.48,3c0.382,0.068,0.741,0.226,1.051,0.459H252.141z
		 M253.701,250.536L253.701,250.536c-0.314-0.008-0.62,0.099-0.861,0.3l-0.34,0.3c-0.201,0.172-0.498,0.172-0.699,0l-0.33-0.279
		c-0.513-0.429-1.258-0.429-1.77,0l-0.341,0.3c-0.2,0.166-0.489,0.166-0.69,0l-0.34-0.32c-0.514-0.425-1.26-0.421-1.77,0.011
		c-0.109,0.09-0.21,0.189-0.32,0.279c-0.065,0.05-0.141,0.088-0.22,0.11c-0.212,0.047-0.433-0.021-0.58-0.181
		c-0.179-0.154-0.369-0.295-0.569-0.42c-0.156-0.083-0.334-0.117-0.511-0.1l0,0c-0.198,0-0.36,0.161-0.36,0.359
		c0,0.199,0.162,0.36,0.36,0.36l0,0c0.179,0.013,0.344,0.096,0.46,0.23l0.221,0.2c0.496,0.389,1.193,0.389,1.689,0
		c0.141-0.101,0.26-0.23,0.4-0.34c0.203-0.178,0.506-0.178,0.709,0l0.25,0.289c0.515,0.434,1.267,0.434,1.781,0
		c0.109-0.08,0.199-0.18,0.299-0.27c0.219-0.217,0.572-0.217,0.791,0l0.289,0.3c0.361,0.312,0.856,0.414,1.311,0.271
		c0.264-0.08,0.502-0.229,0.689-0.431c0.121-0.148,0.299-0.239,0.49-0.25l0,0c0.202-0.014,0.354-0.188,0.34-0.39
		s-0.188-0.354-0.39-0.34L253.701,250.536z"/>
</g>
</svg>
